<?xml version="1.0" encoding="UTF-8" standalone="no"?>
<!-- Created with Inkscape (http://www.inkscape.org/) -->

<svg
   xmlns:dc="http://purl.org/dc/elements/1.1/"
   xmlns:cc="http://creativecommons.org/ns#"
   xmlns:rdf="http://www.w3.org/1999/02/22-rdf-syntax-ns#"
   xmlns:svg="http://www.w3.org/2000/svg"
   xmlns="http://www.w3.org/2000/svg"
   xmlns:sodipodi="http://sodipodi.sourceforge.net/DTD/sodipodi-0.dtd"
   xmlns:inkscape="http://www.inkscape.org/namespaces/inkscape"
   version="1.1"
   id="svg31965"
   xml:space="preserve"
   width="800"
   height="800"
   viewBox="0 0 800 800"
   sodipodi:docname="knot-graphic-element-3-publicdomainvectors.org.svg"
   inkscape:version="0.92.4 (5da689c313, 2019-01-14)"><metadata
     id="metadata31971"><rdf:RDF><cc:Work
         rdf:about=""><dc:format>image/svg+xml</dc:format><dc:type
           rdf:resource="http://purl.org/dc/dcmitype/StillImage" /><dc:title></dc:title></cc:Work></rdf:RDF></metadata><defs
     id="defs31969"><clipPath
       clipPathUnits="userSpaceOnUse"
       id="clipPath31981"><path
         d="M 0,600 H 600 V 0 H 0 Z"
         id="path31979"
         inkscape:connector-curvature="0" /></clipPath></defs><sodipodi:namedview
     pagecolor="#ffffff"
     bordercolor="#666666"
     borderopacity="1"
     objecttolerance="10"
     gridtolerance="10"
     guidetolerance="10"
     inkscape:pageopacity="0"
     inkscape:pageshadow="2"
     inkscape:window-width="797"
     inkscape:window-height="480"
     id="namedview31967"
     showgrid="false"
     inkscape:zoom="0.295"
     inkscape:cx="400"
     inkscape:cy="400"
     inkscape:window-x="0"
     inkscape:window-y="0"
     inkscape:window-maximized="0"
     inkscape:current-layer="g31973" /><g
     id="g31973"
     inkscape:groupmode="layer"
     inkscape:label="knot-graphic-element-3-publicdomainvectors.org"
     transform="matrix(1.3333333,0,0,-1.3333333,0,800)"><g
       id="g31975"><g
         id="g31977"
         clip-path="url(#clipPath31981)"><path
           d="m 216.681,428.585 5.85,-5.65 -5.853,5.653 c 0,-0.002 0.003,-0.002 0.003,-0.003 m -66.43,64.165 -2.886,2.79 -0.003,-0.001 0.003,-0.002 2.886,-2.788 z m 45.112,-138.768 -0.966,-0.016 z m 62.794,1.091 c -1.425,-0.027 -2.854,-0.05 -4.289,-0.077 l 4.289,0.074 z m 47.813,14.863 c 1.987,2.057 4.094,4.239 6.271,6.494 -2.177,-2.255 -4.284,-4.437 -6.271,-6.494 m -8.941,-18.956 v 0 c -1.341,1.294 -2.447,2.364 -3.338,3.225 -0.064,0.061 -0.131,0.124 -0.192,0.185 0.15,0.192 0.302,0.383 0.45,0.575 0.021,0.242 0.041,0.486 0.063,0.728 l -0.087,0.725 c -0.157,0.187 -0.316,0.374 -0.471,0.558 l 3.412,3.532 c 0.468,-0.726 0.92,-1.469 1.348,-2.224 0.261,-0.83 0.496,-1.663 0.707,-2.504 -1.977,-0.034 -3.638,-0.064 -4.909,-0.087 1.271,0.021 2.923,0.05 4.909,0.084 -0.184,-0.846 -0.389,-1.69 -0.62,-2.528 -0.405,-0.77 -0.825,-1.525 -1.272,-2.269 1.797,-1.734 3.95,-3.815 6.344,-6.128 -2.397,2.315 -4.549,4.394 -6.344,6.128 m -2.223,-1.35 c -0.831,-0.26 -1.662,-0.495 -2.508,-0.707 -0.846,0.183 -1.688,0.389 -2.528,0.62 -0.768,0.402 -1.525,0.825 -2.272,1.272 -0.467,0.726 -0.919,1.469 -1.348,2.224 -0.26,0.83 -0.496,1.663 -0.707,2.504 l 4.663,0.082 c -0.085,-0.003 -0.189,-0.003 -0.29,-0.005 -0.31,-0.006 -0.625,-0.011 -0.971,-0.016 -1.001,-0.018 -2.103,-0.037 -3.402,-0.058 -1.651,-0.029 -3.513,-0.061 -5.555,-0.098 2.039,0.037 3.904,0.069 5.555,0.098 0.185,0.846 0.389,1.687 0.62,2.529 0.406,0.769 0.827,1.524 1.272,2.267 0.726,0.473 1.47,0.923 2.225,1.351 0.829,0.26 1.661,0.495 2.506,0.705 0.847,-0.182 1.688,-0.387 2.529,-0.618 0.767,-0.402 1.525,-0.825 2.268,-1.272 -1.38,-1.427 -2.526,-2.615 -3.411,-3.532 -0.518,-0.537 -0.949,-0.983 -1.269,-1.314 0.315,-0.306 0.761,-0.736 1.266,-1.223 -0.515,0.495 -0.946,0.913 -1.266,1.223 -0.285,0.273 -0.678,0.654 -1.12,1.079 0.442,-0.425 0.835,-0.804 1.12,-1.079 0.315,0.328 0.761,0.788 1.269,1.314 -0.189,0.152 -0.382,0.301 -0.573,0.452 -0.245,0.021 -0.486,0.042 -0.729,0.063 -0.004,0.199 -0.007,0.454 -0.01,0.67 -0.021,1.169 -0.047,2.587 -0.074,4.237 l 0.084,-4.907 c -0.242,-0.029 -0.482,-0.058 -0.724,-0.087 -0.185,-0.158 -0.374,-0.315 -0.558,-0.47 l -1.614,1.558 c 0.29,-0.281 0.574,-0.554 0.836,-0.812 0.278,-0.268 0.536,-0.515 0.775,-0.746 -0.15,-0.193 -0.302,-0.384 -0.449,-0.576 -0.021,-0.242 -0.042,-0.486 -0.063,-0.728 0.029,-0.242 0.058,-0.486 0.086,-0.726 0.159,-0.186 0.316,-0.373 0.471,-0.56 0.193,-0.149 0.384,-0.299 0.575,-0.449 0.245,-0.021 0.488,-0.042 0.729,-0.062 0.003,-0.109 0.005,-0.248 0.005,-0.361 0.021,-1.222 0.048,-2.755 0.079,-4.549 v 0.118 l -0.084,4.792 c 0.242,0.028 0.483,0.057 0.725,0.086 0.184,0.158 0.374,0.315 0.557,0.471 l 3.533,-3.412 c -0.725,-0.471 -1.468,-0.92 -2.223,-1.348 m 29.093,19.819 c -1.61,2.395 -3.348,4.699 -5.22,6.905 -0.89,1.312 -1.841,2.573 -2.853,3.788 0,0 0,-0.003 -0.003,-0.003 -1.245,0.972 -2.542,1.881 -3.879,2.722 -2.273,1.793 -4.633,3.452 -7.083,4.975 -2.831,0.558 -5.693,0.957 -8.574,1.194 -1.556,0.3 -3.123,0.515 -4.693,0.657 h -0.003 c -1.57,-0.194 -3.128,-0.468 -4.668,-0.817 -2.873,-0.339 -5.716,-0.839 -8.528,-1.491 -2.395,-1.61 -4.7,-3.351 -6.905,-5.222 -1.312,-0.888 -2.573,-1.84 -3.787,-2.852 v -0.002 c -0.97,-1.246 -1.877,-2.539 -2.718,-3.88 -1.795,-2.271 -3.454,-4.636 -4.978,-7.086 -0.557,-2.827 -0.957,-5.689 -1.193,-8.573 -0.3,-1.553 -0.516,-3.119 -0.657,-4.691 0.194,-1.57 0.468,-3.128 0.817,-4.671 0.339,-2.875 0.839,-5.716 1.491,-8.528 1.608,-2.395 3.348,-4.7 5.222,-6.905 0.888,-1.312 1.84,-2.573 2.852,-3.787 0,0 0,0.002 0.002,0.002 1.246,-0.972 2.541,-1.881 3.879,-2.722 2.274,-1.793 4.634,-3.451 7.083,-4.976 2.831,-0.557 5.693,-0.956 8.574,-1.193 1.556,-0.297 3.122,-0.516 4.694,-0.657 v -0.003 c 1.572,0.198 3.127,0.469 4.67,0.82 2.873,0.342 5.717,0.839 8.529,1.493 2.394,1.607 4.699,3.348 6.905,5.22 1.311,0.888 2.571,1.84 3.786,2.852 v 0.003 c 0.971,1.245 1.877,2.538 2.719,3.878 1.795,2.271 3.453,4.637 4.977,7.086 0.557,2.828 0.956,5.691 1.194,8.571 0.3,1.556 0.515,3.122 0.657,4.694 -0.195,1.569 -0.468,3.127 -0.817,4.67 -0.34,2.876 -0.839,5.717 -1.492,8.529 m -34.35,-16.516 -0.342,-0.352 -0.104,-0.11 c 0.157,0.163 0.293,0.307 0.446,0.462 m 0.057,2.684 c 0.069,0 0.139,0.003 0.21,0.003 0.09,0.002 0.19,0.005 0.271,0.005 z m -0.475,-3.115 0.076,0.079 1.703,1.763 c -0.137,-0.141 -0.3,-0.309 -0.45,-0.465 -0.401,-0.418 -0.832,-0.861 -1.329,-1.377 m 0.123,5.99 c -0.415,0.4 -0.849,0.818 -1.34,1.29 z M 172.25,231.487 c 0,0.003 -0.003,0.003 -0.003,0.003 h -0.003 l -2.51,-2.6 c 0.003,0 0.003,0 0.003,-0.002 z m -17.158,-17.756 v 0 l -2.788,-2.885 c 0,-0.004 0.003,-0.004 0.003,-0.004 v 0.004 -0.004 l 2.791,2.886 c -0.003,0.003 -0.003,0.003 -0.006,0.003 m 138.771,45.111 0.14,-8.138 c 0,0.003 0.003,0.003 0.003,0.006 z m 67.967,29.547 h -0.002 l 5.853,-5.652 c 0,-0.002 0.004,-0.002 0.006,-0.002 z m 27.172,68.952 0.965,0.016 z m -62.794,-1.091 c 1.425,0.026 2.853,0.05 4.289,0.077 l -4.289,-0.075 z m 41.477,-73.513 -5.851,5.652 5.853,-5.654 z m 61.584,214.856 1.758,1.818 -0.123,-0.129 0.168,0.174 0.988,1.023 v 0 c -0.002,0 -0.002,0 -0.002,0.002 l -2.791,-2.888 z M 291.552,392.06 c -0.011,0.612 -0.023,1.227 -0.031,1.837 l -0.003,0.079 z M 510.91,269.476 c -4.932,-8.045 -11.142,-15.247 -18.4,-21.313 -10.938,-10.582 -25.616,-16.392 -40.828,-16.174 -0.49,-0.019 -0.939,0.268 -1.126,0.72 -0.289,1.035 0.296,2.113 1.321,2.434 4.821,0.546 9.602,1.386 14.319,2.504 8.522,3.209 16.55,7.599 23.853,13.04 4.146,3.142 7.737,6.966 10.606,11.311 2.374,2.844 4.537,5.838 6.484,8.962 0.71,3.614 1.17,7.28 1.375,10.978 0.864,5.136 0.849,10.382 -0.039,15.51 -1.63,8.957 -4.508,17.647 -8.549,25.804 -2.685,4.04 -5.611,7.912 -8.761,11.599 -0.532,0.936 -0.224,2.121 0.697,2.683 0.447,0.202 0.966,0.105 1.311,-0.244 11.272,-10.216 18.043,-24.479 18.82,-39.679 1.167,-9.384 0.8,-18.883 -1.083,-28.135 m -56.53,19.039 c -0.227,0.299 -0.384,0.647 -0.46,1.015 -0.024,0.333 0.07,0.664 0.273,0.933 0.297,0.344 0.61,0.678 0.936,0.993 -0.024,0.455 -0.021,0.909 -0.005,1.366 0.036,0.334 0.192,0.639 0.436,0.865 0.305,0.218 0.657,0.366 1.028,0.431 0.895,0.185 1.767,0.471 2.6,0.86 4.911,3.117 9.339,6.936 13.146,11.331 0.385,0.386 0.936,0.556 1.469,0.459 0.623,-0.221 1.135,-0.673 1.432,-1.265 2.021,-4.504 3.498,-9.232 4.397,-14.087 0.528,-3.214 0.812,-6.462 0.856,-9.719 0.011,-0.079 0.02,-0.16 0.028,-0.245 -0.064,-0.052 -0.124,-0.104 -0.188,-0.16 -2.252,-2.35 -4.678,-4.53 -7.254,-6.521 -3.97,-2.932 -8.276,-5.387 -12.828,-7.303 -0.62,-0.229 -1.304,-0.208 -1.905,0.055 -0.458,0.29 -0.743,0.791 -0.765,1.335 0.215,5.811 -0.416,11.624 -1.883,17.254 -0.341,0.855 -0.782,1.654 -1.313,2.403 m 24.676,25.378 c 0.231,0.122 0.509,0.103 0.715,-0.052 l 0.45,-0.76 c 3.978,-10.923 6.231,-22.401 6.675,-34.015 0.004,-0.043 0.006,-0.084 0.006,-0.128 -0.029,-0.032 -0.063,-0.063 -0.093,-0.093 -8.249,-8.189 -17.724,-15.046 -28.085,-20.319 l -0.843,-0.247 c -0.258,0.026 -0.473,0.2 -0.56,0.45 -0.337,0.986 -0.129,2.079 0.543,2.878 2.758,2.347 5.891,4.212 9.271,5.514 6.178,3.483 11.732,7.916 16.469,13.114 0.081,7.035 -0.953,14.064 -3.096,20.828 -1.582,3.255 -2.603,6.756 -3.015,10.354 0.052,1.044 0.646,1.985 1.563,2.476 m -26.027,12.784 c -0.531,-0.571 -1.157,-1.043 -1.847,-1.406 -0.199,-0.113 -0.435,-0.139 -0.648,-0.063 -0.216,0.068 -0.39,0.229 -0.483,0.437 -0.499,1.003 -0.443,2.194 0.155,3.14 2.963,2.607 5.462,5.701 7.388,9.141 2.263,2.529 3.874,5.577 4.694,8.87 1.394,3.84 2.227,7.833 2.505,11.859 l 3.613,0.063 c -0.244,-1.275 -0.478,-2.554 -0.701,-3.837 -0.604,-4.486 -1.976,-8.841 -4.059,-12.866 -2.595,-5.705 -6.195,-10.899 -10.617,-15.338 M 421.706,269.25 c -0.5,-0.471 -1.055,-0.873 -1.648,-1.205 l -0.499,-0.207 c -0.345,-0.047 -0.687,0.076 -0.915,0.334 -0.238,0.255 -0.327,0.607 -0.249,0.944 0.27,1.156 0.969,2.169 1.954,2.83 l 20.469,16.393 c 2.423,2.02 4.904,3.964 7.448,5.821 -0.592,3.093 -1.084,6.209 -1.474,9.339 l -3.787,25.948 c -0.269,1.154 -0.087,2.373 0.504,3.404 0.171,0.297 0.481,0.494 0.822,0.52 0.346,0.032 0.682,-0.113 0.897,-0.381 l 0.227,-0.491 c 0.207,-0.649 0.335,-1.323 0.385,-2.003 0.919,-12.697 2.845,-25.284 5.754,-37.65 -10.563,-7.051 -20.559,-14.942 -29.888,-23.596 m 0.768,-9.212 c -0.343,-0.8 -1.223,-1.225 -2.057,-0.99 -5.212,3.027 -10.019,6.698 -14.313,10.928 -6.855,5.67 -12.329,12.825 -16.014,20.925 -3.24,3.591 -5.472,7.978 -6.471,12.705 -0.637,1.265 -0.999,2.644 -1.061,4.061 l 0.073,0.536 c 0.11,0.302 0.351,0.536 0.657,0.636 1.288,0.429 2.691,-0.208 3.217,-1.461 2.847,-8.65 6.917,-16.848 12.084,-24.341 l 5.731,-6.646 c 4.764,-5.888 10.706,-10.719 17.447,-14.185 0.742,-0.447 1.045,-1.372 0.707,-2.168 m -71.261,43.417 c -0.984,-0.648 -1.944,-1.32 -2.889,-2.017 -0.917,0.886 -2.066,1.995 -3.419,3.301 14.132,12.66 34.494,15.622 51.661,7.493 4.84,-1.469 9.214,-4.181 12.676,-7.869 0.647,-0.607 1.243,-1.265 1.782,-1.968 0.36,-0.486 0.551,-1.083 0.549,-1.688 0.032,-0.315 -0.084,-0.625 -0.307,-0.846 -0.224,-0.223 -0.541,-0.326 -0.854,-0.287 l -0.471,0.158 c -1.151,0.6 -2.184,1.396 -3.061,2.35 -4.81,4.983 -11.075,8.318 -17.899,9.522 -13.172,2.57 -26.829,-0.378 -37.768,-8.149 m -4.805,-4.976 c -7.391,-11.205 -9.861,-24.954 -6.837,-38.029 1.439,-6.775 4.992,-12.923 10.138,-17.556 0.983,-0.846 1.819,-1.853 2.455,-2.978 l 0.175,-0.468 c 0.051,-0.309 -0.044,-0.632 -0.253,-0.863 -0.216,-0.233 -0.523,-0.356 -0.841,-0.335 -0.604,-0.024 -1.204,0.146 -1.701,0.491 -0.726,0.513 -1.406,1.085 -2.031,1.71 -3.807,3.331 -6.671,7.608 -8.306,12.397 -8.721,16.875 -6.466,37.326 5.698,51.891 l 3.417,-3.303 c -0.666,-0.966 -1.303,-1.951 -1.914,-2.957 m 0.972,-32.393 c 4.761,-0.837 9.222,-2.912 12.921,-6.027 8.221,-3.401 15.564,-8.623 21.472,-15.281 4.374,-4.142 8.206,-8.818 11.415,-13.923 0.261,-0.825 -0.127,-1.717 -0.919,-2.088 -0.784,-0.363 -1.722,-0.094 -2.19,0.632 -3.701,6.615 -8.733,12.386 -14.783,16.948 l -6.843,5.491 c -7.668,4.903 -16,8.691 -24.741,11.23 -1.273,0.486 -1.957,1.861 -1.578,3.167 0.093,0.311 0.318,0.56 0.616,0.681 l 0.533,0.092 c 1.416,-0.013 2.81,-0.329 4.097,-0.922 m 36.804,-35.183 c -0.313,-0.604 -0.697,-1.172 -1.143,-1.689 -8.331,-9.627 -15.87,-19.888 -22.553,-30.691 -12.456,2.482 -25.102,3.972 -37.823,4.447 -0.684,0.023 -1.361,0.13 -2.017,0.313 l -0.498,0.214 c -0.277,0.203 -0.431,0.535 -0.414,0.877 0.017,0.347 0.201,0.662 0.494,0.846 1.01,0.626 2.219,0.848 3.386,0.62 l 26.065,-2.886 c 3.14,-0.281 6.271,-0.664 9.38,-1.148 1.771,2.607 3.625,5.156 5.561,7.645 l 15.669,21.027 c 0.629,1.006 1.62,1.74 2.767,2.049 0.33,0.087 0.687,0.008 0.95,-0.213 0.263,-0.222 0.4,-0.561 0.362,-0.906 z m -16.823,-36.24 c 5.681,-1.27 11.512,-1.7 17.309,-1.283 0.547,-0.003 1.058,-0.272 1.364,-0.717 0.284,-0.598 0.328,-1.275 0.119,-1.907 -1.757,-4.614 -4.055,-9.001 -6.849,-13.072 -1.905,-2.641 -3.998,-5.143 -6.269,-7.475 -0.05,-0.065 -0.101,-0.129 -0.155,-0.192 -0.081,0.005 -0.163,0.011 -0.246,0.016 -3.254,-0.068 -6.514,0.106 -9.741,0.521 -4.883,0.733 -9.656,2.043 -14.233,3.907 -0.6,0.277 -1.069,0.772 -1.31,1.386 -0.116,0.528 0.036,1.085 0.404,1.484 4.263,3.957 7.927,8.514 10.87,13.534 0.363,0.841 0.616,1.724 0.771,2.625 0.049,0.371 0.183,0.729 0.391,1.043 0.215,0.253 0.521,0.418 0.852,0.468 0.455,0.032 0.91,0.048 1.364,0.04 0.308,0.337 0.628,0.659 0.965,0.967 0.26,0.214 0.584,0.318 0.919,0.308 0.37,-0.062 0.725,-0.209 1.03,-0.423 0.768,-0.504 1.586,-0.918 2.445,-1.23 m 24.57,-1.32 c 0.777,0.699 1.86,0.947 2.858,0.644 0.251,-0.079 0.431,-0.29 0.468,-0.541 l -0.221,-0.854 c -4.909,-10.539 -11.433,-20.249 -19.327,-28.775 -0.032,-0.031 -0.063,-0.062 -0.093,-0.098 -0.042,0 -0.087,0.004 -0.129,0.004 -11.625,0.042 -23.17,1.892 -34.228,5.494 l -0.775,0.419 c -0.158,0.203 -0.189,0.475 -0.073,0.713 0.457,0.932 1.377,1.56 2.422,1.65 3.607,-0.289 7.139,-1.185 10.451,-2.654 6.831,-1.908 13.893,-2.697 20.921,-2.37 5.03,4.914 9.274,10.615 12.537,16.912 1.183,3.422 2.939,6.618 5.189,9.456 m 12.028,-31.786 c 5.184,7.488 9.291,15.664 12.203,24.293 0.956,4.752 1.628,9.558 2.005,14.395 0.287,1.035 1.344,1.658 2.391,1.403 0.458,-0.17 0.757,-0.61 0.755,-1.101 0.748,-15.193 -4.551,-30.067 -14.75,-41.365 -5.808,-7.459 -12.786,-13.918 -20.657,-19.127 -9.178,-2.202 -18.661,-2.899 -28.081,-2.057 -15.218,0.249 -29.709,6.521 -40.311,17.431 -0.359,0.334 -0.473,0.851 -0.285,1.305 0.526,0.939 1.705,1.283 2.655,0.786 3.796,-3.02 7.764,-5.811 11.895,-8.353 8.295,-3.755 17.076,-6.331 26.086,-7.647 5.154,-0.707 10.401,-0.545 15.499,0.498 3.69,0.332 7.338,0.92 10.928,1.751 3.054,2.057 5.974,4.324 8.73,6.791 4.244,3.025 7.939,6.742 10.937,10.997 m -51.408,82.92 c -2.613,2.911 -5.038,5.984 -7.257,9.209 -0.808,1.188 -1.351,2.536 -1.59,3.955 -0.023,0.349 0.082,0.696 0.3,0.969 0.42,0.387 0.996,0.536 1.545,0.411 1.549,-0.364 3.084,-0.799 4.589,-1.312 4.413,-1.241 8.573,-3.246 12.293,-5.929 0.283,-0.229 0.499,-0.539 0.614,-0.886 0.111,-0.623 -0.048,-1.256 -0.431,-1.75 -1.532,-1.892 -3.211,-3.657 -5.03,-5.275 -1.566,-1.19 -3.79,-0.918 -5.033,0.608 m -33.193,-17.803 c 0.079,0.355 0.333,0.642 0.678,0.767 1.193,0.416 2.469,0.535 3.719,0.337 8.061,0.326 16.119,0.216 24.157,-0.32 5.088,6.242 10.507,12.21 16.243,17.883 0.709,1.046 1.665,1.9 2.785,2.489 0.324,0.166 0.71,0.157 1.019,-0.023 0.316,-0.182 0.519,-0.51 0.535,-0.876 0.045,-0.557 -0.119,-1.118 -0.447,-1.572 -5.879,-7.778 -11.827,-15.489 -17.854,-23.147 -9.714,0.817 -19.41,1.726 -29.105,2.733 -0.558,0.07 -1.074,0.331 -1.456,0.747 -0.258,0.259 -0.358,0.632 -0.274,0.982 m -2.665,-30.758 c -0.804,-0.322 -1.729,-0.003 -2.152,0.752 -1.543,5.827 -2.348,11.822 -2.395,17.846 -0.835,8.859 0.353,17.794 3.475,26.124 0.246,4.829 1.772,9.507 4.41,13.56 0.442,1.342 1.162,2.575 2.118,3.621 l 0.431,0.329 c 0.292,0.136 0.628,0.129 0.914,-0.015 1.215,-0.611 1.757,-2.051 1.245,-3.312 -4.105,-8.127 -7.023,-16.8 -8.668,-25.753 l -0.649,-8.752 c -0.794,-7.532 -0.009,-15.152 2.305,-22.366 0.211,-0.844 -0.23,-1.711 -1.034,-2.034 m 15.612,39.758 c 0.262,-1.947 -1.054,-3.759 -2.992,-4.095 -2.424,-0.224 -4.856,-0.249 -7.285,-0.076 -0.625,0.055 -1.195,0.37 -1.576,0.876 -0.176,0.319 -0.255,0.687 -0.227,1.055 0.574,4.55 1.946,8.956 4.048,13.031 0.652,1.452 1.38,2.868 2.171,4.251 0.284,0.488 0.784,0.805 1.354,0.85 0.349,-0.028 0.675,-0.183 0.917,-0.443 0.867,-1.142 1.482,-2.46 1.806,-3.862 0.842,-3.819 1.432,-7.69 1.784,-11.587 m -35.3,41.329 c -1.153,0.239 -2.31,0.444 -3.467,0.618 -0.023,1.275 -0.052,2.875 -0.084,4.754 18.947,-1.041 35.44,-13.347 41.831,-31.234 2.382,-4.463 3.56,-9.472 3.397,-14.527 0.031,-0.885 -0.011,-1.77 -0.132,-2.653 -0.09,-0.598 -0.373,-1.152 -0.804,-1.58 -0.201,-0.247 -0.503,-0.384 -0.815,-0.382 -0.316,0.003 -0.615,0.152 -0.807,0.403 l -0.224,0.444 c -0.386,1.238 -0.557,2.533 -0.503,3.827 0.125,6.925 -1.947,13.714 -5.92,19.389 -7.498,11.132 -19.239,18.704 -32.472,20.941 m -6.915,-0.118 c -13.146,-2.697 -24.616,-10.671 -31.723,-22.058 -3.774,-5.809 -5.608,-12.667 -5.246,-19.584 0.1,-1.291 -0.023,-2.592 -0.368,-3.84 l -0.208,-0.455 c -0.183,-0.255 -0.475,-0.415 -0.791,-0.428 -0.315,-0.014 -0.62,0.115 -0.83,0.355 -0.446,0.41 -0.746,0.956 -0.857,1.551 -0.15,0.875 -0.226,1.761 -0.226,2.645 -0.337,5.047 0.665,10.096 2.891,14.637 5.766,18.099 21.82,30.965 40.72,32.667 0.034,-1.887 0.06,-3.479 0.081,-4.754 -1.151,-0.213 -2.303,-0.458 -3.443,-0.736 m -6.773,-91.329 c 3.839,-1.394 7.835,-2.227 11.862,-2.505 l 0.062,-3.613 c -1.277,0.245 -2.554,0.478 -3.837,0.701 -4.489,0.604 -8.841,1.976 -12.868,4.057 -5.708,2.597 -10.899,6.193 -15.338,10.618 -0.568,0.532 -1.043,1.158 -1.404,1.848 -0.116,0.198 -0.141,0.435 -0.068,0.647 0.071,0.216 0.231,0.391 0.437,0.484 1.006,0.499 2.196,0.442 3.143,-0.155 2.607,-2.963 5.7,-5.462 9.141,-7.388 2.528,-2.264 5.576,-3.875 8.87,-4.694 m -53.95,10.694 c -7.052,10.563 -14.942,20.559 -23.596,29.888 -0.471,0.5 -0.873,1.054 -1.204,1.648 l -0.205,0.499 c -0.05,0.345 0.074,0.687 0.331,0.915 0.252,0.234 0.61,0.326 0.94,0.249 1.157,-0.27 2.172,-0.97 2.834,-1.954 l 16.39,-20.47 c 2.023,-2.422 3.966,-4.903 5.824,-7.447 3.094,0.593 6.208,1.084 9.339,1.474 l 25.948,3.787 c 1.157,0.268 2.373,0.087 3.404,-0.504 0.297,-0.172 0.494,-0.481 0.52,-0.822 0.028,-0.346 -0.113,-0.682 -0.381,-0.897 l -0.491,-0.227 c -0.65,-0.207 -1.323,-0.335 -2.003,-0.385 -12.698,-0.919 -25.284,-2.845 -37.65,-5.754 m 13.462,-20.74 c 0.386,-0.386 0.557,-0.936 0.46,-1.469 -0.221,-0.623 -0.67,-1.135 -1.264,-1.433 -4.505,-2.02 -9.236,-3.498 -14.087,-4.396 -3.213,-0.528 -6.464,-0.813 -9.72,-0.857 -0.079,-0.01 -0.163,-0.019 -0.244,-0.026 -0.056,0.063 -0.108,0.123 -0.161,0.187 -2.349,2.252 -4.531,4.677 -6.518,7.253 -2.938,3.971 -5.388,8.277 -7.307,12.829 -0.228,0.62 -0.207,1.303 0.055,1.905 0.293,0.458 0.791,0.743 1.336,0.765 5.811,-0.215 11.625,0.416 17.255,1.882 0.851,0.342 1.655,0.783 2.402,1.314 0.299,0.226 0.646,0.384 1.014,0.46 0.337,0.023 0.665,-0.07 0.93,-0.274 0.347,-0.296 0.681,-0.609 0.999,-0.935 0.452,0.023 0.91,0.02 1.364,0.005 0.334,-0.036 0.639,-0.193 0.865,-0.436 0.221,-0.305 0.368,-0.657 0.431,-1.028 0.184,-0.896 0.47,-1.769 0.859,-2.6 3.118,-4.911 6.937,-9.34 11.331,-13.146 m 7.585,-6.722 c 0.121,-0.231 0.103,-0.51 -0.053,-0.715 l -0.757,-0.45 c -10.925,-3.978 -22.402,-6.231 -34.015,-6.676 -0.041,-0.004 -0.089,-0.005 -0.131,-0.005 -0.032,0.029 -0.063,0.063 -0.092,0.093 -8.192,8.249 -15.047,17.724 -20.319,28.085 l -0.247,0.843 c 0.027,0.258 0.2,0.473 0.449,0.559 0.986,0.334 2.079,0.127 2.878,-0.546 2.35,-2.754 4.214,-5.887 5.515,-9.267 3.482,-6.179 7.916,-11.732 13.115,-16.469 7.033,-0.081 14.06,0.952 20.826,3.096 3.253,1.582 6.757,2.602 10.355,3.015 1.044,-0.052 1.984,-0.646 2.476,-1.563 m 9.359,-20.87 c 4.04,2.685 7.912,5.61 11.599,8.761 0.935,0.532 2.121,0.223 2.68,-0.698 0.205,-0.446 0.106,-0.965 -0.241,-1.31 -10.216,-11.273 -24.479,-18.043 -39.676,-18.82 -9.389,-1.167 -18.887,-0.8 -28.139,1.083 -8.044,4.932 -15.244,11.142 -21.312,18.399 -10.579,10.938 -16.392,25.617 -16.174,40.829 -0.019,0.489 0.265,0.939 0.717,1.126 1.039,0.289 2.119,-0.298 2.44,-1.321 0.545,-4.821 1.382,-9.602 2.501,-14.32 3.212,-8.521 7.597,-16.549 13.041,-23.851 3.142,-4.148 6.966,-7.738 11.311,-10.608 2.843,-2.374 5.836,-4.537 8.964,-6.484 3.612,-0.709 7.281,-1.169 10.975,-1.374 5.136,-0.865 10.382,-0.85 15.51,0.039 8.959,1.63 17.646,4.508 25.804,8.549 m -61.046,78.159 c -0.447,-0.742 -1.372,-1.045 -2.168,-0.707 -0.799,0.343 -1.225,1.223 -0.992,2.057 3.028,5.212 6.7,10.018 10.929,14.313 5.672,6.855 12.826,12.328 20.926,16.014 3.59,3.24 7.974,5.469 12.705,6.47 1.264,0.636 2.644,1 4.058,1.065 l 0.539,-0.076 c 0.302,-0.11 0.536,-0.353 0.639,-0.657 0.426,-1.29 -0.211,-2.692 -1.465,-3.22 -8.649,-2.844 -16.844,-6.914 -24.34,-12.081 l -6.644,-5.731 c -5.89,-4.765 -10.72,-10.707 -14.187,-17.447 m 26.272,22.42 c 0.103,0.353 0.305,0.668 0.583,0.907 3.622,2.812 7.711,4.957 12.077,6.353 1.487,0.563 3.005,1.052 4.539,1.472 0.547,0.143 1.13,0.012 1.561,-0.359 0.231,-0.267 0.347,-0.606 0.334,-0.959 -0.192,-1.425 -0.686,-2.791 -1.453,-4.008 -2.103,-3.299 -4.421,-6.452 -6.933,-9.456 -1.186,-1.564 -3.402,-1.914 -5.01,-0.781 -1.872,1.556 -3.611,3.26 -5.204,5.099 -0.405,0.478 -0.581,1.106 -0.494,1.732 m 40.065,-21.735 c 1.243,0.238 2.523,0.165 3.732,-0.21 0.347,-0.114 0.61,-0.39 0.704,-0.741 0.095,-0.35 0.006,-0.723 -0.241,-0.992 -0.366,-0.426 -0.873,-0.71 -1.427,-0.797 -9.654,-1.342 -19.315,-2.591 -28.993,-3.742 -6.289,7.443 -12.505,14.946 -18.647,22.511 -0.344,0.444 -0.528,0.995 -0.503,1.559 0.003,0.365 0.195,0.699 0.503,0.888 0.307,0.195 0.691,0.218 1.019,0.06 1.138,-0.546 2.126,-1.365 2.868,-2.389 5.929,-5.469 11.553,-11.246 16.855,-17.309 8.013,0.817 16.067,1.207 24.13,1.162 m -1.162,18.654 c 2.24,-3.996 3.766,-8.353 4.494,-12.883 0.042,-0.362 -0.026,-0.732 -0.189,-1.061 -0.363,-0.515 -0.919,-0.856 -1.545,-0.93 -2.418,-0.257 -4.852,-0.316 -7.283,-0.178 -1.947,0.269 -3.33,2.034 -3.13,3.99 0.212,3.909 0.67,7.795 1.382,11.643 0.268,1.412 0.836,2.749 1.672,3.922 0.229,0.266 0.546,0.434 0.899,0.474 0.567,-0.025 1.082,-0.325 1.382,-0.803 0.836,-1.354 1.614,-2.746 2.318,-4.174 m 9.751,-25.822 -0.951,8.721 c -1.956,8.892 -5.17,17.458 -9.556,25.439 -0.558,1.24 -0.069,2.699 1.124,3.35 0.284,0.155 0.621,0.171 0.915,0.048 l 0.444,-0.313 c 0.991,-1.012 1.753,-2.221 2.242,-3.548 2.778,-3.956 4.462,-8.578 4.878,-13.396 3.412,-8.221 4.907,-17.105 4.378,-25.989 0.161,-6.023 -0.436,-12.043 -1.771,-17.919 -0.399,-0.767 -1.309,-1.123 -2.128,-0.826 -0.812,0.295 -1.286,1.15 -1.102,1.995 2.06,7.295 2.579,14.934 1.527,22.438 m -33.678,77.037 c -0.647,0.986 -1.32,1.948 -2.019,2.889 0.886,0.917 2,2.07 3.306,3.422 12.658,-14.135 15.62,-34.497 7.491,-51.665 -1.472,-4.839 -4.182,-9.214 -7.869,-12.675 -0.604,-0.647 -1.264,-1.244 -1.968,-1.783 -0.487,-0.359 -1.081,-0.55 -1.688,-0.548 -0.317,-0.033 -0.628,0.083 -0.846,0.307 -0.223,0.224 -0.326,0.541 -0.286,0.854 l 0.157,0.47 c 0.6,1.152 1.398,2.185 2.35,3.062 4.983,4.809 8.318,11.075 9.524,17.896 2.571,13.178 -0.377,26.831 -8.152,37.771 m -4.973,4.807 c -11.207,7.388 -24.953,9.858 -38.031,6.833 -6.776,-1.44 -12.926,-4.991 -17.556,-10.136 -0.847,-0.987 -1.851,-1.817 -2.981,-2.455 l -0.462,-0.174 c -0.314,-0.052 -0.631,0.04 -0.866,0.255 -0.233,0.213 -0.357,0.52 -0.335,0.836 -0.024,0.606 0.146,1.204 0.491,1.702 0.512,0.727 1.085,1.407 1.711,2.033 3.33,3.808 7.609,6.667 12.395,8.305 16.876,8.72 37.329,6.465 51.892,-5.695 -0.197,-0.203 -0.389,-0.402 -0.575,-0.597 l -2.729,-2.823 c -0.964,0.665 -1.95,1.303 -2.954,1.916 m -32.396,-0.976 c -0.836,-4.759 -2.912,-9.219 -6.023,-12.919 -3.404,-8.222 -8.627,-15.563 -15.284,-21.474 -4.142,-4.373 -8.818,-8.206 -13.922,-11.414 -0.825,-0.263 -1.719,0.131 -2.089,0.92 -0.364,0.783 -0.098,1.722 0.633,2.19 6.613,3.7 12.384,8.733 16.947,14.783 l 5.493,6.842 c 4.904,7.669 8.689,16.001 11.228,24.745 0.486,1.269 1.861,1.955 3.166,1.573 0.311,-0.091 0.56,-0.317 0.682,-0.611 l 0.094,-0.536 c -0.016,-1.417 -0.331,-2.811 -0.925,-4.099 m -67.562,-13.107 c 2.481,12.459 3.969,25.106 4.447,37.824 0.024,0.683 0.129,1.362 0.313,2.016 l 0.213,0.499 c 0.205,0.276 0.536,0.431 0.877,0.41 0.348,-0.013 0.663,-0.2 0.847,-0.491 0.626,-1.01 0.849,-2.218 0.62,-3.385 l -2.886,-26.065 c -0.281,-3.143 -0.667,-6.271 -1.148,-9.38 2.607,-1.771 5.156,-3.625 7.646,-5.562 l 21.026,-15.672 c 1.009,-0.625 1.74,-1.613 2.05,-2.763 0.089,-0.331 0.01,-0.69 -0.216,-0.951 -0.221,-0.263 -0.56,-0.399 -0.904,-0.361 l -0.505,0.186 c -0.604,0.313 -1.172,0.696 -1.687,1.145 -9.63,8.326 -19.891,15.868 -30.693,22.55 m -0.572,42.763 c -0.844,-0.214 -1.709,0.228 -2.035,1.032 -0.326,0.808 0,1.73 0.751,2.153 5.828,1.543 11.823,2.347 17.847,2.394 8.859,0.836 17.793,-0.352 26.125,-3.474 4.827,-0.248 9.506,-1.775 13.558,-4.408 1.344,-0.444 2.579,-1.165 3.624,-2.118 l 0.326,-0.434 c 0.138,-0.292 0.129,-0.628 -0.015,-0.917 -0.61,-1.212 -2.05,-1.753 -3.312,-1.241 -8.126,4.105 -16.799,7.023 -25.751,8.668 l -8.753,0.649 c -7.532,0.792 -15.151,0.008 -22.365,-2.304 m 33.552,-4.303 c 0.052,0.625 0.373,1.196 0.877,1.575 0.321,0.178 0.689,0.257 1.055,0.228 4.549,-0.573 8.954,-1.945 13.027,-4.048 1.454,-0.652 2.871,-1.38 4.253,-2.168 0.489,-0.283 0.81,-0.786 0.851,-1.356 -0.026,-0.35 -0.183,-0.675 -0.446,-0.914 -1.141,-0.874 -2.455,-1.488 -3.859,-1.809 -3.818,-0.841 -7.69,-1.435 -11.59,-1.781 -1.945,-0.269 -3.755,1.05 -4.095,2.987 -0.221,2.427 -0.247,4.86 -0.073,7.286 m 12.973,-30.522 c 2.912,2.612 5.986,5.039 9.209,7.257 1.188,0.806 2.539,1.35 3.956,1.59 0.349,0.026 0.696,-0.082 0.97,-0.299 0.389,-0.421 0.536,-0.997 0.409,-1.546 -0.362,-1.548 -0.798,-3.083 -1.308,-4.589 -1.244,-4.413 -3.249,-8.573 -5.935,-12.293 -0.226,-0.286 -0.536,-0.499 -0.883,-0.614 -0.623,-0.111 -1.257,0.05 -1.75,0.433 -1.893,1.53 -3.654,3.208 -5.278,5.028 -1.188,1.566 -0.915,3.79 0.61,5.033 m 0.864,-11.604 c 1.046,-0.71 1.9,-1.666 2.489,-2.786 0.168,-0.322 0.158,-0.707 -0.023,-1.018 -0.181,-0.317 -0.511,-0.519 -0.875,-0.535 -0.557,-0.042 -1.118,0.116 -1.572,0.447 -7.775,5.877 -15.488,11.827 -23.15,17.856 0.82,9.712 1.729,19.407 2.736,29.102 0.068,0.56 0.334,1.076 0.749,1.457 0.258,0.258 0.631,0.358 0.98,0.274 0.355,-0.082 0.642,-0.335 0.765,-0.679 0.415,-1.193 0.537,-2.468 0.342,-3.719 0.32,-8.058 0.213,-16.119 -0.323,-24.156 6.242,-5.085 12.211,-10.511 17.882,-16.243 m 31.663,67.15 c 0.242,1.151 0.447,2.307 0.62,3.469 l 0.957,0.016 c -0.105,-0.003 -0.234,-0.003 -0.336,-0.006 l 4.131,0.072 c -1.041,-18.948 -13.346,-35.437 -31.234,-41.831 -4.463,-2.382 -9.473,-3.559 -14.524,-3.396 -0.888,-0.032 -1.777,0.013 -2.657,0.131 -0.597,0.089 -1.153,0.373 -1.58,0.801 -0.247,0.203 -0.383,0.505 -0.383,0.818 0.005,0.316 0.152,0.614 0.404,0.807 l 0.445,0.223 c 1.237,0.386 2.53,0.557 3.826,0.502 6.926,-0.123 13.714,1.951 19.389,5.921 11.133,7.499 18.703,19.239 20.942,32.473 m -22.177,38.638 c -5.808,3.774 -12.666,5.608 -19.581,5.245 -1.293,-0.099 -2.594,0.024 -3.842,0.369 l -0.452,0.207 c -0.258,0.184 -0.416,0.475 -0.431,0.791 -0.014,0.316 0.115,0.621 0.352,0.831 0.415,0.446 0.957,0.746 1.553,0.856 0.875,0.15 1.761,0.227 2.646,0.227 5.047,0.336 10.096,-0.665 14.64,-2.891 18.093,-5.766 30.963,-21.82 32.664,-40.72 -1.881,-0.032 -3.479,-0.06 -4.752,-0.081 -0.215,1.15 -0.459,2.299 -0.738,3.443 -2.7,13.146 -10.671,24.616 -22.059,31.723 m 2.326,-6.818 -0.313,-0.444 c -1.012,-0.991 -2.218,-1.756 -3.548,-2.245 -3.958,-2.775 -8.579,-4.46 -13.397,-4.875 -8.218,-3.409 -17.104,-4.907 -25.988,-4.379 -6.021,-0.16 -12.039,0.433 -17.919,1.774 -0.764,0.397 -1.122,1.309 -0.828,2.127 0.299,0.811 1.151,1.284 1.998,1.101 7.293,-2.061 14.933,-2.581 22.434,-1.528 l 8.723,0.952 c 8.892,1.956 17.46,5.17 25.439,9.559 1.241,0.555 2.7,0.063 3.351,-1.127 0.155,-0.284 0.171,-0.621 0.048,-0.915 m -71.597,-18.133 c -1.392,-3.839 -2.225,-7.832 -2.502,-11.858 l -3.616,-0.063 c 0.244,1.274 0.478,2.554 0.702,3.837 0.604,4.486 1.979,8.842 4.055,12.866 2.599,5.706 6.198,10.899 10.618,15.338 0.536,0.567 1.159,1.043 1.851,1.404 0.199,0.116 0.433,0.141 0.647,0.068 0.214,-0.071 0.391,-0.231 0.482,-0.44 0.5,-1.003 0.442,-2.194 -0.157,-3.14 -2.96,-2.607 -5.459,-5.701 -7.386,-9.142 -2.263,-2.528 -3.874,-5.576 -4.694,-8.87 m 40.584,77.55 c 0.502,0.466 1.053,0.87 1.647,1.202 l 0.5,0.205 c 0.341,0.049 0.686,-0.075 0.914,-0.333 0.237,-0.251 0.326,-0.608 0.25,-0.942 -0.271,-1.156 -0.97,-2.17 -1.955,-2.833 l -20.47,-16.391 c -2.42,-2.022 -4.906,-3.963 -7.445,-5.821 0.591,-3.094 1.083,-6.208 1.471,-9.339 l 3.787,-25.948 c 0.272,-1.157 0.087,-2.374 -0.504,-3.404 -0.17,-0.297 -0.48,-0.494 -0.822,-0.52 -0.345,-0.032 -0.679,0.112 -0.897,0.381 l -0.228,0.491 c -0.206,0.65 -0.337,1.322 -0.384,2.003 -0.918,12.697 -2.844,25.283 -5.756,37.647 10.565,7.054 20.558,14.946 29.892,23.602 m -0.766,9.209 c 0.339,0.8 1.22,1.225 2.051,0.993 5.214,-3.03 10.021,-6.701 14.313,-10.927 6.857,-5.675 12.331,-12.83 16.016,-20.931 3.241,-3.588 5.473,-7.973 6.472,-12.704 0.635,-1.263 0.998,-2.644 1.061,-4.057 l -0.074,-0.539 c -0.11,-0.302 -0.352,-0.537 -0.657,-0.639 -1.287,-0.426 -2.691,0.21 -3.217,1.464 -2.846,8.65 -6.917,16.846 -12.085,24.34 l -5.729,6.646 c -4.765,5.888 -10.708,10.719 -17.446,14.187 -0.744,0.445 -1.046,1.371 -0.705,2.167 m 21.389,-28.933 c 0.481,0.402 1.11,0.581 1.735,0.494 0.352,-0.104 0.668,-0.306 0.907,-0.586 2.811,-3.621 4.959,-7.71 6.352,-12.075 0.565,-1.491 1.051,-3.007 1.472,-4.539 0.144,-0.547 0.016,-1.131 -0.357,-1.562 -0.268,-0.23 -0.608,-0.347 -0.963,-0.333 -1.422,0.191 -2.788,0.686 -4.005,1.453 -3.299,2.103 -6.455,4.421 -9.456,6.933 -1.564,1.185 -1.914,3.401 -0.781,5.01 1.559,1.872 3.262,3.61 5.096,5.205 m -16.395,-33.888 c 0.265,1.948 2.032,3.331 3.987,3.131 3.908,-0.213 7.796,-0.67 11.643,-1.383 1.412,-0.268 2.75,-0.836 3.922,-1.671 0.265,-0.229 0.434,-0.546 0.473,-0.899 -0.023,-0.568 -0.324,-1.082 -0.802,-1.382 -1.353,-0.837 -2.744,-1.614 -4.173,-2.319 -3.998,-2.239 -8.355,-3.766 -12.884,-4.494 -0.363,-0.042 -0.736,0.027 -1.062,0.19 -0.515,0.363 -0.854,0.919 -0.93,1.542 -0.258,2.421 -0.316,4.855 -0.174,7.285 m -4.767,18.446 c 0.819,-8.014 1.203,-16.067 1.161,-24.133 0.237,-1.24 0.166,-2.523 -0.211,-3.727 -0.109,-0.346 -0.388,-0.612 -0.74,-0.707 -0.347,-0.094 -0.723,-0.005 -0.994,0.242 -0.425,0.366 -0.707,0.873 -0.794,1.427 -1.345,9.654 -2.591,19.315 -3.742,28.992 7.443,6.29 14.944,12.506 22.514,18.65 0.441,0.344 0.993,0.524 1.555,0.499 0.366,-0.003 0.699,-0.194 0.889,-0.501 0.194,-0.306 0.218,-0.69 0.063,-1.02 -0.55,-1.138 -1.369,-2.125 -2.391,-2.869 -5.471,-5.928 -11.247,-11.552 -17.31,-16.853 m 71.03,0.959 c 0.984,0.647 1.945,1.319 2.889,2.018 0.918,-0.888 2.065,-1.996 3.419,-3.303 -14.134,-12.66 -34.493,-15.623 -51.661,-7.493 -4.84,1.472 -9.214,4.181 -12.673,7.868 -0.649,0.605 -1.246,1.265 -1.785,1.969 -0.36,0.487 -0.551,1.081 -0.549,1.685 -0.031,0.32 0.084,0.631 0.308,0.849 0.223,0.223 0.541,0.326 0.854,0.286 l 0.473,-0.157 c 1.149,-0.6 2.181,-1.399 3.059,-2.349 4.81,-4.984 11.076,-8.32 17.899,-9.526 13.173,-2.57 26.829,0.378 37.767,8.153 m 4.805,4.973 c 7.391,11.205 9.861,24.953 6.836,38.032 -1.438,6.775 -4.991,12.923 -10.137,17.557 -0.983,0.843 -1.819,1.849 -2.455,2.976 l -0.176,0.467 c -0.05,0.312 0.045,0.63 0.255,0.863 0.216,0.232 0.523,0.358 0.841,0.338 0.604,0.022 1.204,-0.149 1.7,-0.492 0.726,-0.513 1.407,-1.086 2.033,-1.712 3.805,-3.331 6.669,-7.609 8.305,-12.396 8.72,-16.875 6.465,-37.327 -5.699,-51.891 l -3.417,3.303 c 0.666,0.965 1.304,1.951 1.914,2.955 m -0.973,32.396 c -4.759,0.834 -9.219,2.91 -12.92,6.025 -8.221,3.401 -15.564,8.625 -21.472,15.281 -4.374,4.143 -8.206,8.82 -11.415,13.923 -0.261,0.824 0.129,1.72 0.92,2.088 0.783,0.365 1.721,0.097 2.189,-0.632 3.701,-6.613 8.734,-12.384 14.782,-16.945 l 6.844,-5.495 c 7.669,-4.903 16,-8.689 24.742,-11.228 1.272,-0.486 1.96,-1.864 1.577,-3.166 -0.093,-0.31 -0.318,-0.56 -0.615,-0.68 l -0.533,-0.094 c -1.418,0.015 -2.811,0.329 -4.099,0.923 m -58.815,36.975 c -3.7,-1.732 -7.111,-3.964 -10.155,-6.616 l -2.602,2.512 c 1.075,0.729 2.145,1.468 3.212,2.217 3.597,2.746 7.648,4.853 11.963,6.231 5.872,2.196 12.088,3.324 18.354,3.336 0.78,0.025 1.559,-0.08 2.302,-0.313 0.22,-0.06 0.407,-0.207 0.505,-0.413 0.102,-0.202 0.112,-0.44 0.028,-0.648 -0.354,-1.065 -1.237,-1.867 -2.328,-2.114 -3.937,0.252 -7.893,-0.168 -11.688,-1.238 -3.388,-0.19 -6.684,-1.206 -9.591,-2.954 m 45.709,30.585 c 12.455,-2.481 25.102,-3.969 37.823,-4.447 0.683,-0.022 1.362,-0.129 2.016,-0.312 l 0.496,-0.211 c 0.279,-0.208 0.434,-0.537 0.415,-0.881 -0.015,-0.345 -0.199,-0.66 -0.493,-0.843 -1.01,-0.627 -2.218,-0.85 -3.386,-0.62 l -26.064,2.884 c -3.141,0.281 -6.271,0.666 -9.38,1.149 -1.771,-2.606 -3.624,-5.157 -5.561,-7.646 l -15.67,-21.025 c -0.628,-1.009 -1.62,-1.741 -2.765,-2.051 -0.331,-0.089 -0.689,-0.01 -0.952,0.216 -0.262,0.22 -0.399,0.558 -0.362,0.901 l 0.186,0.507 c 0.313,0.606 0.697,1.174 1.143,1.689 8.332,9.626 15.87,19.89 22.554,30.69 m -6.873,3.864 c -5.683,1.269 -11.512,1.699 -17.31,1.283 -0.547,0 -1.056,0.269 -1.364,0.715 -0.284,0.596 -0.329,1.277 -0.119,1.906 1.756,4.614 4.056,9.002 6.85,13.072 1.903,2.643 3.998,5.144 6.269,7.475 0.049,0.065 0.102,0.13 0.154,0.194 0.081,-0.008 0.163,-0.012 0.247,-0.019 3.254,0.069 6.513,-0.103 9.741,-0.517 4.883,-0.733 9.656,-2.044 14.232,-3.909 0.602,-0.277 1.069,-0.772 1.311,-1.384 0.116,-0.53 -0.036,-1.086 -0.405,-1.486 -4.263,-3.957 -7.926,-8.514 -10.87,-13.533 -0.363,-0.841 -0.615,-1.724 -0.77,-2.626 -0.05,-0.374 -0.184,-0.729 -0.392,-1.044 -0.215,-0.252 -0.52,-0.418 -0.851,-0.465 -0.455,-0.034 -0.91,-0.047 -1.364,-0.042 -0.308,-0.338 -0.628,-0.66 -0.965,-0.97 -0.26,-0.21 -0.589,-0.318 -0.919,-0.304 -0.372,0.062 -0.727,0.208 -1.031,0.425 -0.767,0.503 -1.585,0.916 -2.444,1.229 m -24.569,1.319 c -0.778,-0.7 -1.861,-0.946 -2.86,-0.645 -0.25,0.077 -0.431,0.289 -0.468,0.544 l 0.221,0.853 c 4.91,10.538 11.433,20.245 19.328,28.773 0.032,0.031 0.063,0.064 0.093,0.097 0.042,-10e-4 0.086,-10e-4 0.128,-0.002 11.625,-0.041 23.171,-1.894 34.228,-5.493 l 0.775,-0.42 c 0.158,-0.201 0.189,-0.477 0.074,-0.714 -0.457,-0.934 -1.377,-1.559 -2.423,-1.65 -3.606,0.289 -7.139,1.185 -10.45,2.654 -6.831,1.909 -13.896,2.7 -20.921,2.371 -5.031,-4.915 -9.273,-10.617 -12.537,-16.914 -1.183,-3.421 -2.938,-6.618 -5.188,-9.454 m -12.03,31.785 c -5.183,-7.485 -9.291,-15.664 -12.203,-24.293 -0.957,-4.753 -1.627,-9.557 -2.008,-14.395 -0.284,-1.036 -1.34,-1.658 -2.386,-1.403 -0.46,0.17 -0.762,0.609 -0.757,1.098 -0.747,15.197 4.552,30.069 14.75,41.366 5.808,7.462 12.786,13.918 20.658,19.129 9.178,2.202 18.66,2.899 28.08,2.061 15.218,-0.254 29.708,-6.524 40.312,-17.435 0.357,-0.332 0.473,-0.851 0.284,-1.305 -0.526,-0.939 -1.703,-1.284 -2.655,-0.787 -3.795,3.022 -7.764,5.811 -11.898,8.352 -8.292,3.757 -17.073,6.332 -26.082,7.649 -5.155,0.711 -10.401,0.544 -15.5,-0.497 -3.689,-0.334 -7.34,-0.923 -10.928,-1.754 -3.053,-2.055 -5.974,-4.323 -8.731,-6.791 -4.241,-3.021 -7.942,-6.74 -10.936,-10.995 m 51.409,-82.917 c 2.612,-2.915 5.039,-5.988 7.256,-9.211 0.807,-1.189 1.351,-2.536 1.591,-3.955 0.027,-0.35 -0.082,-0.694 -0.3,-0.972 -0.42,-0.386 -0.996,-0.535 -1.546,-0.409 -1.547,0.365 -3.083,0.799 -4.588,1.311 -4.413,1.243 -8.574,3.245 -12.292,5.931 -0.285,0.228 -0.5,0.538 -0.616,0.888 -0.11,0.62 0.047,1.252 0.431,1.747 1.533,1.891 3.212,3.654 5.031,5.276 1.566,1.188 3.79,0.917 5.033,-0.606 m 33.192,17.799 c -0.079,-0.353 -0.334,-0.643 -0.678,-0.765 -1.193,-0.417 -2.468,-0.534 -3.719,-0.34 -8.061,-0.323 -16.119,-0.214 -24.156,0.322 -5.088,-6.242 -10.508,-12.211 -16.243,-17.884 -0.709,-1.046 -1.666,-1.9 -2.786,-2.486 -0.323,-0.167 -0.709,-0.158 -1.02,0.023 -0.315,0.18 -0.517,0.509 -0.533,0.872 -0.044,0.559 0.118,1.119 0.447,1.573 5.879,7.777 11.827,15.489 17.854,23.148 9.713,-0.819 19.409,-1.727 29.104,-2.733 0.558,-0.07 1.076,-0.333 1.456,-0.748 0.258,-0.259 0.358,-0.631 0.274,-0.982 m 2.665,30.759 c 0.805,0.324 1.727,0 2.153,-0.751 1.543,-5.829 2.346,-11.824 2.394,-17.848 0.836,-8.86 -0.353,-17.791 -3.475,-26.125 -0.247,-4.828 -1.771,-9.507 -4.41,-13.557 -0.441,-1.344 -1.162,-2.578 -2.118,-3.623 l -0.431,-0.328 c -0.292,-0.134 -0.628,-0.129 -0.914,0.016 -1.215,0.609 -1.757,2.051 -1.244,3.309 4.105,8.127 7.02,16.804 8.668,25.756 l 0.649,8.749 c 0.794,7.534 0.008,15.153 -2.304,22.369 -0.214,0.841 0.228,1.709 1.032,2.033 M 252.06,475.651 c -0.264,1.944 1.053,3.756 2.99,4.093 2.426,0.222 4.857,0.25 7.285,0.078 0.626,-0.055 1.196,-0.374 1.578,-0.878 0.176,-0.321 0.254,-0.689 0.226,-1.054 -0.574,-4.55 -1.945,-8.957 -4.048,-13.032 -0.652,-1.451 -1.38,-2.869 -2.171,-4.251 -0.283,-0.488 -0.783,-0.808 -1.353,-0.85 -0.35,0.027 -0.675,0.184 -0.917,0.445 -0.868,1.14 -1.483,2.456 -1.806,3.86 -0.844,3.819 -1.432,7.689 -1.784,11.589 m 35.298,-41.332 c 1.155,-0.24 2.311,-0.444 3.468,-0.618 0.024,-1.275 0.052,-2.874 0.084,-4.752 -18.947,1.042 -35.439,13.345 -41.831,31.232 -2.381,4.464 -3.559,9.473 -3.396,14.527 -0.031,0.886 0.011,1.773 0.131,2.653 0.09,0.599 0.374,1.155 0.805,1.58 0.199,0.247 0.502,0.385 0.815,0.381 0.316,0 0.614,-0.15 0.806,-0.399 l 0.224,-0.446 c 0.386,-1.237 0.557,-2.531 0.502,-3.827 -0.123,-6.924 1.948,-13.712 5.921,-19.388 7.499,-11.135 19.239,-18.704 32.471,-20.943 m 6.916,0.119 c 13.147,2.698 24.617,10.671 31.723,22.058 3.775,5.809 5.608,12.667 5.247,19.583 -0.1,1.293 0.024,2.592 0.367,3.841 l 0.207,0.453 c 0.184,0.255 0.477,0.416 0.792,0.43 0.316,0.013 0.62,-0.115 0.83,-0.353 0.447,-0.413 0.747,-0.957 0.858,-1.552 0.149,-0.876 0.225,-1.761 0.225,-2.647 0.337,-5.047 -0.665,-10.095 -2.89,-14.638 -5.767,-18.097 -21.82,-30.965 -40.72,-32.664 -0.035,1.884 -0.06,3.477 -0.082,4.752 1.151,0.214 2.303,0.458 3.443,0.737 m 6.773,91.329 c -3.84,1.393 -7.835,2.226 -11.86,2.504 l -0.064,3.615 c 1.277,-0.244 2.554,-0.478 3.837,-0.702 4.489,-0.604 8.842,-1.977 12.868,-4.057 5.708,-2.598 10.899,-6.194 15.339,-10.618 0.567,-0.533 1.043,-1.157 1.403,-1.849 0.117,-0.198 0.142,-0.433 0.069,-0.646 -0.072,-0.217 -0.231,-0.392 -0.436,-0.482 -1.008,-0.502 -2.197,-0.443 -3.144,0.155 -2.608,2.961 -5.702,5.459 -9.141,7.386 -2.528,2.263 -5.577,3.874 -8.871,4.694 m 53.951,-10.693 c 7.051,-10.563 14.941,-20.559 23.597,-29.89 0.469,-0.5 0.872,-1.054 1.203,-1.646 l 0.205,-0.502 c 0.05,-0.342 -0.074,-0.685 -0.331,-0.915 -0.253,-0.234 -0.61,-0.326 -0.942,-0.248 -1.156,0.271 -2.17,0.968 -2.833,1.955 l -16.39,20.469 c -2.023,2.422 -3.966,4.906 -5.823,7.448 -3.093,-0.594 -6.209,-1.084 -9.339,-1.475 l -25.949,-3.786 c -1.157,-0.269 -2.373,-0.088 -3.403,0.504 -0.297,0.171 -0.494,0.481 -0.52,0.825 -0.03,0.342 0.112,0.677 0.381,0.895 l 0.492,0.227 c 0.648,0.206 1.321,0.336 2.002,0.383 12.697,0.919 25.284,2.846 37.65,5.756 m -13.463,20.739 c -0.385,0.386 -0.556,0.937 -0.46,1.468 0.221,0.623 0.671,1.135 1.265,1.431 4.505,2.023 9.235,3.499 14.087,4.399 3.212,0.527 6.464,0.813 9.719,0.859 0.08,0.007 0.164,0.017 0.246,0.026 0.054,-0.065 0.106,-0.125 0.16,-0.188 2.349,-2.253 4.53,-4.679 6.517,-7.254 2.939,-3.97 5.388,-8.276 7.308,-12.827 0.227,-0.622 0.207,-1.304 -0.056,-1.907 -0.292,-0.457 -0.792,-0.743 -1.336,-0.764 -5.81,0.216 -11.624,-0.416 -17.254,-1.882 -0.851,-0.343 -1.655,-0.785 -2.402,-1.315 -0.3,-0.226 -0.647,-0.383 -1.016,-0.46 -0.334,-0.024 -0.663,0.071 -0.929,0.273 -0.347,0.299 -0.681,0.61 -0.998,0.935 -0.453,-0.023 -0.91,-0.022 -1.365,-0.004 -0.333,0.036 -0.638,0.19 -0.865,0.436 -0.219,0.306 -0.368,0.657 -0.43,1.028 -0.185,0.897 -0.471,1.768 -0.86,2.599 -3.117,4.913 -6.935,9.34 -11.331,13.147 m -7.585,6.723 c -0.12,0.231 -0.102,0.508 0.053,0.716 l 0.757,0.448 c 10.926,3.979 22.403,6.232 34.014,6.675 0.043,0.003 0.09,0.005 0.132,0.008 0.032,-0.031 0.063,-0.066 0.093,-0.095 8.191,-8.248 15.046,-17.724 20.318,-28.084 l 0.247,-0.846 c -0.025,-0.256 -0.2,-0.471 -0.449,-0.558 -0.985,-0.335 -2.079,-0.128 -2.878,0.545 -2.35,2.755 -4.213,5.889 -5.514,9.267 -3.483,6.181 -7.916,11.734 -13.115,16.469 -7.034,0.083 -14.061,-0.951 -20.827,-3.094 -3.253,-1.584 -6.757,-2.603 -10.354,-3.016 -1.045,0.055 -1.986,0.647 -2.477,1.565 m -9.359,20.868 c -4.04,-2.683 -7.911,-5.609 -11.598,-8.76 -0.935,-0.531 -2.121,-0.225 -2.68,0.695 -0.206,0.447 -0.106,0.97 0.241,1.313 10.217,11.274 24.478,18.042 39.675,18.822 9.388,1.166 18.888,0.797 28.139,-1.082 8.045,-4.936 15.244,-11.147 21.313,-18.401 10.582,-10.939 16.392,-25.617 16.173,-40.831 0.02,-0.488 -0.267,-0.937 -0.719,-1.125 -1.036,-0.29 -2.114,0.297 -2.434,1.321 -0.547,4.821 -1.387,9.601 -2.505,14.32 -3.209,8.52 -7.598,16.55 -13.041,23.849 -3.14,4.149 -6.965,7.739 -11.31,10.611 -2.843,2.372 -5.837,4.537 -8.964,6.484 -3.611,0.709 -7.281,1.17 -10.976,1.374 -5.135,0.862 -10.383,0.848 -15.509,-0.04 -8.96,-1.63 -17.647,-4.506 -25.805,-8.55 m 61.047,-78.161 c 0.446,0.746 1.372,1.046 2.168,0.707 0.798,-0.34 1.224,-1.221 0.991,-2.052 -3.028,-5.212 -6.699,-10.02 -10.929,-14.313 -5.671,-6.856 -12.825,-12.331 -20.926,-16.018 -3.59,-3.238 -7.974,-5.468 -12.705,-6.469 -1.264,-0.636 -2.644,-0.998 -4.057,-1.063 l -0.539,0.073 c -0.303,0.111 -0.537,0.354 -0.638,0.661 -0.427,1.287 0.21,2.689 1.463,3.216 8.649,2.846 16.845,6.917 24.341,12.083 l 6.643,5.729 c 5.891,4.766 10.721,10.709 14.188,17.446 m -26.273,-22.417 c -0.102,-0.352 -0.304,-0.669 -0.583,-0.907 -3.621,-2.812 -7.712,-4.958 -12.077,-6.352 -1.49,-0.566 -3.004,-1.051 -4.539,-1.472 -0.547,-0.145 -1.13,-0.015 -1.562,0.356 -0.23,0.269 -0.345,0.609 -0.333,0.962 0.192,1.423 0.686,2.788 1.454,4.006 2.102,3.299 4.421,6.454 6.933,9.457 1.186,1.564 3.402,1.914 5.01,0.781 1.87,-1.558 3.611,-3.261 5.203,-5.098 0.405,-0.479 0.58,-1.109 0.494,-1.733 m -40.064,21.736 c -1.243,-0.238 -2.524,-0.166 -3.733,0.211 -0.346,0.111 -0.61,0.389 -0.705,0.74 -0.094,0.348 -0.004,0.723 0.242,0.992 0.366,0.426 0.874,0.708 1.428,0.796 9.655,1.344 19.315,2.589 28.992,3.742 6.289,-7.445 12.505,-14.946 18.648,-22.512 0.344,-0.444 0.527,-0.995 0.501,-1.558 -0.002,-0.365 -0.193,-0.699 -0.501,-0.89 -0.308,-0.191 -0.691,-0.216 -1.02,-0.06 -1.137,0.548 -2.127,1.368 -2.867,2.39 -5.931,5.47 -11.555,11.247 -16.855,17.309 -8.013,-0.818 -16.067,-1.204 -24.13,-1.16 m 1.161,-18.658 c -2.24,3.999 -3.767,8.357 -4.494,12.885 -0.041,0.363 0.026,0.736 0.189,1.064 0.363,0.515 0.919,0.853 1.546,0.929 2.418,0.257 4.851,0.314 7.282,0.175 1.949,-0.267 3.33,-2.033 3.131,-3.989 -0.213,-3.907 -0.671,-7.795 -1.383,-11.642 -0.267,-1.412 -0.835,-2.75 -1.671,-3.922 -0.228,-0.265 -0.547,-0.435 -0.9,-0.473 -0.566,0.022 -1.082,0.324 -1.381,0.802 -0.837,1.353 -1.614,2.745 -2.319,4.171 m -9.75,25.826 0.951,-8.722 c 1.955,-8.891 5.17,-17.458 9.556,-25.438 0.557,-1.242 0.069,-2.7 -1.124,-3.352 -0.284,-0.154 -0.62,-0.171 -0.915,-0.047 l -0.445,0.313 c -0.991,1.012 -1.753,2.22 -2.241,3.548 -2.778,3.957 -4.464,8.579 -4.878,13.397 -3.412,8.219 -4.908,17.104 -4.379,25.988 -0.161,6.022 0.436,12.04 1.772,17.919 0.399,0.766 1.307,1.122 2.128,0.827 0.812,-0.297 1.285,-1.15 1.101,-1.997 -2.061,-7.293 -2.578,-14.935 -1.526,-22.436 m 33.678,-77.038 c 0.646,-0.983 1.319,-1.945 2.018,-2.888 -0.888,-0.918 -1.992,-2.064 -3.304,-3.42 -12.66,14.133 -15.622,34.494 -7.493,51.661 1.472,4.841 4.182,9.216 7.87,12.675 0.605,0.648 1.263,1.244 1.967,1.783 0.487,0.361 1.081,0.552 1.689,0.55 0.317,0.032 0.627,-0.083 0.845,-0.308 0.224,-0.225 0.327,-0.541 0.287,-0.853 l -0.158,-0.473 c -0.598,-1.15 -1.398,-2.184 -2.348,-3.062 -4.984,-4.807 -8.319,-11.074 -9.527,-17.896 -2.569,-13.175 0.379,-26.83 8.154,-37.769 m -17.788,-92.273 c -1.351,1.304 -2.712,2.618 -4.081,3.94 2.643,1.785 5.39,3.417 8.217,4.896 3.176,1.953 6.442,3.741 9.787,5.359 -1.344,3.464 -2.511,6.999 -3.499,10.592 -1.059,3.013 -1.956,6.077 -2.673,9.186 2.039,0.034 4.066,0.068 6.068,0.105 0.32,-1.75 0.693,-3.493 1.136,-5.227 0.707,-5.898 2.259,-11.565 4.551,-16.858 -5.284,-2.308 -10.286,-5.391 -14.829,-9.217 -1.503,-0.97 -2.966,-1.99 -4.392,-3.052 z m -33.686,-8.928 c 3.13,-0.61 6.227,-1.398 9.272,-2.352 3.625,-0.865 7.198,-1.908 10.71,-3.127 1.498,3.398 3.169,6.722 5.015,9.96 1.382,2.881 2.916,5.68 4.606,8.387 l 4.368,-4.218 c -1.016,-1.462 -1.982,-2.962 -2.897,-4.497 -3.671,-4.673 -6.576,-9.777 -8.7,-15.139 -5.37,2.105 -11.086,3.461 -17.005,3.967 -1.747,0.375 -3.507,0.693 -5.262,0.951 z m -30.034,11.832 c 1.782,-2.644 3.412,-5.39 4.894,-8.221 1.955,-3.172 3.741,-6.439 5.359,-9.782 3.465,1.34 6.999,2.51 10.593,3.498 3.014,1.059 6.073,1.953 9.185,2.673 0.037,-2.037 0.067,-4.069 0.106,-6.071 -1.751,-0.318 -3.497,-0.693 -5.228,-1.13 -5.898,-0.71 -11.562,-2.266 -16.856,-4.556 -2.31,5.287 -5.393,10.288 -9.22,14.829 -0.972,1.501 -1.989,2.968 -3.051,4.395 z m -19.89,24.236 c 0.378,1.748 0.694,3.506 0.951,5.264 l 6.069,0.105 c -0.613,-3.13 -1.396,-6.226 -2.353,-9.272 -0.864,-3.627 -1.908,-7.199 -3.127,-10.71 3.396,-1.498 6.723,-3.173 9.961,-5.015 2.881,-1.383 5.68,-2.918 8.384,-4.608 -1.332,-1.382 -2.659,-2.754 -3.974,-4.115 l -0.242,-0.25 c -1.461,1.014 -2.962,1.982 -4.494,2.896 -4.676,3.672 -9.78,6.577 -15.141,8.7 2.105,5.369 3.461,11.086 3.966,17.005 m 15.577,38.566 c 1.086,-1.045 2.179,-2.102 3.275,-3.161 -2.644,-1.784 -5.39,-3.417 -8.219,-4.897 -3.174,-1.953 -6.441,-3.74 -9.787,-5.359 1.346,-3.463 2.513,-6.999 3.501,-10.592 1.059,-3.011 1.953,-6.076 2.673,-9.185 -2.039,-0.035 -4.066,-0.068 -6.069,-0.105 -0.32,1.75 -0.693,3.493 -1.135,5.227 -0.707,5.898 -2.261,11.565 -4.553,16.858 5.286,2.308 10.287,5.39 14.829,9.217 1.504,0.973 2.967,1.99 4.395,3.052 z m 32.88,9.707 c -3.131,0.612 -6.226,1.396 -9.272,2.353 -3.625,0.864 -7.2,1.907 -10.711,3.127 -1.498,-3.396 -3.169,-6.724 -5.014,-9.961 -1.383,-2.881 -2.918,-5.683 -4.605,-8.387 l -4.368,4.219 c 1.014,1.46 1.981,2.962 2.896,4.493 3.669,4.677 6.576,9.781 8.699,15.142 5.37,-2.105 11.087,-3.461 17.005,-3.966 1.748,-0.378 3.507,-0.694 5.263,-0.952 z M 321.481,386 c -1.781,2.644 -3.411,5.39 -4.893,8.218 -1.955,3.175 -3.739,6.442 -5.359,9.788 -3.463,-1.346 -6.999,-2.513 -10.591,-3.502 -3.015,-1.059 -6.075,-1.952 -9.186,-2.672 -0.038,2.037 -0.071,4.066 -0.106,6.068 1.751,0.321 3.496,0.694 5.228,1.136 5.898,0.707 11.562,2.26 16.855,4.552 2.31,-5.286 5.394,-10.287 9.219,-14.829 0.973,-1.503 1.991,-2.967 3.052,-4.394 -1.392,-1.44 -2.804,-2.902 -4.219,-4.365 m 15.224,-20.333 c 0.863,3.627 1.908,7.199 3.127,10.71 -3.395,1.498 -6.722,3.173 -9.961,5.015 -2.881,1.383 -5.682,2.918 -8.387,4.605 0.918,0.951 1.827,1.892 2.737,2.833 l 1.481,1.535 c 1.463,-1.014 2.963,-1.982 4.495,-2.896 4.676,-3.672 9.78,-6.576 15.141,-8.7 -2.105,-5.37 -3.461,-11.086 -3.965,-17.005 -0.379,-1.748 -0.694,-3.506 -0.952,-5.264 l -6.068,-0.105 c 0.612,3.129 1.394,6.226 2.352,9.272 m -3.16,2.668 c -0.147,-0.271 -0.399,-0.476 -0.693,-0.568 -0.099,-0.026 -0.209,0 -0.289,0.061 -0.126,0.102 -0.226,0.236 -0.29,0.386 -0.394,1.451 -0.824,2.886 -1.305,4.307 -0.712,1.32 -1.467,2.619 -2.259,3.896 -0.067,0.147 -0.099,0.31 -0.083,0.47 0.011,0.106 0.062,0.2 0.149,0.253 0.272,0.155 0.592,0.199 0.892,0.125 0.824,-0.183 1.628,-0.465 2.383,-0.841 1.322,-0.578 2.652,-1.148 3.988,-1.7 -0.51,-1.353 -1,-2.712 -1.478,-4.076 -0.241,-0.807 -0.583,-1.587 -1.015,-2.313 m -4.137,-32.146 c 0.747,1.303 1.456,2.625 2.119,3.968 0.432,1.438 0.817,2.889 1.16,4.35 0.054,0.155 0.149,0.292 0.275,0.397 0.08,0.066 0.184,0.092 0.285,0.068 0.298,-0.081 0.557,-0.273 0.717,-0.541 0.454,-0.712 0.822,-1.479 1.09,-2.279 0.526,-1.343 1.063,-2.686 1.617,-4.019 -1.313,-0.599 -2.623,-1.214 -3.924,-1.84 -0.741,-0.398 -1.535,-0.711 -2.355,-0.919 -0.294,-0.087 -0.618,-0.053 -0.894,0.092 -0.09,0.052 -0.146,0.144 -0.157,0.244 -0.022,0.164 0.002,0.329 0.067,0.479 m -26.54,60.537 c 0.084,0.299 0.279,0.557 0.545,0.717 0.712,0.455 1.48,0.822 2.278,1.091 1.346,0.525 2.687,1.062 4.021,1.616 0.601,-1.312 1.212,-2.623 1.838,-3.924 0.402,-0.741 0.713,-1.535 0.92,-2.355 0.087,-0.294 0.055,-0.618 -0.092,-0.893 -0.053,-0.09 -0.143,-0.148 -0.247,-0.158 -0.162,-0.022 -0.325,0.002 -0.476,0.068 -1.301,0.746 -2.625,1.456 -3.971,2.118 -1.436,0.432 -2.886,0.818 -4.347,1.16 -0.155,0.055 -0.29,0.15 -0.395,0.275 -0.068,0.079 -0.094,0.184 -0.074,0.285 m -32.29,-3.58 c 0.184,0.825 0.468,1.629 0.841,2.383 0.578,1.323 1.145,2.653 1.698,3.988 1.356,-0.511 2.715,-0.999 4.079,-1.477 0.807,-0.242 1.588,-0.584 2.313,-1.015 0.268,-0.148 0.475,-0.4 0.567,-0.694 0.027,-0.1 0,-0.21 -0.063,-0.289 -0.099,-0.126 -0.231,-0.226 -0.383,-0.289 -1.451,-0.394 -2.886,-0.825 -4.306,-1.306 -1.324,-0.713 -2.622,-1.467 -3.894,-2.258 -0.148,-0.068 -0.313,-0.1 -0.473,-0.084 -0.106,0.01 -0.2,0.063 -0.253,0.149 -0.152,0.271 -0.2,0.592 -0.126,0.892 m -20.177,-26.254 c -0.455,0.712 -0.822,1.479 -1.091,2.278 -0.525,1.344 -1.062,2.686 -1.616,4.019 1.311,0.6 2.623,1.214 3.924,1.84 0.741,0.399 1.535,0.712 2.355,0.92 0.294,0.087 0.617,0.052 0.893,-0.092 0.09,-0.052 0.147,-0.144 0.157,-0.244 0.022,-0.163 -0.002,-0.329 -0.067,-0.479 -0.747,-1.303 -1.456,-2.626 -2.119,-3.968 -0.431,-1.438 -0.817,-2.889 -1.159,-4.35 -0.055,-0.155 -0.15,-0.292 -0.276,-0.397 -0.078,-0.065 -0.184,-0.092 -0.283,-0.068 -0.3,0.081 -0.558,0.273 -0.718,0.541 m 0.418,-23.904 c 0.147,0.27 0.399,0.476 0.694,0.568 0.099,0.026 0.21,0 0.289,-0.06 0.126,-0.103 0.225,-0.238 0.289,-0.387 0.394,-1.45 0.825,-2.885 1.306,-4.308 0.712,-1.319 1.466,-2.617 2.257,-3.895 0.069,-0.147 0.1,-0.31 0.085,-0.473 -0.01,-0.102 -0.063,-0.197 -0.15,-0.249 -0.271,-0.156 -0.591,-0.201 -0.891,-0.127 -0.825,0.184 -1.629,0.465 -2.384,0.841 -1.322,0.579 -2.652,1.148 -3.987,1.701 0.51,1.354 0.999,2.712 1.477,4.076 0.242,0.807 0.583,1.588 1.015,2.313 m 30.677,-28.39 c -0.084,-0.3 -0.279,-0.558 -0.544,-0.718 -0.712,-0.455 -1.48,-0.822 -2.279,-1.09 -1.346,-0.526 -2.686,-1.065 -4.021,-1.617 -0.6,1.314 -1.212,2.623 -1.838,3.924 -0.401,0.744 -0.711,1.535 -0.919,2.355 -0.087,0.294 -0.055,0.618 0.092,0.89 0.052,0.091 0.142,0.15 0.247,0.164 0.16,0.016 0.326,-0.006 0.476,-0.071 1.301,-0.747 2.625,-1.456 3.97,-2.122 1.435,-0.428 2.886,-0.814 4.348,-1.156 0.155,-0.055 0.289,-0.149 0.394,-0.276 0.068,-0.078 0.095,-0.183 0.074,-0.283 m 32.291,3.579 c -0.183,-0.823 -0.469,-1.626 -0.841,-2.384 -0.579,-1.322 -1.146,-2.651 -1.698,-3.984 -1.356,0.504 -2.715,0.996 -4.079,1.474 -0.808,0.242 -1.588,0.584 -2.313,1.015 -0.269,0.147 -0.476,0.4 -0.568,0.696 -0.027,0.098 0,0.209 0.063,0.287 0.1,0.126 0.231,0.229 0.383,0.289 1.452,0.392 2.886,0.826 4.305,1.306 1.325,0.713 2.624,1.466 3.896,2.258 0.147,0.071 0.313,0.097 0.473,0.084 0.105,-0.008 0.199,-0.066 0.252,-0.15 0.153,-0.271 0.199,-0.591 0.127,-0.891 m 5.96,10.86 c -0.873,-0.812 -1.761,-1.611 -2.659,-2.391 -2.81,-2.71 -5.914,-5.06 -9.242,-7.021 -3.7,-1.093 -7.537,-1.758 -11.435,-1.968 -1.188,-0.123 -2.376,-0.231 -3.564,-0.313 0,0.015 0,0.029 -0.002,0.045 l -0.048,2.744 c 0.016,-0.925 0.032,-1.856 0.048,-2.786 -1.189,0.039 -2.382,0.103 -3.57,0.187 -3.903,0.072 -7.758,0.604 -11.495,1.571 -3.394,1.843 -6.576,4.084 -9.478,6.694 -0.93,0.749 -1.845,1.514 -2.744,2.3 -0.815,0.87 -1.614,1.758 -2.392,2.657 -2.709,2.809 -5.059,5.914 -7.02,9.241 -1.096,3.701 -1.758,7.538 -1.968,11.436 -0.126,1.188 -0.232,2.376 -0.313,3.563 h 0.003 l 3.921,0.071 c -1.301,-0.024 -2.61,-0.044 -3.921,-0.068 0.036,1.191 0.102,2.378 0.187,3.57 0.07,3.902 0.604,7.758 1.568,11.495 1.845,3.394 4.09,6.576 6.697,9.481 0.749,0.927 1.514,1.842 2.297,2.741 0.873,0.812 1.761,1.61 2.66,2.392 2.809,2.709 5.914,5.059 9.241,7.019 3.701,1.096 7.538,1.759 11.435,1.969 1.188,0.126 2.376,0.231 3.565,0.313 0,-0.027 0.003,-0.052 0.003,-0.082 l 0.046,-2.741 c -0.015,0.938 -0.032,1.879 -0.046,2.82 1.187,-0.037 2.38,-0.102 3.568,-0.187 3.902,-0.07 7.759,-0.604 11.497,-1.568 3.392,-1.846 6.575,-4.09 9.477,-6.698 0.93,-0.748 1.845,-1.513 2.74,-2.296 -0.489,-0.508 -0.977,-1.012 -1.464,-1.517 l 1.468,1.514 c 0.813,-0.87 1.614,-1.758 2.392,-2.657 2.708,-2.81 5.059,-5.914 7.018,-9.241 1.096,-3.701 1.761,-7.537 1.97,-11.436 0.126,-1.187 0.231,-2.375 0.313,-3.563 h -0.003 l -3.921,-0.072 c 1.3,0.024 2.61,0.045 3.921,0.069 -0.038,-1.191 -0.102,-2.382 -0.185,-3.569 -0.072,-3.903 -0.606,-7.759 -1.571,-11.496 -1.845,-3.393 -4.09,-6.576 -6.697,-9.481 -0.749,-0.927 -1.514,-1.842 -2.297,-2.741 -0.965,0.933 -1.928,1.861 -2.886,2.786 z m 29.614,80.85 c 11.209,-7.39 24.953,-9.861 38.033,-6.835 6.775,1.437 12.922,4.99 17.556,10.137 0.846,0.983 1.853,1.819 2.978,2.455 l 0.468,0.173 c 0.309,0.053 0.631,-0.042 0.863,-0.253 0.233,-0.215 0.356,-0.522 0.335,-0.84 0.024,-0.604 -0.147,-1.204 -0.491,-1.701 -0.513,-0.726 -1.085,-1.406 -1.711,-2.032 -3.33,-3.805 -7.607,-6.67 -12.396,-8.305 -16.875,-8.72 -37.326,-6.465 -51.892,5.698 l 3.304,3.417 c 0.965,-0.665 1.95,-1.303 2.953,-1.914 m 32.397,0.973 c 0.837,4.76 2.912,9.22 6.024,12.921 3.402,8.222 8.626,15.564 15.283,21.471 4.143,4.372 8.819,8.208 13.923,11.417 0.825,0.261 1.718,-0.131 2.088,-0.919 0.363,-0.784 0.095,-1.722 -0.632,-2.191 -6.614,-3.7 -12.385,-8.736 -16.947,-14.784 l -5.493,-6.842 c -4.904,-7.669 -8.69,-16 -11.229,-24.745 -0.485,-1.269 -1.86,-1.958 -3.166,-1.574 -0.31,0.093 -0.56,0.318 -0.681,0.615 l -0.095,0.533 c 0.016,1.418 0.332,2.81 0.925,4.098 m 67.562,13.107 c -2.481,-12.455 -3.971,-25.102 -4.446,-37.823 -0.023,-0.683 -0.13,-1.362 -0.316,-2.017 l -0.211,-0.498 c -0.204,-0.276 -0.535,-0.432 -0.877,-0.41 -0.347,0.013 -0.662,0.199 -0.846,0.491 -0.626,1.01 -0.849,2.218 -0.62,3.386 l 2.886,26.064 c 0.281,3.141 0.664,6.271 1.148,9.38 -2.607,1.771 -5.157,3.624 -7.645,5.56 l -21.027,15.671 c -1.007,0.628 -1.74,1.618 -2.05,2.765 -0.087,0.331 -0.007,0.69 0.213,0.95 0.223,0.265 0.562,0.401 0.907,0.363 l 0.504,-0.185 c 0.605,-0.312 1.172,-0.697 1.688,-1.145 9.63,-8.329 19.89,-15.87 30.692,-22.552 m 0.574,-42.762 c 0.843,0.213 1.71,-0.228 2.034,-1.032 0.322,-0.807 0.003,-1.727 -0.752,-2.153 -5.827,-1.543 -11.823,-2.347 -17.846,-2.394 -8.859,-0.836 -17.794,0.352 -26.124,3.475 -4.829,0.247 -9.507,1.774 -13.56,4.407 -1.343,0.444 -2.579,1.164 -3.624,2.121 l -0.326,0.431 c -0.137,0.292 -0.13,0.628 0.016,0.914 0.609,1.215 2.049,1.756 3.31,1.244 8.128,-4.106 16.801,-7.023 25.751,-8.668 l 8.753,-0.649 c 7.534,-0.791 15.154,-0.008 22.368,2.304 m -33.553,4.303 c -0.056,-0.629 -0.37,-1.195 -0.876,-1.575 -0.322,-0.179 -0.688,-0.257 -1.055,-0.228 -4.551,0.573 -8.956,1.945 -13.031,4.047 -1.452,0.652 -2.868,1.38 -4.251,2.171 -0.488,0.284 -0.809,0.784 -0.851,1.354 0.027,0.349 0.184,0.675 0.446,0.917 1.139,0.868 2.458,1.482 3.859,1.806 3.819,0.843 7.69,1.432 11.588,1.784 1.947,0.263 3.759,-1.054 4.095,-2.991 0.222,-2.425 0.249,-4.856 0.076,-7.285 m -12.974,30.522 c -2.911,-2.613 -5.986,-5.039 -9.209,-7.257 -1.188,-0.807 -2.538,-1.351 -3.956,-1.59 -0.349,-0.027 -0.695,0.082 -0.97,0.299 -0.387,0.421 -0.535,0.997 -0.409,1.546 0.363,1.548 0.799,3.083 1.308,4.589 1.245,4.413 3.25,8.573 5.936,12.291 0.226,0.287 0.536,0.501 0.883,0.615 0.622,0.112 1.256,-0.044 1.75,-0.431 1.892,-1.531 3.656,-3.212 5.275,-5.029 1.19,-1.566 0.918,-3.79 -0.608,-5.033 m -0.864,11.604 c -1.046,0.709 -1.9,1.667 -2.489,2.784 -0.166,0.325 -0.158,0.708 0.023,1.024 0.182,0.313 0.51,0.515 0.876,0.531 0.557,0.043 1.117,-0.117 1.571,-0.447 7.779,-5.878 15.49,-11.827 23.148,-17.854 -0.818,-9.714 -1.727,-19.409 -2.734,-29.105 -0.069,-0.56 -0.331,-1.075 -0.747,-1.456 -0.259,-0.257 -0.631,-0.358 -0.981,-0.274 -0.356,0.082 -0.643,0.335 -0.768,0.679 -0.416,1.193 -0.535,2.467 -0.337,3.719 -0.326,8.06 -0.215,16.119 0.321,24.156 -6.242,5.088 -12.21,10.508 -17.883,16.243 m -31.663,-67.15 c -0.241,-1.151 -0.446,-2.308 -0.62,-3.469 l -4.751,-0.081 c 1.041,18.946 13.345,35.439 31.234,41.831 4.463,2.381 9.472,3.559 14.526,3.396 0.885,0.031 1.771,-0.011 2.654,-0.132 0.597,-0.09 1.152,-0.373 1.58,-0.804 0.247,-0.2 0.384,-0.502 0.381,-0.815 -0.002,-0.316 -0.152,-0.615 -0.403,-0.806 l -0.443,-0.224 c -1.238,-0.386 -2.534,-0.557 -3.827,-0.502 -6.925,0.123 -13.714,-1.948 -19.389,-5.921 -11.133,-7.499 -18.702,-19.239 -20.942,-32.473 m 22.177,-38.637 c 5.809,-3.772 12.667,-5.612 19.582,-5.247 1.293,0.098 2.593,-0.023 3.841,-0.371 l 0.456,-0.204 c 0.254,-0.184 0.415,-0.479 0.428,-0.792 0.014,-0.315 -0.115,-0.622 -0.355,-0.833 -0.41,-0.443 -0.956,-0.746 -1.551,-0.857 -0.875,-0.147 -1.761,-0.223 -2.646,-0.223 -5.046,-0.336 -10.095,0.665 -14.636,2.891 -18.097,5.767 -30.967,21.82 -32.667,40.72 1.883,0.031 3.478,0.06 4.751,0.081 0.217,-1.151 0.461,-2.3 0.739,-3.443 2.699,-13.146 10.67,-24.616 22.058,-31.722 m 24.462,1.011 c -0.268,-1.947 -2.034,-3.33 -3.99,-3.13 -3.908,0.212 -7.796,0.67 -11.642,1.383 -1.412,0.267 -2.749,0.835 -3.922,1.668 -0.266,0.232 -0.434,0.549 -0.474,0.902 0.025,0.568 0.324,1.082 0.803,1.382 1.353,0.836 2.746,1.614 4.174,2.319 3.996,2.239 8.353,3.765 12.883,4.493 0.362,0.043 0.733,-0.025 1.061,-0.188 0.515,-0.364 0.856,-0.92 0.931,-1.543 0.255,-2.421 0.315,-4.854 0.176,-7.286 m -16.4,-33.888 c -0.478,-0.403 -1.106,-0.578 -1.732,-0.491 -0.353,0.101 -0.667,0.304 -0.908,0.583 -2.811,3.624 -4.959,7.71 -6.352,12.076 -0.565,1.488 -1.052,3.007 -1.472,4.54 -0.143,0.546 -0.015,1.129 0.358,1.56 0.268,0.229 0.608,0.347 0.962,0.335 1.422,-0.193 2.789,-0.687 4.005,-1.451 3.299,-2.108 6.453,-4.424 9.456,-6.934 1.565,-1.188 1.915,-3.404 0.782,-5.009 -1.556,-1.873 -3.26,-3.615 -5.099,-5.209 m 1.467,-4.28 c 0.546,1.139 1.365,2.126 2.389,2.871 5.468,5.926 11.246,11.551 17.309,16.852 -0.817,8.011 -1.207,16.067 -1.162,24.133 -0.238,1.24 -0.165,2.523 0.21,3.726 0.112,0.347 0.39,0.613 0.742,0.707 0.35,0.095 0.722,0.006 0.99,-0.241 0.426,-0.366 0.71,-0.872 0.797,-1.427 1.343,-9.654 2.592,-19.315 3.742,-28.996 -7.446,-6.286 -14.945,-12.5 -22.514,-18.644 -0.441,-0.344 -0.991,-0.525 -1.555,-0.502 -0.365,0.003 -0.699,0.194 -0.889,0.502 -0.194,0.308 -0.217,0.688 -0.059,1.019 m -11.855,43.974 0.314,0.444 c 1.011,0.991 2.218,1.756 3.548,2.245 3.956,2.775 8.578,4.46 13.396,4.876 8.221,3.408 17.105,4.906 25.988,4.378 6.024,0.16 12.043,-0.434 17.919,-1.774 0.768,-0.397 1.123,-1.309 0.827,-2.127 -0.295,-0.811 -1.15,-1.285 -1.995,-1.101 -7.295,2.061 -14.934,2.581 -22.438,1.527 l -8.722,-0.951 c -8.891,-1.956 -17.458,-5.17 -25.438,-9.559 -1.24,-0.552 -2.699,-0.063 -3.351,1.127 -0.155,0.285 -0.171,0.621 -0.048,0.915 m -258.28,-45.737 c -0.503,-0.767 -0.914,-1.585 -1.23,-2.445 -1.267,-5.678 -1.698,-11.51 -1.283,-17.308 0,-0.547 -0.268,-1.057 -0.715,-1.364 -0.594,-0.285 -1.274,-0.327 -1.905,-0.12 -4.613,1.759 -9.002,4.056 -13.073,6.85 -2.642,1.9 -5.143,3.998 -7.475,6.269 -0.065,0.049 -0.129,0.102 -0.192,0.155 0.005,0.081 0.01,0.163 0.016,0.244 -0.069,3.254 0.105,6.514 0.52,9.74 0.731,4.884 2.043,9.661 3.908,14.235 0.277,0.602 0.771,1.069 1.386,1.312 0.528,0.115 1.085,-0.034 1.485,-0.406 3.955,-4.262 8.512,-7.926 13.533,-10.869 0.84,-0.361 1.723,-0.616 2.628,-0.771 0.367,-0.053 0.725,-0.183 1.041,-0.391 0.252,-0.219 0.418,-0.521 0.467,-0.853 0.032,-0.454 0.047,-0.909 0.04,-1.363 0.338,-0.308 0.66,-0.631 0.97,-0.965 0.21,-0.26 0.315,-0.583 0.305,-0.92 -0.064,-0.37 -0.211,-0.723 -0.426,-1.03 m 4.355,-53.25 c 1.038,-0.287 1.658,-1.344 1.403,-2.391 -0.17,-0.458 -0.612,-0.758 -1.101,-0.756 -15.194,-0.747 -30.067,4.552 -41.363,14.75 -7.465,5.809 -13.92,12.786 -19.129,20.658 -2.202,9.178 -2.899,18.661 -2.061,28.083 0.253,15.215 6.524,29.705 17.434,40.31 0.334,0.357 0.854,0.472 1.305,0.283 0.939,-0.526 1.284,-1.703 0.787,-2.657 -3.02,-3.792 -5.811,-7.764 -8.355,-11.893 -3.753,-8.294 -6.329,-17.076 -7.644,-26.085 -0.709,-5.157 -0.546,-10.4 0.497,-15.5 0.332,-3.689 0.92,-7.337 1.753,-10.925 2.056,-3.054 4.321,-5.976 6.792,-8.733 3.022,-4.243 6.738,-7.938 10.993,-10.936 7.489,-5.184 15.663,-9.291 24.294,-12.203 4.752,-0.956 9.559,-1.628 14.395,-2.005 m -36.523,42.679 c 0.04,11.625 1.896,23.173 5.494,34.228 l 0.42,0.772 c 0.202,0.164 0.475,0.19 0.713,0.077 0.932,-0.46 1.56,-1.379 1.65,-2.421 -0.29,-3.608 -1.183,-7.143 -2.655,-10.452 -1.908,-6.831 -2.697,-13.896 -2.37,-20.921 4.915,-5.031 10.615,-9.273 16.915,-12.537 3.42,-1.18 6.618,-2.939 9.451,-5.188 0.702,-0.778 0.949,-1.861 0.647,-2.856 -0.079,-0.254 -0.29,-0.432 -0.542,-0.471 l -0.854,0.217 c -10.539,4.913 -20.245,11.436 -28.777,19.332 -0.028,0.032 -0.063,0.059 -0.094,0.092 0,0.041 0,0.086 0.002,0.128 m 29.928,148.505 c -0.296,-0.345 -0.609,-0.677 -0.935,-0.996 0.023,-0.452 0.02,-0.91 0.005,-1.365 -0.037,-0.333 -0.189,-0.638 -0.436,-0.864 -0.305,-0.221 -0.658,-0.368 -1.028,-0.431 -0.896,-0.184 -1.769,-0.471 -2.6,-0.86 -4.912,-3.117 -9.341,-6.936 -13.146,-11.33 -0.386,-0.387 -0.935,-0.557 -1.469,-0.46 -0.623,0.221 -1.133,0.67 -1.433,1.264 -2.021,4.505 -3.495,9.236 -4.397,14.087 -0.528,3.214 -0.812,6.464 -0.859,9.719 -0.005,0.081 -0.016,0.164 -0.027,0.244 0.067,0.055 0.127,0.109 0.19,0.163 2.253,2.35 4.679,4.531 7.254,6.519 3.969,2.936 8.273,5.387 12.826,7.302 0.623,0.231 1.303,0.211 1.907,-0.052 0.458,-0.291 0.743,-0.792 0.763,-1.338 -0.215,-5.811 0.418,-11.623 1.882,-17.254 0.344,-0.851 0.789,-1.653 1.316,-2.401 0.226,-0.301 0.382,-0.646 0.461,-1.016 0.026,-0.332 -0.071,-0.662 -0.274,-0.931 M 105.308,397.43 c -0.231,-0.121 -0.51,-0.103 -0.715,0.052 l -0.449,0.758 c -3.98,10.925 -6.232,22.401 -6.676,34.015 -0.003,0.044 -0.003,0.087 -0.008,0.132 0.032,0.03 0.063,0.06 0.095,0.091 8.247,8.189 17.725,15.045 28.085,20.318 l 0.847,0.249 c 0.255,-0.029 0.47,-0.204 0.557,-0.449 0.336,-0.986 0.125,-2.079 -0.547,-2.879 -2.755,-2.348 -5.887,-4.214 -9.268,-5.516 -6.178,-3.481 -11.731,-7.915 -16.468,-13.115 -0.084,-7.033 0.951,-14.063 3.096,-20.825 1.582,-3.254 2.602,-6.757 3.018,-10.355 -0.059,-1.044 -0.649,-1.985 -1.567,-2.476 M 75.89,413.875 c 1.63,-8.959 4.507,-17.646 8.55,-25.805 2.683,-4.039 5.608,-7.911 8.76,-11.598 0.53,-0.936 0.223,-2.121 -0.697,-2.683 -0.446,-0.203 -0.967,-0.106 -1.311,0.244 -11.273,10.216 -18.044,24.479 -18.821,39.676 -1.167,9.387 -0.799,18.887 1.083,28.137 4.933,8.047 11.144,15.245 18.398,21.313 10.939,10.581 25.619,16.393 40.832,16.175 0.489,0.019 0.936,-0.266 1.125,-0.719 0.289,-1.037 -0.297,-2.115 -1.322,-2.436 -4.821,-0.547 -9.601,-1.382 -14.32,-2.505 -8.52,-3.209 -16.549,-7.596 -23.851,-13.037 -4.147,-3.142 -7.737,-6.968 -10.607,-11.313 -2.373,-2.843 -4.536,-5.838 -6.486,-8.963 -0.708,-3.614 -1.167,-7.282 -1.372,-10.977 -0.863,-5.137 -0.85,-10.382 0.039,-15.509 m 376.064,14.521 c 0.501,0.766 0.915,1.584 1.227,2.445 1.272,5.679 1.704,11.509 1.283,17.31 0.003,0.544 0.271,1.054 0.717,1.363 0.597,0.284 1.275,0.327 1.906,0.117 4.615,-1.755 9.001,-4.056 13.072,-6.851 2.642,-1.898 5.144,-3.995 7.475,-6.264 0.066,-0.051 0.13,-0.104 0.193,-0.155 -0.006,-0.083 -0.012,-0.165 -0.016,-0.249 0.068,-3.253 -0.106,-6.511 -0.521,-9.738 -0.733,-4.884 -2.042,-9.658 -3.907,-14.234 -0.278,-0.602 -0.773,-1.069 -1.386,-1.311 -0.528,-0.116 -1.085,0.036 -1.484,0.405 -3.957,4.263 -8.514,7.926 -13.534,10.87 -0.841,0.359 -1.724,0.613 -2.628,0.77 -0.371,0.051 -0.726,0.184 -1.04,0.39 -0.253,0.218 -0.418,0.522 -0.466,0.854 -0.034,0.453 -0.05,0.908 -0.042,1.363 -0.337,0.306 -0.659,0.63 -0.967,0.963 -0.214,0.262 -0.318,0.586 -0.309,0.921 0.063,0.371 0.209,0.724 0.427,1.031 m -4.355,53.252 c -1.036,0.286 -1.659,1.342 -1.404,2.39 0.171,0.46 0.61,0.759 1.102,0.756 15.193,0.747 30.066,-4.553 41.363,-14.748 7.461,-5.814 13.919,-12.791 19.129,-20.661 2.202,-9.18 2.899,-18.662 2.057,-28.082 -0.249,-15.216 -6.521,-29.708 -17.431,-40.31 -0.334,-0.358 -0.852,-0.473 -1.306,-0.285 -0.938,0.527 -1.282,1.704 -0.785,2.658 3.02,3.793 5.811,7.761 8.353,11.893 3.755,8.295 6.331,17.075 7.644,26.085 0.71,5.156 0.548,10.4 -0.495,15.502 -0.332,3.687 -0.921,7.336 -1.751,10.923 -2.057,3.056 -4.324,5.975 -6.793,8.733 -3.023,4.242 -6.74,7.94 -10.995,10.937 -7.488,5.183 -15.664,9.292 -24.293,12.201 -4.752,0.961 -9.56,1.628 -14.395,2.008 m 36.522,-42.681 c -0.042,-11.626 -1.892,-23.171 -5.494,-34.228 l -0.417,-0.776 c -0.205,-0.157 -0.478,-0.188 -0.715,-0.073 -0.932,0.458 -1.56,1.377 -1.65,2.423 0.289,3.606 1.182,7.139 2.654,10.45 1.908,6.831 2.696,13.894 2.37,20.92 -4.915,5.031 -10.617,9.271 -16.912,12.536 -3.422,1.183 -6.618,2.939 -9.456,5.19 -0.699,0.777 -0.947,1.862 -0.645,2.86 0.08,0.248 0.29,0.431 0.541,0.467 l 0.855,-0.219 c 10.539,-4.911 20.249,-11.434 28.774,-19.332 0.032,-0.029 0.063,-0.059 0.099,-0.09 0,-0.041 -0.004,-0.086 -0.004,-0.128 m 25.936,-120.082 c -3.896,8.402 -9.204,16.076 -15.695,22.681 -0.669,0.752 -0.947,1.774 -0.749,2.762 1.247,4.886 2.101,9.86 2.564,14.874 l -2.683,-0.045 -4.016,-0.068 v -0.003 l 4.016,0.068 c -1.102,-11.227 -4.64,-22.087 -10.371,-31.825 -0.981,-2.037 -2.06,-4.029 -3.231,-5.963 -5.159,-8.682 -11.934,-16.288 -19.956,-22.42 -1.293,-1.056 -2.807,-1.81 -4.43,-2.208 -0.481,-0.042 -0.953,0.116 -1.305,0.437 -0.357,0.32 -0.562,0.775 -0.57,1.254 -0.121,1.69 0.788,3.29 2.307,4.052 7.143,4.324 13.071,10.397 17.223,17.644 4.805,5.614 8.587,12.021 11.181,18.945 3.175,6.294 4.892,13.125 5.136,20.016 l -21.072,-0.365 v 0.003 l -3.613,-0.063 v -0.003 l -67.653,-1.175 c -0.003,0 -0.006,0.002 -0.006,0.002 l -8.132,-0.141 8.087,0.139 -7.122,-0.126 7.17,0.126 c -6.479,-3.075 -12.535,-7.039 -17.969,-11.801 -0.27,-0.258 -0.632,-0.405 -1.005,-0.399 -0.39,0.059 -0.731,0.289 -0.947,0.619 -0.209,0.329 -0.273,0.736 -0.167,1.115 0.157,0.412 0.378,0.789 0.657,1.133 3.479,3.446 7.264,6.518 11.296,9.191 l -5.756,-0.1 c -1.109,-0.741 -2.208,-1.501 -3.288,-2.284 -1.049,-0.894 -2.132,-1.745 -3.239,-2.557 -0.303,-0.229 -0.658,-0.376 -1.037,-0.423 -0.116,0 -0.226,0.036 -0.321,0.102 -0.136,0.097 -0.252,0.221 -0.336,0.363 -0.585,1.519 -1.076,3.067 -1.479,4.631 0.35,1.579 0.79,3.143 1.317,4.681 0.077,0.147 0.188,0.27 0.325,0.373 0.091,0.068 0.2,0.113 0.318,0.116 0.376,-0.037 0.738,-0.171 1.049,-0.389 1.135,-0.773 2.247,-1.585 3.326,-2.442 1.107,-0.746 2.229,-1.47 3.365,-2.168 l 5.756,0.1 c -4.121,2.533 -8.012,5.469 -11.606,8.791 -0.291,0.334 -0.526,0.704 -0.699,1.112 -0.116,0.373 -0.069,0.78 0.13,1.117 0.199,0.342 0.533,0.578 0.922,0.654 0.372,0.019 0.743,-0.112 1.019,-0.365 5.597,-4.568 11.784,-8.319 18.366,-11.168 l 67.659,1.176 c -0.418,4.012 -1.39,7.973 -2.915,11.763 -0.931,3.262 -2.651,6.253 -4.999,8.702 -2.045,3.37 -4.649,6.377 -7.7,8.879 -0.631,0.925 -0.732,2.113 -0.264,3.132 0.082,0.211 0.253,0.379 0.465,0.452 0.214,0.088 0.448,0.069 0.649,-0.039 0.708,-0.339 1.347,-0.791 1.899,-1.34 4.573,-4.282 8.352,-9.346 11.143,-14.96 2.219,-3.95 3.74,-8.253 4.5,-12.718 0.271,-1.272 0.546,-2.542 0.835,-3.808 l 21.072,0.365 c -0.482,6.875 -2.437,13.643 -5.83,19.822 -2.83,6.828 -6.835,13.105 -11.83,18.545 -4.4,7.096 -10.536,12.963 -17.826,17.036 -1.544,0.705 -2.509,2.277 -2.446,3.969 -0.007,0.478 0.184,0.941 0.529,1.274 0.339,0.334 0.807,0.507 1.285,0.483 1.637,-0.343 3.174,-1.042 4.504,-2.054 8.233,-5.848 15.265,-13.218 20.724,-21.712 1.238,-1.895 2.388,-3.848 3.439,-5.851 6.066,-9.529 9.974,-20.261 11.467,-31.444 l 2.683,0.048 c -0.636,4.99 -1.664,9.932 -3.077,14.773 -0.232,0.98 0.01,2.013 0.651,2.786 6.261,6.825 11.299,14.681 14.897,23.215 4.919,13.644 6.077,28.357 3.337,42.595 -0.385,2.687 -0.895,5.346 -1.529,7.969 -1.487,2.253 -3.086,4.44 -4.784,6.556 -8.543,11.713 -20.09,20.906 -33.426,26.617 -8.691,3.188 -17.874,4.863 -27.134,4.943 -1.005,0.057 -1.923,0.584 -2.483,1.422 -2.573,4.337 -5.486,8.456 -8.705,12.329 l -1.864,-1.931 c 7.161,-8.716 12.34,-18.897 15.17,-29.835 0.747,-2.135 1.394,-4.308 1.935,-6.502 2.489,-9.787 3.077,-19.958 1.74,-29.966 -0.166,-1.66 -0.705,-3.265 -1.572,-4.695 -0.31,-0.368 -0.753,-0.589 -1.229,-0.611 -0.482,-0.026 -0.95,0.151 -1.292,0.484 -1.279,1.106 -1.771,2.882 -1.233,4.496 1.991,8.109 1.891,16.595 -0.296,24.654 -0.572,7.367 -2.431,14.573 -5.493,21.302 -2.205,6.695 -5.818,12.743 -10.521,17.785 L 414.63,482.434 c -0.003,0 -0.003,0 -0.003,10e-4 l -2.513,-2.602 c 0,0 0.003,0 0.003,-0.001 l 2.513,2.6 c 0.728,-1.074 1.467,-2.144 2.218,-3.209 2.744,-3.6 4.851,-7.65 6.23,-11.967 2.196,-5.872 3.324,-12.086 3.335,-18.354 0.028,-0.78 -0.08,-1.555 -0.313,-2.3 -0.061,-0.221 -0.207,-0.405 -0.411,-0.503 -0.202,-0.104 -0.439,-0.115 -0.651,-0.032 -1.065,0.356 -1.866,1.239 -2.11,2.331 0.249,3.937 -0.172,7.892 -1.241,11.686 -0.189,3.389 -1.205,6.685 -2.955,9.591 -1.729,3.7 -3.962,7.115 -6.615,10.157 l -47.012,-48.671 c -2.404,-6.757 -3.881,-13.838 -4.359,-21.047 -0.009,-0.374 -0.158,-0.733 -0.43,-0.994 -0.317,-0.234 -0.72,-0.315 -1.103,-0.231 -0.384,0.084 -0.715,0.326 -0.908,0.668 -0.181,0.404 -0.289,0.83 -0.337,1.267 0.026,4.896 0.53,9.745 1.487,14.484 l -3.997,-4.139 c -0.261,-1.31 -0.498,-2.622 -0.71,-3.938 -0.114,-1.375 -0.27,-2.744 -0.486,-4.1 -0.051,-0.379 -0.2,-0.731 -0.432,-1.033 -0.081,-0.081 -0.184,-0.131 -0.297,-0.153 -0.166,-0.028 -0.336,-0.023 -0.495,0.019 -1.486,0.662 -2.93,1.406 -4.322,2.229 -0.87,1.364 -1.661,2.78 -2.376,4.242 -0.048,0.157 -0.059,0.326 -0.036,0.494 0.018,0.11 0.063,0.218 0.143,0.305 0.293,0.242 0.645,0.399 1.019,0.468 1.345,0.257 2.709,0.466 4.079,0.623 1.308,0.257 2.611,0.539 3.91,0.846 l 5.975,6.183 -1.975,-2.041 c -4.705,-1.124 -9.53,-1.796 -14.424,-1.991 -0.442,0.032 -0.872,0.125 -1.283,0.292 -0.347,0.182 -0.599,0.504 -0.693,0.883 -0.1,0.385 -0.033,0.787 0.187,1.115 0.249,0.277 0.607,0.442 0.98,0.46 7.19,0.73 14.216,2.454 20.883,5.093 l 47.009,48.668 c -3.134,2.544 -6.617,4.66 -10.376,6.261 -2.968,1.646 -6.298,2.547 -9.69,2.617 -3.829,0.938 -7.796,1.222 -11.722,0.835 -1.098,0.206 -2.012,0.977 -2.405,2.028 -0.086,0.208 -0.086,0.447 0.011,0.65 0.089,0.209 0.27,0.361 0.489,0.43 0.738,0.261 1.512,0.392 2.289,0.394 6.263,0.206 12.513,-0.705 18.458,-2.697 4.362,-1.227 8.481,-3.191 12.177,-5.811 1.088,-0.712 2.181,-1.415 3.282,-2.105 l 14.64,15.158 c -5.2,4.523 -11.371,7.925 -18.138,9.896 -6.831,2.825 -14.098,4.431 -21.478,4.747 -8.129,1.909 -16.619,1.716 -24.651,-0.557 -1.592,-0.593 -3.381,-0.163 -4.535,1.076 -0.348,0.332 -0.537,0.795 -0.531,1.274 0.004,0.476 0.215,0.929 0.569,1.251 1.401,0.915 2.984,1.508 4.637,1.733 9.959,1.686 20.139,1.446 30.012,-0.7 2.21,-0.463 4.406,-1.033 6.563,-1.706 11.028,-2.45 21.381,-7.273 30.343,-14.126 l 1.864,1.93 c -3.98,3.082 -8.198,5.847 -12.621,8.271 -0.858,0.528 -1.417,1.431 -1.509,2.432 -0.402,9.251 -2.392,18.368 -5.882,26.949 -6.169,13.126 -15.757,24.348 -27.757,32.48 -2.177,1.626 -4.416,3.145 -6.718,4.552 -2.649,0.542 -5.321,0.96 -8.022,1.256 -14.323,2.238 -28.986,0.574 -42.453,-4.815 -8.403,-3.894 -16.078,-9.203 -22.685,-15.693 -0.747,-0.671 -1.771,-0.949 -2.759,-0.749 -4.889,1.243 -9.863,2.098 -14.874,2.562 l 0.047,-2.684 c 11.229,-1.1 22.088,-4.637 31.827,-10.369 2.033,-0.983 4.027,-2.061 5.963,-3.232 8.68,-5.161 16.287,-11.934 22.42,-19.957 1.055,-1.293 1.81,-2.807 2.208,-4.432 0.042,-0.477 -0.117,-0.949 -0.438,-1.302 -0.323,-0.356 -0.775,-0.562 -1.254,-0.57 -1.688,-0.121 -3.291,0.787 -4.053,2.306 -4.326,7.144 -10.397,13.073 -17.642,17.224 -5.612,4.805 -12.026,8.587 -18.946,11.18 -6.295,3.175 -13.128,4.895 -20.017,5.138 l 0.366,-21.072 0.064,-3.616 -0.043,2.391 1.217,-70.044 c 0,-0.002 -0.003,-0.003 -0.003,-0.004 l 0.142,-8.132 -0.136,8.057 0.119,-7.092 -0.122,7.169 c 3.077,-6.48 7.038,-12.532 11.798,-17.97 0.26,-0.268 0.407,-0.63 0.404,-1.004 -0.062,-0.389 -0.288,-0.731 -0.622,-0.945 -0.329,-0.211 -0.736,-0.275 -1.115,-0.17 -0.412,0.16 -0.791,0.381 -1.133,0.659 -3.445,3.481 -6.517,7.267 -9.19,11.296 l -0.02,0.965 0.12,-6.722 c 0.739,-1.11 1.501,-2.205 2.283,-3.287 0.894,-1.05 1.745,-2.13 2.555,-3.239 0.232,-0.304 0.378,-0.659 0.425,-1.037 0,-0.116 -0.036,-0.224 -0.098,-0.321 -0.101,-0.135 -0.222,-0.251 -0.37,-0.336 -1.515,-0.582 -3.061,-1.075 -4.627,-1.48 -1.58,0.35 -3.141,0.79 -4.681,1.319 -0.148,0.08 -0.271,0.189 -0.373,0.325 -0.069,0.092 -0.113,0.199 -0.115,0.315 0.036,0.379 0.17,0.739 0.388,1.05 0.773,1.137 1.587,2.248 2.442,3.327 0.746,1.108 1.468,2.231 2.168,3.364 l -0.1,5.757 c -2.534,-4.121 -5.467,-8.009 -8.794,-11.606 -0.331,-0.29 -0.702,-0.528 -1.11,-0.701 -0.372,-0.117 -0.783,-0.067 -1.116,0.133 -0.344,0.201 -0.581,0.535 -0.654,0.922 -0.021,0.373 0.115,0.742 0.365,1.018 4.565,5.598 8.318,11.785 11.167,18.366 l -1.171,67.657 c -4.017,-0.417 -7.98,-1.387 -11.77,-2.911 -3.259,-0.935 -6.25,-2.652 -8.7,-5.002 -3.369,-2.044 -6.376,-4.648 -8.879,-7.698 -0.924,-0.631 -2.112,-0.732 -3.132,-0.265 -0.21,0.082 -0.378,0.253 -0.452,0.466 -0.087,0.213 -0.068,0.447 0.04,0.649 0.338,0.706 0.791,1.345 1.34,1.898 4.282,4.574 9.346,8.35 14.96,11.144 3.95,2.218 8.253,3.742 12.718,4.502 1.272,0.266 2.543,0.542 3.811,0.833 l -0.368,21.072 c -6.876,-0.482 -13.643,-2.438 -19.822,-5.83 -6.829,-2.832 -13.105,-6.834 -18.546,-11.832 -7.095,-4.398 -12.962,-10.534 -17.035,-17.823 -0.706,-1.545 -2.277,-2.508 -3.969,-2.447 -0.479,-0.009 -0.941,0.183 -1.275,0.527 -0.334,0.341 -0.507,0.808 -0.481,1.286 0.342,1.638 1.041,3.177 2.05,4.505 5.85,8.233 13.22,15.266 21.715,20.725 1.895,1.237 3.848,2.385 5.85,3.436 9.53,6.065 20.264,9.976 31.445,11.465 l -0.047,2.686 c -4.994,-0.637 -9.933,-1.665 -14.776,-3.076 -0.978,-0.235 -2.011,0.008 -2.784,0.651 -6.826,6.258 -14.682,11.296 -23.215,14.897 -13.644,4.92 -28.36,6.075 -42.594,3.34 -2.688,-0.389 -5.346,-0.901 -7.971,-1.534 -2.253,-1.487 -4.44,-3.082 -6.555,-4.781 -11.715,-8.546 -20.908,-20.093 -26.62,-33.426 -3.185,-8.694 -4.859,-17.876 -4.938,-27.135 -0.057,-1.004 -0.586,-1.925 -1.424,-2.483 -4.337,-2.575 -8.458,-5.487 -12.332,-8.704 l 1.934,-1.865 c 8.716,7.16 18.898,12.338 29.836,15.17 2.132,0.745 4.306,1.393 6.502,1.934 9.788,2.489 19.954,3.077 29.965,1.742 1.659,-0.17 3.265,-0.706 4.695,-1.573 0.367,-0.308 0.59,-0.755 0.612,-1.232 0.026,-0.478 -0.153,-0.946 -0.484,-1.289 -1.109,-1.28 -2.883,-1.77 -4.494,-1.233 -8.111,1.993 -16.598,1.89 -24.658,-0.298 -7.367,-0.573 -14.571,-2.429 -21.299,-5.49 -6.698,-2.206 -12.745,-5.822 -17.789,-10.521 l 15.16,-14.642 v -0.002 l 2.599,-2.512 0.003,0.002 -2.029,1.957 50.699,-48.967 c 6.757,-2.406 13.838,-3.882 21.047,-4.362 0.373,-0.007 0.733,-0.158 0.994,-0.426 0.234,-0.318 0.315,-0.722 0.231,-1.108 -0.084,-0.381 -0.326,-0.712 -0.668,-0.907 -0.405,-0.18 -0.83,-0.287 -1.267,-0.337 -4.898,0.027 -9.746,0.532 -14.486,1.49 l 4.142,-3.999 c 1.309,-0.26 2.62,-0.498 3.937,-0.709 1.374,-0.114 2.744,-0.271 4.1,-0.488 0.373,-0.049 0.731,-0.199 1.033,-0.43 0.081,-0.081 0.131,-0.184 0.152,-0.297 0.029,-0.165 0.024,-0.336 -0.019,-0.497 -0.662,-1.485 -1.405,-2.928 -2.228,-4.321 -1.364,-0.869 -2.781,-1.66 -4.242,-2.376 -0.158,-0.047 -0.326,-0.057 -0.494,-0.036 -0.111,0.018 -0.218,0.063 -0.305,0.144 -0.242,0.292 -0.399,0.644 -0.468,1.017 -0.257,1.346 -0.468,2.71 -0.623,4.079 -0.257,1.309 -0.539,2.613 -0.849,3.912 l -4.139,4 c 1.122,-4.706 1.795,-9.531 1.99,-14.425 -0.032,-0.441 -0.125,-0.872 -0.29,-1.282 -0.184,-0.347 -0.504,-0.599 -0.883,-0.694 -0.386,-0.1 -0.788,-0.031 -1.117,0.187 -0.276,0.249 -0.441,0.607 -0.46,0.98 -0.73,7.188 -2.455,14.216 -5.09,20.884 l -48.671,47.009 c -2.544,-3.131 -4.659,-6.621 -6.26,-10.379 -1.648,-2.966 -2.547,-6.295 -2.618,-9.688 -0.939,-3.829 -1.222,-7.795 -0.833,-11.722 -0.207,-1.1 -0.978,-2.012 -2.029,-2.404 -0.208,-0.088 -0.447,-0.088 -0.652,0.011 -0.208,0.091 -0.36,0.27 -0.428,0.488 -0.261,0.737 -0.392,1.51 -0.394,2.289 -0.209,6.263 0.706,12.515 2.699,18.458 1.225,4.363 3.19,8.481 5.808,12.177 0.715,1.09 1.417,2.183 2.108,3.282 l -15.16,14.643 c -4.521,-5.203 -7.926,-11.373 -9.898,-18.141 -2.823,-6.829 -4.431,-14.096 -4.747,-21.478 -1.908,-8.13 -1.713,-16.616 0.558,-24.65 0.594,-1.593 0.163,-3.384 -1.075,-4.537 -0.334,-0.345 -0.797,-0.535 -1.275,-0.527 -0.476,0.004 -0.93,0.212 -1.251,0.567 -0.915,1.399 -1.508,2.983 -1.732,4.638 -1.685,9.956 -1.448,20.141 0.699,30.007 0.465,2.214 1.033,4.407 1.706,6.566 2.449,11.03 7.275,21.382 14.129,30.343 l -1.934,1.867 c -3.08,-3.983 -5.845,-8.202 -8.268,-12.624 -0.532,-0.857 -1.433,-1.416 -2.434,-1.508 -9.251,-0.402 -18.367,-2.394 -26.948,-5.882 -13.128,-6.17 -24.348,-15.757 -32.482,-27.759 -1.625,-2.174 -3.143,-4.415 -4.55,-6.718 -0.544,-2.646 -0.959,-5.319 -1.256,-8.019 -2.237,-14.324 -0.576,-28.991 4.815,-42.455 3.892,-8.403 9.201,-16.077 15.693,-22.682 0.668,-0.752 0.949,-1.774 0.749,-2.762 -1.243,-4.887 -2.1,-9.859 -2.562,-14.874 l 2.686,0.045 4.01,0.068 v 0.003 l -4.01,-0.066 v -0.003 0.003 c 1.098,11.228 4.636,22.085 10.366,31.823 0.983,2.034 2.06,4.029 3.233,5.964 5.161,8.681 11.934,16.287 19.959,22.421 1.293,1.054 2.806,1.809 4.43,2.208 0.476,0.042 0.949,-0.119 1.301,-0.439 0.356,-0.323 0.563,-0.775 0.571,-1.253 0.12,-1.691 -0.788,-3.291 -2.308,-4.053 -7.143,-4.327 -13.073,-10.398 -17.222,-17.644 -4.806,-5.612 -8.587,-12.022 -11.179,-18.945 -3.174,-6.294 -4.896,-13.128 -5.141,-20.016 l 21.074,0.366 V 352.6 l 3.616,0.062 v 0.003 l -0.328,-0.005 67.98,1.18 c 0.003,0 0.005,-0.002 0.005,-0.002 l 8.132,0.141 -8.087,-0.139 7.121,0.126 -7.168,-0.126 c 6.478,3.075 12.533,7.038 17.968,11.801 0.269,0.257 0.632,0.404 1.005,0.399 0.388,-0.06 0.73,-0.289 0.945,-0.62 0.211,-0.329 0.274,-0.735 0.169,-1.114 -0.157,-0.413 -0.378,-0.789 -0.657,-1.133 -3.48,-3.446 -7.264,-6.518 -11.296,-9.191 l 5.756,0.1 c 1.109,0.741 2.207,1.501 3.287,2.284 1.049,0.894 2.132,1.745 3.241,2.557 0.303,0.229 0.657,0.376 1.036,0.423 0.115,0 0.226,-0.036 0.32,-0.102 0.137,-0.1 0.253,-0.221 0.336,-0.363 0.584,-1.519 1.076,-3.067 1.48,-4.631 -0.349,-1.58 -0.791,-3.143 -1.319,-4.681 -0.077,-0.148 -0.186,-0.271 -0.324,-0.373 -0.092,-0.069 -0.199,-0.113 -0.317,-0.116 -0.376,0.037 -0.738,0.171 -1.048,0.389 -1.136,0.773 -2.248,1.585 -3.328,2.442 -1.109,0.746 -2.23,1.469 -3.364,2.169 l -5.756,-0.101 c 4.12,-2.533 8.011,-5.469 11.606,-8.791 0.289,-0.334 0.526,-0.705 0.699,-1.112 0.116,-0.373 0.068,-0.781 -0.131,-1.117 -0.2,-0.342 -0.534,-0.578 -0.923,-0.654 -0.37,-0.018 -0.741,0.112 -1.017,0.365 -5.598,4.568 -11.785,8.318 -18.366,11.168 l -67.657,-1.176 c 0.416,-4.01 1.388,-7.973 2.912,-11.763 0.931,-3.262 2.65,-6.253 4.999,-8.703 2.045,-3.369 4.65,-6.373 7.701,-8.878 0.63,-0.925 0.731,-2.113 0.263,-3.136 -0.081,-0.207 -0.253,-0.375 -0.465,-0.449 -0.213,-0.087 -0.45,-0.068 -0.65,0.039 -0.706,0.337 -1.345,0.792 -1.897,1.341 -4.574,4.284 -8.348,9.346 -11.144,14.96 -2.218,3.953 -3.743,8.253 -4.5,12.718 -0.268,1.272 -0.546,2.542 -0.835,3.809 l -21.074,-0.366 c 0.484,-6.876 2.44,-13.643 5.829,-19.822 2.834,-6.826 6.837,-13.102 11.833,-18.545 4.4,-7.096 10.537,-12.963 17.825,-17.036 1.546,-0.707 2.507,-2.277 2.444,-3.969 0.011,-0.479 -0.181,-0.941 -0.525,-1.275 -0.339,-0.333 -0.81,-0.507 -1.286,-0.483 -1.637,0.343 -3.177,1.042 -4.502,2.054 -8.236,5.852 -15.267,13.219 -20.726,21.716 -1.238,1.892 -2.386,3.845 -3.438,5.848 -6.066,9.527 -9.976,20.258 -11.464,31.444 l -2.686,-0.047 c 0.636,-4.992 1.663,-9.932 3.074,-14.774 0.235,-0.98 -0.007,-2.013 -0.651,-2.786 -6.256,-6.826 -11.297,-14.679 -14.895,-23.215 -4.92,-13.644 -6.076,-28.359 -3.34,-42.594 0.389,-2.688 0.899,-5.345 1.532,-7.972 1.488,-2.252 3.084,-4.435 4.784,-6.554 8.545,-11.714 20.093,-20.906 33.423,-26.617 8.695,-3.187 17.878,-4.862 27.136,-4.943 1.007,-0.056 1.928,-0.584 2.484,-1.422 2.574,-4.336 5.488,-8.455 8.705,-12.329 l 1.864,1.933 c -7.162,8.718 -12.34,18.896 -15.168,29.835 -0.752,2.132 -1.398,4.304 -1.937,6.502 -2.489,9.785 -3.077,19.954 -1.742,29.964 0.168,1.659 0.707,3.265 1.571,4.695 0.31,0.368 0.757,0.588 1.233,0.609 0.481,0.027 0.949,-0.149 1.291,-0.481 1.28,-1.109 1.771,-2.883 1.232,-4.496 -1.99,-8.112 -1.889,-16.595 0.297,-24.656 0.573,-7.367 2.431,-14.574 5.493,-21.298 2.205,-6.699 5.819,-12.746 10.518,-17.789 l 14.642,15.159 c -0.728,1.075 -1.466,2.145 -2.218,3.211 -2.746,3.598 -4.851,7.649 -6.229,11.967 -2.197,5.87 -3.325,12.085 -3.335,18.351 -0.029,0.78 0.079,1.559 0.313,2.302 0.06,0.221 0.208,0.408 0.41,0.505 0.202,0.102 0.439,0.113 0.649,0.032 1.067,-0.359 1.869,-1.241 2.113,-2.332 -0.25,-3.94 0.168,-7.892 1.24,-11.688 0.19,-3.387 1.204,-6.681 2.955,-9.592 1.729,-3.699 3.96,-7.111 6.612,-10.156 l 47.014,48.675 c 2.409,6.758 3.882,13.838 4.361,21.044 0.008,0.374 0.158,0.733 0.428,0.997 0.318,0.231 0.721,0.312 1.104,0.228 0.384,-0.084 0.715,-0.326 0.91,-0.667 0.178,-0.403 0.289,-0.831 0.336,-1.267 -0.026,-4.895 -0.531,-9.743 -1.488,-14.482 l 3.998,4.137 c 0.26,1.306 0.497,2.62 0.71,3.937 0.113,1.375 0.27,2.741 0.486,4.097 0.05,0.379 0.2,0.734 0.431,1.037 0.081,0.078 0.184,0.13 0.297,0.151 0.165,0.029 0.336,0.022 0.497,-0.018 1.485,-0.665 2.927,-1.407 4.32,-2.228 0.87,-1.362 1.661,-2.781 2.376,-4.242 0.048,-0.16 0.058,-0.326 0.037,-0.494 -0.018,-0.111 -0.063,-0.219 -0.144,-0.306 -0.292,-0.239 -0.644,-0.4 -1.017,-0.467 -1.346,-0.258 -2.711,-0.469 -4.079,-0.623 -1.309,-0.258 -2.613,-0.542 -3.912,-0.847 l -9.098,-9.423 5.098,5.284 v 0.005 l -5.651,-5.853 c 0,-0.002 0,-0.005 -0.002,-0.008 l 5.653,5.853 c 4.705,1.123 9.53,1.796 14.424,1.989 0.442,-0.027 0.873,-0.122 1.283,-0.291 0.347,-0.181 0.599,-0.505 0.694,-0.88 0.1,-0.387 0.031,-0.789 -0.187,-1.117 -0.249,-0.276 -0.607,-0.441 -0.98,-0.461 -7.191,-0.728 -14.22,-2.451 -20.887,-5.093 l -47.006,-48.67 c 3.133,-2.542 6.621,-4.657 10.376,-6.258 2.97,-1.648 6.297,-2.546 9.69,-2.618 3.83,-0.938 7.795,-1.219 11.723,-0.833 1.098,-0.209 2.01,-0.977 2.404,-2.029 0.087,-0.208 0.087,-0.446 -0.01,-0.651 -0.09,-0.209 -0.271,-0.361 -0.489,-0.428 -0.739,-0.261 -1.511,-0.393 -2.29,-0.396 -6.262,-0.207 -12.512,0.706 -18.458,2.7 -4.363,1.225 -8.484,3.191 -12.176,5.808 -1.086,0.715 -2.182,1.414 -3.283,2.106 l -14.639,-15.16 c 5.198,-4.518 11.369,-7.924 18.137,-9.893 6.831,-2.825 14.098,-4.434 21.478,-4.749 8.13,-1.908 16.619,-1.714 24.65,0.557 1.594,0.594 3.383,0.163 4.537,-1.075 0.347,-0.332 0.536,-0.797 0.531,-1.275 -0.005,-0.476 -0.215,-0.931 -0.57,-1.25 -1.401,-0.915 -2.984,-1.51 -4.637,-1.733 -9.958,-1.685 -20.14,-1.449 -30.012,0.699 -2.21,0.463 -4.405,1.034 -6.562,1.707 -11.028,2.449 -21.381,7.275 -30.343,14.126 l -1.867,-1.932 c 3.982,-3.08 8.201,-5.846 12.623,-8.271 0.858,-0.528 1.418,-1.43 1.507,-2.431 0.405,-9.249 2.397,-18.369 5.882,-26.947 6.172,-13.128 15.759,-24.349 27.759,-32.484 2.177,-1.623 4.416,-3.143 6.719,-4.548 2.649,-0.541 5.319,-0.959 8.021,-1.256 14.323,-2.24 28.987,-0.574 42.454,4.814 8.403,3.896 16.077,9.204 22.685,15.694 0.746,0.669 1.77,0.948 2.759,0.748 4.888,-1.246 9.862,-2.099 14.874,-2.562 l -0.047,2.683 h 0.002 l -0.069,4.016 h -0.002 l 0.066,-4.016 c -11.229,1.102 -22.086,4.638 -31.823,10.371 -2.034,0.981 -4.029,2.06 -5.964,3.231 -8.681,5.158 -16.287,11.934 -22.421,19.956 -1.054,1.293 -1.809,2.807 -2.208,4.431 -0.042,0.479 0.118,0.952 0.439,1.304 0.323,0.357 0.775,0.562 1.253,0.57 1.691,0.121 3.291,-0.788 4.053,-2.308 4.326,-7.142 10.397,-13.07 17.644,-17.222 5.611,-4.805 12.024,-8.587 18.944,-11.181 6.294,-3.175 13.128,-4.893 20.017,-5.136 l -0.366,21.072 -0.062,3.613 0.041,-2.356 -1.217,70.009 c -3.077,6.482 -7.038,12.535 -11.797,17.976 -0.261,0.264 -0.408,0.628 -0.405,1.001 0.062,0.391 0.289,0.73 0.623,0.946 0.328,0.21 0.736,0.273 1.113,0.168 0.414,-0.158 0.791,-0.381 1.134,-0.657 3.445,-3.48 6.517,-7.267 9.19,-11.296 l 0.014,-0.731 -0.112,6.487 c -0.74,1.111 -1.502,2.206 -2.285,3.288 -0.894,1.049 -1.745,2.132 -2.555,3.24 -0.232,0.303 -0.378,0.66 -0.426,1.036 0,0.115 0.037,0.226 0.101,0.32 0.099,0.134 0.22,0.252 0.368,0.337 1.515,0.581 3.06,1.076 4.628,1.48 1.579,-0.35 3.14,-0.791 4.68,-1.32 0.148,-0.079 0.272,-0.189 0.373,-0.323 0.069,-0.092 0.114,-0.2 0.116,-0.318 -0.036,-0.376 -0.17,-0.738 -0.388,-1.049 -0.773,-1.136 -1.588,-2.246 -2.441,-3.327 -0.747,-1.107 -1.47,-2.232 -2.169,-3.364 l 0.098,-5.756 c 2.535,4.119 5.468,8.009 8.795,11.608 0.332,0.287 0.702,0.525 1.11,0.696 0.373,0.117 0.783,0.069 1.117,-0.13 0.344,-0.203 0.578,-0.534 0.654,-0.922 0.022,-0.373 -0.116,-0.742 -0.365,-1.018 -4.566,-5.599 -8.319,-11.785 -11.168,-18.366 l 1.173,-67.659 c 4.012,0.418 7.979,1.389 11.768,2.915 3.26,0.93 6.251,2.651 8.701,4.999 3.369,2.045 6.374,4.648 8.877,7.7 0.925,0.631 2.114,0.731 3.133,0.264 0.21,-0.082 0.379,-0.253 0.452,-0.465 0.087,-0.214 0.068,-0.448 -0.039,-0.65 -0.34,-0.708 -0.792,-1.346 -1.342,-1.898 -4.282,-4.573 -9.347,-8.351 -14.958,-11.144 -3.953,-2.218 -8.253,-3.739 -12.718,-4.5 -1.273,-0.27 -2.545,-0.545 -3.812,-0.834 l 0.368,-21.072 c 6.875,0.482 13.644,2.437 19.823,5.829 6.828,2.831 13.104,6.835 18.545,11.83 7.096,4.401 12.962,10.537 17.037,17.825 0.704,1.546 2.275,2.51 3.967,2.447 0.479,0.008 0.941,-0.184 1.276,-0.528 0.333,-0.339 0.507,-0.81 0.48,-1.286 -0.341,-1.636 -1.04,-3.173 -2.049,-4.504 -5.851,-8.232 -13.22,-15.264 -21.715,-20.723 -1.895,-1.238 -3.848,-2.388 -5.851,-3.44 -9.53,-6.065 -20.261,-9.975 -31.444,-11.466 l 0.048,-2.683 c 4.99,0.636 9.93,1.664 14.773,3.077 0.98,0.232 2.012,-0.011 2.785,-0.651 6.826,-6.258 14.679,-11.299 23.216,-14.898 13.644,-4.919 28.358,-6.076 42.593,-3.337 2.688,0.386 5.346,0.896 7.972,1.53 2.252,1.487 4.439,3.086 6.555,4.783 11.714,8.544 20.905,20.091 26.616,33.427 3.188,8.691 4.863,17.874 4.945,27.133 0.054,1.005 0.583,1.923 1.422,2.481 4.335,2.576 8.454,5.488 12.331,8.708 l -1.932,1.866 v 0.001 l -2.886,2.79 c -0.004,0 -0.004,-0.002 -0.004,-0.002 l 2.886,-2.791 v 0.002 l 0.004,-0.002 c -8.721,-7.161 -18.9,-12.341 -29.839,-15.171 -2.132,-0.746 -4.305,-1.393 -6.502,-1.933 -9.788,-2.491 -19.954,-3.078 -29.966,-1.742 -1.657,0.166 -3.263,0.705 -4.693,1.573 -0.368,0.309 -0.591,0.753 -0.612,1.229 -0.026,0.482 0.152,0.949 0.484,1.29 1.107,1.281 2.882,1.773 4.493,1.233 8.112,-1.99 16.598,-1.889 24.658,0.298 7.368,0.572 14.575,2.431 21.299,5.493 6.698,2.205 12.745,5.818 17.788,10.521 l -15.156,14.642 -2.6,2.512 c -0.002,0 -0.002,0 -0.002,-0.002 l 2.6,-2.513 c -1.075,-0.729 -2.145,-1.467 -3.211,-2.218 -3.598,-2.744 -7.649,-4.852 -11.968,-6.23 -5.869,-2.197 -12.086,-3.325 -18.351,-3.335 -0.779,-0.029 -1.559,0.079 -2.302,0.313 -0.221,0.061 -0.407,0.207 -0.503,0.41 -0.103,0.202 -0.115,0.44 -0.03,0.652 0.354,1.065 1.238,1.866 2.329,2.11 3.936,-0.249 7.892,0.172 11.687,1.241 3.388,0.189 6.682,1.204 9.591,2.954 3.7,1.73 7.112,3.963 10.158,6.616 l -48.673,47.01 c -6.754,2.406 -13.837,3.883 -21.047,4.361 -0.373,0.008 -0.733,0.158 -0.993,0.429 -0.234,0.318 -0.315,0.72 -0.232,1.103 0.084,0.385 0.326,0.716 0.667,0.909 0.405,0.18 0.832,0.29 1.269,0.338 4.895,-0.027 9.745,-0.531 14.483,-1.488 l -4.139,3.997 c -1.309,0.26 -2.621,0.5 -3.938,0.711 -1.373,0.109 -2.743,0.272 -4.099,0.482 -0.38,0.053 -0.731,0.199 -1.034,0.432 -0.08,0.084 -0.131,0.186 -0.151,0.3 -0.029,0.167 -0.024,0.335 0.017,0.493 0.663,1.488 1.408,2.93 2.229,4.324 1.365,0.87 2.781,1.661 4.242,2.376 0.159,0.05 0.326,0.058 0.494,0.037 0.111,-0.02 0.218,-0.063 0.305,-0.145 0.243,-0.292 0.4,-0.644 0.468,-1.018 0.257,-1.348 0.468,-2.708 0.623,-4.079 0.258,-1.309 0.539,-2.614 0.849,-3.91 l 4.14,-4 c -1.123,4.705 -1.796,9.533 -1.989,14.424 0.031,0.442 0.122,0.872 0.288,1.283 0.183,0.346 0.505,0.598 0.883,0.693 0.387,0.101 0.789,0.032 1.116,-0.186 0.277,-0.253 0.442,-0.608 0.461,-0.981 0.73,-7.187 2.455,-14.217 5.092,-20.885 l 48.671,-47.008 c 2.542,3.134 4.658,6.618 6.258,10.376 1.649,2.969 2.547,6.3 2.618,9.691 0.939,3.829 1.22,7.796 0.833,11.722 0.208,1.098 0.978,2.01 2.029,2.402 0.209,0.089 0.447,0.089 0.652,-0.008 0.209,-0.09 0.36,-0.271 0.428,-0.489 0.261,-0.738 0.392,-1.512 0.394,-2.288 0.208,-6.264 -0.705,-12.514 -2.699,-18.459 -1.224,-4.363 -3.19,-8.482 -5.807,-12.177 -0.715,-1.086 -1.415,-2.181 -2.106,-3.282 l 15.16,-14.64 c 4.518,5.201 7.924,11.37 9.893,18.138 2.825,6.831 4.433,14.098 4.749,21.477 1.908,8.132 1.714,16.617 -0.557,24.654 -0.595,1.587 -0.164,3.38 1.074,4.534 0.332,0.347 0.797,0.533 1.275,0.527 0.476,-0.005 0.93,-0.21 1.251,-0.566 0.915,-1.399 1.51,-2.984 1.733,-4.637 1.684,-9.959 1.447,-20.141 -0.699,-30.01 -0.463,-2.213 -1.034,-4.408 -1.707,-6.565 -2.449,-11.028 -7.272,-21.381 -14.126,-30.342 l 1.932,-1.864 c 3.08,3.978 5.845,8.197 8.271,12.62 0.527,0.857 1.43,1.417 2.43,1.509 9.25,0.402 18.369,2.391 26.948,5.882 13.128,6.169 24.349,15.756 32.483,27.756 1.623,2.177 3.143,4.419 4.548,6.721 0.542,2.647 0.96,5.318 1.257,8.017 2.239,14.323 0.573,28.989 -4.814,42.457 m -217.242,0.33 c 0.011,-0.607 0.021,-1.219 0.03,-1.826 l 0.002,-0.042 z m -27.105,9.039 c 0.222,0.232 0.442,0.457 0.663,0.686 l 2.166,2.242 c -0.718,-0.742 -1.435,-1.485 -2.161,-2.234 0.111,0.113 0.221,0.226 0.329,0.339 l -1.149,-1.188 c 0.266,0.274 0.528,0.544 0.791,0.818 z m 50.116,51.888 c 0.504,0.519 1.01,1.043 1.513,1.568 z m 43.629,45.168 v -0.002 l 5.65,5.853 c 0.004,10e-4 0.004,10e-4 0.004,0.002 z m 69.814,72.283 v -0.002 l 1.635,1.691 z m -64.164,-66.428 -3.675,-3.811 3.679,3.811 z m -76.418,125.807 0.07,-4.014 -0.068,4.014 z m -66.153,-134.036 -5.851,5.65 c 0,0 -0.002,0.002 -0.005,0.002 z m 66.223,130.022 -0.07,4.012 0.068,-4.012 z"
           style="fill:#35b6ed;fill-opacity:1;fill-rule:evenodd;stroke:none"
           id="path31983"
           inkscape:connector-curvature="0" /></g></g></g></svg>