<?xml version="1.0" encoding="UTF-8" standalone="no"?>
<!-- Created with Inkscape (http://www.inkscape.org/) -->

<svg
   xmlns:dc="http://purl.org/dc/elements/1.1/"
   xmlns:cc="http://creativecommons.org/ns#"
   xmlns:rdf="http://www.w3.org/1999/02/22-rdf-syntax-ns#"
   xmlns:svg="http://www.w3.org/2000/svg"
   xmlns="http://www.w3.org/2000/svg"
   xmlns:sodipodi="http://sodipodi.sourceforge.net/DTD/sodipodi-0.dtd"
   xmlns:inkscape="http://www.inkscape.org/namespaces/inkscape"
   version="1.1"
   id="svg40973"
   xml:space="preserve"
   width="800"
   height="800"
   viewBox="0 0 800 800"
   sodipodi:docname="Lithuania-flag-sticker-2-publicdomainvectors.org.svg"
   inkscape:version="0.92.4 (5da689c313, 2019-01-14)"><metadata
     id="metadata40979"><rdf:RDF><cc:Work
         rdf:about=""><dc:format>image/svg+xml</dc:format><dc:type
           rdf:resource="http://purl.org/dc/dcmitype/StillImage" /><dc:title></dc:title></cc:Work></rdf:RDF></metadata><defs
     id="defs40977"><clipPath
       clipPathUnits="userSpaceOnUse"
       id="clipPath40989"><path
         d="M 0,600 H 600 V 0 H 0 Z"
         id="path40987"
         inkscape:connector-curvature="0" /></clipPath><radialGradient
       fx="0"
       fy="0"
       cx="0"
       cy="0"
       r="1"
       gradientUnits="userSpaceOnUse"
       gradientTransform="matrix(233.77223,0,0,-233.77223,303.40723,344.0249)"
       spreadMethod="pad"
       id="radialGradient41007"><stop
         style="stop-opacity:1;stop-color:#ffffff"
         offset="0"
         id="stop41003" /><stop
         style="stop-opacity:1;stop-color:#e2e2e2"
         offset="1"
         id="stop41005" /></radialGradient></defs><sodipodi:namedview
     pagecolor="#ffffff"
     bordercolor="#666666"
     borderopacity="1"
     objecttolerance="10"
     gridtolerance="10"
     guidetolerance="10"
     inkscape:pageopacity="0"
     inkscape:pageshadow="2"
     inkscape:window-width="797"
     inkscape:window-height="480"
     id="namedview40975"
     showgrid="false"
     inkscape:zoom="0.295"
     inkscape:cx="400"
     inkscape:cy="400"
     inkscape:window-x="0"
     inkscape:window-y="0"
     inkscape:window-maximized="0"
     inkscape:current-layer="g40981" /><g
     id="g40981"
     inkscape:groupmode="layer"
     inkscape:label="Lithuania-flag-sticker-2-publicdomainvectors.org"
     transform="matrix(1.3333333,0,0,-1.3333333,0,800)"><g
       id="g40983"><g
         id="g40985"
         clip-path="url(#clipPath40989)"><g
           id="g40991"><g
             id="g40993"><g
               id="g40999"><g
                 id="g41001"><path
                   d="m 85.908,344.021 c 0,-24.562 -16.711,-51.525 -9.491,-73.718 7.501,-22.981 37.159,-34.883 51.092,-54.037 14.116,-19.346 16.334,-51.153 35.698,-65.235 19.125,-13.933 50.018,-6.359 73.004,-13.867 22.214,-7.219 42.602,-31.779 67.228,-31.779 24.567,0 44.948,24.56 67.171,31.779 22.983,7.508 53.871,-0.066 73.027,13.867 19.34,14.082 21.618,45.889 35.674,65.235 13.923,19.154 43.617,31.056 51.089,54.037 7.214,22.193 -9.496,49.156 -9.496,73.718 0,24.598 16.71,51.567 9.496,73.76 -7.472,22.98 -37.166,34.882 -51.089,54.029 -14.056,19.311 -16.334,51.127 -35.674,65.208 -19.156,13.955 -50.044,6.395 -73.027,13.867 -22.223,7.247 -42.604,31.78 -67.171,31.78 -24.626,0 -45.014,-24.533 -67.228,-31.78 -22.986,-7.472 -53.879,0.088 -73.004,-13.867 -19.364,-14.081 -21.582,-45.897 -35.698,-65.208 -13.933,-19.147 -43.591,-31.049 -51.092,-54.029 -7.22,-22.193 9.491,-49.162 9.491,-73.76"
                   style="fill:url(#radialGradient41007);stroke:none"
                   id="path41009"
                   inkscape:connector-curvature="0" /></g></g></g></g><path
           d="m 458.364,456.581 c -7.805,10.727 -12.486,23.112 -16.611,34.04 -4.03,10.67 -8.198,21.699 -13.361,25.462 -5.034,3.668 -16.745,4.245 -28.064,4.805 -11.717,0.575 -24.995,1.226 -37.729,5.371 -12.338,4.022 -23.164,11.195 -32.719,17.524 -9.634,6.382 -19.599,12.983 -26.441,12.983 -6.893,0 -16.878,-6.614 -26.536,-13.004 -9.543,-6.32 -20.359,-13.484 -32.66,-17.494 l -0.021,-0.012 c -12.737,-4.142 -26.014,-4.793 -37.727,-5.368 -11.317,-0.56 -23.014,-1.137 -28.02,-4.787 -5.186,-3.775 -9.339,-14.774 -13.354,-25.414 -4.14,-10.959 -8.829,-23.382 -16.703,-34.157 -7.715,-10.598 -18.011,-18.798 -27.092,-26.025 -4.047,-3.224 -8.154,-6.495 -11.632,-9.688 h 387.444 c -3.478,3.19 -7.585,6.459 -11.634,9.679 -9.09,7.236 -19.394,15.436 -27.14,26.085"
           style="fill:#f9b20d;fill-opacity:1;fill-rule:nonzero;stroke:none"
           id="path41011"
           inkscape:connector-curvature="0" /><path
           d="m 121.318,257.584 c 9.089,-7.236 19.388,-15.432 27.135,-26.084 7.841,-10.746 12.528,-23.17 16.665,-34.125 4.016,-10.648 8.17,-21.654 13.319,-25.4 5.017,-3.651 16.7,-4.227 28.001,-4.787 11.739,-0.581 25.047,-1.237 37.811,-5.401 12.295,-3.998 23.132,-11.176 32.69,-17.506 9.646,-6.392 19.622,-12.998 26.5,-12.998 6.829,0 16.783,6.594 26.407,12.975 9.572,6.34 20.415,13.527 32.761,17.541 12.728,4.152 26.038,4.808 37.777,5.389 11.307,0.56 22.998,1.136 28.021,4.787 5.152,3.754 9.32,14.793 13.348,25.468 4.128,10.922 8.802,23.307 16.611,34.047 7.745,10.656 18.05,18.858 27.144,26.094 5.788,4.609 11.699,9.316 15.711,13.742 H 105.608 c 4.014,-4.426 9.925,-9.135 15.71,-13.742"
           style="fill:#c2212c;fill-opacity:1;fill-rule:nonzero;stroke:none"
           id="path41013"
           inkscape:connector-curvature="0" /><path
           d="m 101.038,409.741 c -1.828,-5.611 1.332,-17.287 4.132,-27.586 3.111,-11.469 6.635,-24.469 6.635,-38.134 0,-13.644 -3.524,-26.632 -6.632,-38.096 -2.796,-10.298 -5.965,-21.97 -4.13,-27.607 0.719,-2.203 2.356,-4.554 4.565,-6.992 h 395.611 c 2.206,2.436 3.839,4.785 4.555,6.988 1.83,5.631 -1.336,17.307 -4.135,27.605 -3.108,11.465 -6.634,24.453 -6.634,38.102 0,13.665 3.526,26.668 6.637,38.142 2.794,10.3 5.962,21.974 4.129,27.612 -1.107,3.404 -4.404,7.163 -8.633,11.042 H 109.694 c -4.236,-3.887 -7.541,-7.657 -8.656,-11.076"
           style="fill:#206842;fill-opacity:1;fill-rule:nonzero;stroke:none"
           id="path41015"
           inkscape:connector-curvature="0" /></g></g></g></svg>