<?xml version="1.0" encoding="UTF-8" standalone="no"?>
<!-- Created with Inkscape (http://www.inkscape.org/) -->

<svg
   xmlns:dc="http://purl.org/dc/elements/1.1/"
   xmlns:cc="http://creativecommons.org/ns#"
   xmlns:rdf="http://www.w3.org/1999/02/22-rdf-syntax-ns#"
   xmlns:svg="http://www.w3.org/2000/svg"
   xmlns="http://www.w3.org/2000/svg"
   xmlns:sodipodi="http://sodipodi.sourceforge.net/DTD/sodipodi-0.dtd"
   xmlns:inkscape="http://www.inkscape.org/namespaces/inkscape"
   version="1.1"
   id="svg13845"
   xml:space="preserve"
   width="800"
   height="800"
   viewBox="0 0 800 800"
   sodipodi:docname="concept-logotype-design-5-publicdomainvectors.org (2).svg"
   inkscape:version="0.92.4 (5da689c313, 2019-01-14)"><metadata
     id="metadata13851"><rdf:RDF><cc:Work
         rdf:about=""><dc:format>image/svg+xml</dc:format><dc:type
           rdf:resource="http://purl.org/dc/dcmitype/StillImage" /><dc:title></dc:title></cc:Work></rdf:RDF></metadata><defs
     id="defs13849"><clipPath
       clipPathUnits="userSpaceOnUse"
       id="clipPath13861"><path
         d="M 0,600 H 600 V 0 H 0 Z"
         id="path13859"
         inkscape:connector-curvature="0" /></clipPath><linearGradient
       x1="0"
       y1="0"
       x2="1"
       y2="0"
       gradientUnits="userSpaceOnUse"
       gradientTransform="matrix(424.10791,0,0,-424.10791,92.527832,330.89258)"
       spreadMethod="pad"
       id="linearGradient13881"><stop
         style="stop-opacity:1;stop-color:#1aaeec"
         offset="0"
         id="stop13875" /><stop
         style="stop-opacity:1;stop-color:#4253a7"
         offset="0.488764"
         id="stop13877" /><stop
         style="stop-opacity:1;stop-color:#e70c8d"
         offset="1"
         id="stop13879" /></linearGradient></defs><sodipodi:namedview
     pagecolor="#ffffff"
     bordercolor="#666666"
     borderopacity="1"
     objecttolerance="10"
     gridtolerance="10"
     guidetolerance="10"
     inkscape:pageopacity="0"
     inkscape:pageshadow="2"
     inkscape:window-width="797"
     inkscape:window-height="480"
     id="namedview13847"
     showgrid="false"
     inkscape:zoom="0.295"
     inkscape:cx="400"
     inkscape:cy="400"
     inkscape:window-x="0"
     inkscape:window-y="0"
     inkscape:window-maximized="0"
     inkscape:current-layer="g13853" /><g
     id="g13853"
     inkscape:groupmode="layer"
     inkscape:label="concept-logotype-design-5-publicdomainvectors.org (2)"
     transform="matrix(1.3333333,0,0,-1.3333333,0,800)"><g
       id="g13855"><g
         id="g13857"
         clip-path="url(#clipPath13861)"><g
           id="g13863"><g
             id="g13865"><g
               id="g13871"><g
                 id="g13873"><path
                   d="m 435.64,202.582 c 0.46,9.893 0.622,19.682 0.574,29.577 -0.558,7.306 -1.626,14.614 -3.281,21.956 -1.281,8.028 -3.923,16.03 -7.973,23.953 -2.4,7.043 -6.277,13.98 -11.58,20.763 -0.913,1.197 -2.153,2.353 -3.527,3.482 -0.244,0.186 -0.504,0.336 -0.878,0.449 -0.36,0.107 -0.762,0.091 -1.074,0.009 -0.878,-0.207 -1.688,-0.452 -2.483,-0.794 -11.045,-3.467 -18.957,-8.66 -22.351,-14.554 0.328,-2.433 1.713,-4.75 3.989,-6.943 2.535,-3.477 5.034,-6.948 7.341,-10.469 7.306,-10.812 13.082,-21.848 17.383,-33.036 4.145,-10.05 7.241,-20.179 9.292,-30.415 -0.222,-3.967 0.017,-7.943 0.793,-11.892 0.559,-4.885 0.815,-9.813 0.893,-14.769 -0.08,-4.399 -0.4,-8.78 -1.062,-13.205 -0.59,-4.88 -1.86,-9.698 -3.848,-14.524 l 0.028,-0.452 c -10e-4,-0.029 -10e-4,-0.029 0.11,-0.137 0.085,0.067 0.122,0.03 0.17,0.09 0.448,0.121 0.736,0.392 0.92,0.634 5.208,7.775 9.106,15.8 11.641,23.838 2.663,8.765 4.275,17.602 4.923,26.439 m 13.493,106.129 c 7.892,-4.053 14.133,-8.611 18.459,-13.633 6.04,-5.564 10.333,-11.528 12.583,-17.594 0.362,-2.296 0.63,-4.61 0.86,-6.883 0.046,-0.875 0.187,-1.743 0.553,-2.566 0.031,-0.047 0.158,-0.135 0.337,-0.078 0.145,0.048 0.352,0.03 0.367,0.184 5.182,10.498 7.638,21.297 7.334,32.069 0.128,14.619 -3.429,29.213 -10.555,43.508 -2.153,2.353 -56.184,-1.188 -56.512,-1.406 -0.186,-0.198 0,0 0,0 0.036,-0.165 -0.134,-0.229 -0.207,-0.36 -0.038,-0.038 -0.232,-0.143 -0.464,-0.171 -1.054,-0.132 -2.17,-0.245 -3.335,-0.272 -19.436,-0.483 -38.135,-3.126 -54.854,-7.51 -16.023,-4.218 -29.135,-10.354 -37.745,-17.809 -0.474,-0.572 -0.275,-1.211 0.363,-1.742 5.879,-5.716 11.844,-11.308 17.901,-16.894 1.135,-1.137 2.23,-2.267 3.005,-3.37 2.725,-3.18 4.993,-6.518 6.948,-9.818 0.456,-1.255 1.214,-2.468 2.224,-3.693 0.314,-0.415 0.75,-0.768 1.345,-1.097 0.118,-0.053 0.253,-0.146 0.511,-0.18 0.14,-0.006 0.247,0.002 0.403,0.043 0.383,0.059 0.638,0.171 0.704,0.38 0.248,0.382 0.419,0.881 0.497,1.244 0.813,3.876 2.828,7.536 5.946,11.067 3.691,3.986 8.304,7.778 13.797,11.278 6.573,4.334 15.067,7.98 24.956,10.717 5.056,0.676 10.136,1.267 15.205,1.79 11.612,-0.287 22.412,-2.887 29.374,-7.204 m 32.099,71.525 c -8.336,5.346 -16.736,10.377 -25.327,15.286 -6.609,3.165 -13.467,5.906 -20.656,8.139 -7.593,2.903 -15.846,4.614 -24.734,5.074 -7.302,1.438 -15.241,1.552 -23.765,0.346 -1.492,-0.186 -3.124,-0.687 -4.778,-1.306 -0.29,-0.124 -0.547,-0.266 -0.837,-0.537 -0.272,-0.248 -0.454,-0.611 -0.534,-0.929 -0.268,-0.866 -0.455,-1.69 -0.558,-2.549 -2.522,-11.296 -1.982,-20.749 1.427,-26.626 2.273,-0.935 4.977,-0.896 8.006,-0.022 4.282,0.452 8.527,0.885 12.731,1.122 13.026,0.922 25.485,0.41 37.316,-1.462 10.778,-1.433 21.083,-3.823 30.979,-7.155 3.33,-2.185 6.89,-3.968 10.693,-5.262 4.509,-1.952 8.908,-4.203 13.24,-6.621 3.763,-2.264 7.393,-4.728 10.902,-7.514 3.93,-2.957 7.471,-6.462 10.651,-10.59 l 0.408,-0.206 c 0.033,-0.019 0.033,-0.019 0.177,0.028 -0.015,0.098 0.036,0.111 0.015,0.181 0.102,0.451 0.025,0.847 -0.094,1.119 -4.133,8.409 -9.135,15.79 -14.831,22 -6.26,6.696 -13.102,12.504 -20.431,17.484 m -85.18,64.747 c 7.463,4.813 14.531,7.939 21.045,9.172 7.843,2.448 15.155,3.191 21.533,2.097 2.171,-0.833 4.308,-1.748 6.391,-2.688 0.78,-0.392 1.596,-0.719 2.505,-0.808 0.053,0.013 0.186,0.068 0.239,0.257 0.023,0.145 0.135,0.314 0.015,0.411 -6.498,9.734 -14.623,17.261 -24.109,22.382 -12.589,7.424 -27.005,11.634 -42.958,12.609 -3.106,-0.684 -27.062,-49.249 -27.04,-49.641 0.097,-0.26 0,0 0,0 0.171,-0.055 0.127,-0.233 0.215,-0.358 0.013,-0.052 0.008,-0.266 -0.081,-0.493 -0.416,-0.97 -0.879,-1.998 -1.438,-3.017 -9.292,-17.076 -16.357,-34.592 -20.921,-51.255 -4.359,-15.989 -5.602,-30.417 -3.443,-41.607 0.255,-0.689 0.897,-0.84 1.679,-0.548 7.893,2.229 15.718,4.599 23.587,7.062 1.541,0.42 3.078,0.785 4.418,0.913 4.121,0.767 8.133,1.056 11.982,1.104 1.308,-0.231 2.736,-0.183 4.301,0.079 0.518,0.065 1.046,0.27 1.626,0.619 0.112,0.066 0.259,0.142 0.423,0.354 0.07,0.12 0.109,0.214 0.17,0.368 0.134,0.359 0.152,0.641 0.008,0.797 -0.2,0.407 -0.556,0.802 -0.83,1.062 -2.949,2.639 -5.113,6.208 -6.609,10.673 -1.603,5.198 -2.585,11.085 -2.863,17.589 -0.468,7.864 0.608,17.037 3.191,26.974 1.941,4.721 3.967,9.41 6.049,14.066 6.063,9.905 13.71,17.963 20.915,21.827 m -45.881,63.567 c -8.795,-4.547 -17.362,-9.303 -25.902,-14.291 -6.051,-4.139 -11.849,-8.717 -17.377,-13.816 -6.315,-5.124 -11.92,-11.416 -16.75,-18.886 -4.904,-5.604 -8.974,-12.418 -12.178,-20.406 -0.599,-1.389 -0.978,-3.05 -1.274,-4.802 -0.03,-0.303 -0.032,-0.608 0.059,-0.982 0.067,-0.36 0.302,-0.713 0.524,-0.931 0.622,-0.664 1.237,-1.24 1.93,-1.757 8.53,-7.832 16.975,-12.089 23.781,-12.089 1.941,1.518 3.254,3.863 4.013,6.937 1.746,3.932 3.505,7.828 5.4,11.585 5.711,11.743 12.382,22.272 19.918,31.573 6.627,8.615 13.849,16.365 21.698,23.255 3.546,1.798 6.866,3.989 9.901,6.637 3.947,2.922 8.086,5.615 12.34,8.157 3.852,2.127 7.804,4.043 11.974,5.683 4.508,1.927 9.32,3.241 14.502,3.934 l 0.378,0.247 c 0.022,0.016 0.022,0.016 0.066,0.165 -0.11,0.036 -0.097,0.087 -0.157,0.107 -0.343,0.314 -0.725,0.433 -1.024,0.473 -9.337,0.618 -18.226,-0.011 -26.467,-1.837 -8.914,-2.075 -17.38,-5.096 -25.355,-8.956 m -98.654,-41.393 c -0.442,8.869 0.387,16.554 2.576,22.809 1.791,8.017 4.822,14.721 8.941,19.701 1.807,1.461 3.673,2.846 5.54,4.185 0.73,0.482 1.407,1.023 1.939,1.767 0.025,0.043 0.041,0.194 -0.099,0.333 -0.118,0.098 -0.203,0.277 -0.337,0.223 -11.694,-0.76 -22.261,-4.037 -31.445,-9.689 -12.729,-7.187 -23.587,-17.571 -32.401,-30.9 -0.964,-3.028 29.12,-48.06 29.47,-48.232 0.263,-0.05 0,0 0,0 0.125,0.115 0.271,-0.012 0.415,0.007 0.048,-0.013 0.245,-0.126 0.381,-0.323 0.649,-0.842 1.302,-1.757 1.907,-2.749 10.132,-16.587 21.765,-31.461 33.925,-43.755 11.67,-11.762 23.537,-20.054 34.297,-23.782 0.733,-0.117 1.187,0.364 1.328,1.186 2.015,7.947 3.865,15.914 5.682,23.946 0.403,1.558 0.84,3.069 1.418,4.294 1.394,3.948 3.139,7.572 5.022,10.929 0.865,1.017 1.535,2.276 2.088,3.765 0.207,0.479 0.296,1.038 0.28,1.718 -0.014,0.125 -0.005,0.294 -0.104,0.527 -0.053,0.132 -0.122,0.215 -0.239,0.342 -0.235,0.297 -0.464,0.458 -0.681,0.41 -0.451,0.026 -0.978,-0.079 -1.318,-0.188 -3.759,-1.236 -7.942,-1.327 -12.559,-0.39 -5.31,1.203 -10.886,3.307 -16.668,6.314 -7.046,3.52 -14.445,9.051 -21.754,16.251 -3.114,4.046 -6.166,8.144 -9.155,12.276 -5.562,10.198 -8.715,20.854 -8.449,29.025 m -77.999,-7.962 c -0.452,-9.881 -0.616,-19.67 -0.567,-29.567 0.558,-7.305 1.618,-14.625 3.28,-21.955 1.278,-8.028 3.926,-16.029 7.975,-23.954 2.393,-7.053 6.273,-13.978 11.58,-20.761 0.91,-1.199 2.152,-2.354 3.525,-3.482 0.236,-0.196 0.505,-0.336 0.877,-0.449 0.354,-0.117 0.752,-0.086 1.074,-0.009 0.878,0.207 1.69,0.451 2.485,0.794 11.037,3.457 18.957,8.658 22.353,14.553 -0.337,2.423 -1.726,4.757 -3.991,6.944 -2.537,3.477 -5.034,6.947 -7.342,10.467 -7.305,10.813 -13.093,21.855 -17.384,33.039 -4.144,10.05 -7.239,20.177 -9.292,30.416 0.223,3.967 -0.016,7.938 -0.794,11.888 -0.557,4.886 -0.812,9.813 -0.897,14.759 0.088,4.412 0.403,8.79 1.068,13.216 0.59,4.879 1.849,9.703 3.849,14.524 l -0.029,0.454 c -0.004,0.018 -0.004,0.018 -0.121,0.143 -0.074,-0.076 -0.11,-0.038 -0.16,-0.099 -0.447,-0.118 -0.74,-0.4 -0.919,-0.633 -5.21,-7.775 -9.107,-15.798 -11.646,-23.848 -2.658,-8.754 -4.268,-17.591 -4.924,-26.44 M 160.03,353.078 c -7.896,4.042 -14.133,8.61 -18.457,13.632 -6.042,5.561 -10.339,11.516 -12.6,17.59 -0.346,2.3 -0.631,4.606 -0.844,6.887 -0.047,0.874 -0.193,1.73 -0.56,2.556 -0.037,0.064 -0.162,0.151 -0.34,0.093 -0.145,-0.047 -0.343,-0.035 -0.357,-0.187 -5.195,-10.495 -7.637,-21.297 -7.341,-32.082 -0.129,-14.618 3.437,-29.199 10.564,-43.496 2.141,-2.348 56.17,1.194 56.51,1.406 0.176,0.203 0,0 0,0 -0.035,0.165 0.127,0.218 0.203,0.349 0.037,0.038 0.224,0.161 0.469,0.18 1.053,0.135 2.168,0.247 3.334,0.273 19.434,0.483 38.133,3.125 54.851,7.511 16.025,4.218 29.13,10.343 37.747,17.81 0.47,0.558 0.278,1.21 -0.363,1.741 -5.889,5.722 -11.844,11.307 -17.899,16.893 -1.14,1.127 -2.249,2.263 -3.013,3.36 -2.718,3.19 -4.986,6.528 -6.941,9.829 -0.455,1.255 -1.22,2.453 -2.23,3.681 -0.314,0.414 -0.745,0.78 -1.351,1.116 -0.105,0.046 -0.248,0.128 -0.516,0.168 -0.124,0.013 -0.232,0.003 -0.398,-0.033 -0.382,-0.056 -0.644,-0.182 -0.691,-0.388 -0.249,-0.381 -0.42,-0.879 -0.51,-1.235 -0.807,-3.893 -2.815,-7.542 -5.934,-11.073 -3.693,-3.988 -8.309,-7.789 -13.796,-11.279 -6.573,-4.333 -15.067,-7.98 -24.957,-10.715 -5.055,-0.677 -10.135,-1.267 -15.204,-1.79 -11.614,0.285 -22.412,2.884 -29.376,7.203 m -32.099,-71.522 c 8.336,-5.349 16.731,-10.392 25.328,-15.29 6.604,-3.177 13.466,-5.904 20.658,-8.141 7.585,-2.912 15.844,-4.611 24.733,-5.071 7.296,-1.449 15.239,-1.553 23.754,-0.339 1.502,0.181 3.128,0.671 4.788,1.3 0.285,0.112 0.547,0.264 0.835,0.536 0.276,0.247 0.456,0.613 0.536,0.926 0.261,0.855 0.454,1.693 0.559,2.552 2.521,11.296 1.974,20.738 -1.428,26.627 -2.273,0.933 -4.977,0.894 -8.005,0.022 -4.291,-0.465 -8.545,-0.891 -12.738,-1.134 -13.02,-0.911 -25.479,-0.399 -37.311,1.474 -10.774,1.433 -21.09,3.811 -30.991,7.16 -3.316,2.18 -6.883,3.952 -10.69,5.26 -4.511,1.954 -8.897,4.199 -13.234,6.604 -3.776,2.271 -7.408,4.737 -10.898,7.525 -3.937,2.947 -7.472,6.465 -10.664,10.599 l -0.406,0.204 c -0.022,0.013 -0.022,0.013 -0.166,-0.034 0.011,-0.108 -0.041,-0.122 -0.017,-0.18 -0.1,-0.45 -0.022,-0.847 0.097,-1.12 4.13,-8.409 9.135,-15.789 14.823,-22.009 6.266,-6.684 13.111,-12.496 20.437,-17.471 m 85.164,-64.757 c -7.444,-4.807 -14.52,-7.943 -21.034,-9.177 -7.844,-2.447 -15.148,-3.181 -21.534,-2.096 -2.172,0.833 -4.303,1.757 -6.383,2.7 -0.79,0.398 -1.595,0.718 -2.507,0.805 -0.053,-0.01 -0.19,-0.077 -0.241,-0.264 -0.021,-0.136 -0.139,-0.316 -0.014,-0.403 6.5,-9.737 14.627,-17.26 24.097,-22.386 12.602,-7.419 27.018,-11.63 42.966,-12.616 3.112,0.694 27.062,49.248 27.029,49.646 -0.086,0.257 0,0 0,0 -0.161,0.051 -0.11,0.241 -0.198,0.365 -0.015,0.049 -0.019,0.272 0.074,0.483 0.422,0.981 0.879,1.998 1.446,3.024 9.289,17.078 16.349,34.583 20.918,51.256 4.362,15.991 5.599,30.407 3.44,41.597 -0.252,0.699 -0.911,0.846 -1.691,0.555 -7.882,-2.235 -15.708,-4.605 -23.569,-7.057 -1.552,-0.415 -3.085,-0.796 -4.421,-0.913 -4.116,-0.768 -8.132,-1.056 -11.979,-1.106 -1.31,0.232 -2.744,0.174 -4.319,-0.083 -0.507,-0.07 -1.029,-0.264 -1.626,-0.619 -0.101,-0.074 -0.241,-0.138 -0.406,-0.348 -0.07,-0.12 -0.116,-0.225 -0.178,-0.38 -0.126,-0.348 -0.155,-0.622 -0.007,-0.796 0.209,-0.397 0.556,-0.803 0.834,-1.051 2.951,-2.639 5.108,-6.22 6.607,-10.685 1.608,-5.187 2.591,-11.076 2.868,-17.577 0.467,-7.864 -0.626,-17.042 -3.191,-26.972 -1.942,-4.722 -3.969,-9.413 -6.059,-14.065 -6.052,-9.909 -13.7,-17.967 -20.922,-21.837 m 45.898,-63.563 c 8.797,4.552 17.344,9.3 25.903,14.293 6.044,4.13 11.84,8.706 17.365,13.823 6.315,5.123 11.92,11.415 16.76,18.88 4.898,5.593 8.973,12.418 12.179,20.407 0.598,1.387 0.97,3.04 1.268,4.79 0.037,0.312 0.031,0.61 -0.051,0.992 -0.081,0.366 -0.31,0.701 -0.528,0.932 -0.627,0.653 -1.237,1.238 -1.929,1.755 -8.531,7.836 -16.974,12.088 -23.788,12.08 -1.943,-1.501 -3.252,-3.864 -4.015,-6.921 -1.738,-3.939 -3.5,-7.845 -5.397,-11.6 -5.703,-11.734 -12.375,-22.264 -19.915,-31.573 -6.63,-8.617 -13.857,-16.348 -21.699,-23.258 -3.541,-1.787 -6.861,-3.977 -9.895,-6.624 -3.954,-2.935 -8.097,-5.608 -12.346,-8.169 -3.847,-2.117 -7.804,-4.042 -11.968,-5.673 -4.517,-1.937 -9.322,-3.239 -14.503,-3.933 l -0.378,-0.248 c -0.024,-0.014 -0.024,-0.014 -0.066,-0.165 0.104,-0.045 0.09,-0.095 0.157,-0.106 0.332,-0.307 0.719,-0.445 1.024,-0.474 9.33,-0.627 18.227,0.014 26.457,1.843 8.923,2.071 17.379,5.098 25.365,8.949 m 98.654,41.394 c 0.43,-8.861 -0.394,-16.564 -2.581,-22.818 -1.794,-8.018 -4.817,-14.709 -8.936,-19.691 -1.809,-1.461 -3.678,-2.856 -5.54,-4.184 -0.731,-0.483 -1.407,-1.025 -1.939,-1.766 -0.03,-0.053 -0.046,-0.207 0.092,-0.345 0.125,-0.088 0.202,-0.277 0.343,-0.216 11.694,0.764 22.263,4.038 31.446,9.69 12.718,7.195 23.587,17.572 32.394,30.89 0.971,3.041 -29.117,48.064 -29.469,48.236 -0.263,0.05 0,0 0,0 -0.12,-0.108 -0.266,0.019 -0.417,0.007 -0.052,0.015 -0.237,0.121 -0.372,0.32 -0.651,0.838 -1.301,1.756 -1.909,2.747 -10.13,16.585 -21.775,31.469 -33.934,43.747 -11.658,11.769 -23.535,20.049 -34.293,23.778 -0.726,0.129 -1.185,-0.363 -1.32,-1.174 -2.02,-7.958 -3.884,-15.919 -5.688,-23.955 -0.4,-1.548 -0.842,-3.073 -1.415,-4.286 -1.392,-3.948 -3.15,-7.567 -5.032,-10.925 -0.854,-1.018 -1.524,-2.281 -2.084,-3.78 -0.2,-0.467 -0.288,-1.029 -0.273,-1.707 0.009,-0.136 0.004,-0.296 0.097,-0.536 0.06,-0.124 0.129,-0.207 0.238,-0.345 0.244,-0.285 0.471,-0.444 0.689,-0.395 0.45,-0.028 0.961,0.072 1.319,0.184 3.762,1.238 7.939,1.328 12.557,0.391 5.303,-1.213 10.887,-3.305 16.669,-6.314 7.029,-3.526 14.44,-9.062 21.755,-16.252 3.112,-4.044 6.166,-8.143 9.154,-12.273 5.56,-10.202 8.702,-20.847 8.449,-29.028"
                   style="fill:url(#linearGradient13881);stroke:none"
                   id="path13883"
                   inkscape:connector-curvature="0" /></g></g></g></g></g></g></g></svg>