<?xml version="1.0" encoding="UTF-8" standalone="no"?>
<!-- Created with Inkscape (http://www.inkscape.org/) -->

<svg
   xmlns:dc="http://purl.org/dc/elements/1.1/"
   xmlns:cc="http://creativecommons.org/ns#"
   xmlns:rdf="http://www.w3.org/1999/02/22-rdf-syntax-ns#"
   xmlns:svg="http://www.w3.org/2000/svg"
   xmlns="http://www.w3.org/2000/svg"
   xmlns:sodipodi="http://sodipodi.sourceforge.net/DTD/sodipodi-0.dtd"
   xmlns:inkscape="http://www.inkscape.org/namespaces/inkscape"
   version="1.1"
   id="svg32269"
   xml:space="preserve"
   width="800"
   height="800"
   viewBox="0 0 800 800"
   sodipodi:docname="Lebanon-flag-crest-eagle-publicdomainvectors.org.svg"
   inkscape:version="0.92.4 (5da689c313, 2019-01-14)"><metadata
     id="metadata32275"><rdf:RDF><cc:Work
         rdf:about=""><dc:format>image/svg+xml</dc:format><dc:type
           rdf:resource="http://purl.org/dc/dcmitype/StillImage" /><dc:title></dc:title></cc:Work></rdf:RDF></metadata><defs
     id="defs32273"><clipPath
       clipPathUnits="userSpaceOnUse"
       id="clipPath32285"><path
         d="M 0,600 H 600 V 0 H 0 Z"
         id="path32283"
         inkscape:connector-curvature="0" /></clipPath></defs><sodipodi:namedview
     pagecolor="#ffffff"
     bordercolor="#666666"
     borderopacity="1"
     objecttolerance="10"
     gridtolerance="10"
     guidetolerance="10"
     inkscape:pageopacity="0"
     inkscape:pageshadow="2"
     inkscape:window-width="797"
     inkscape:window-height="480"
     id="namedview32271"
     showgrid="false"
     inkscape:zoom="0.295"
     inkscape:cx="400"
     inkscape:cy="400"
     inkscape:window-x="0"
     inkscape:window-y="0"
     inkscape:window-maximized="0"
     inkscape:current-layer="g32277" /><g
     id="g32277"
     inkscape:groupmode="layer"
     inkscape:label="Lebanon-flag-crest-eagle-publicdomainvectors.org"
     transform="matrix(1.3333333,0,0,-1.3333333,0,800)"><g
       id="g32279"><g
         id="g32281"
         clip-path="url(#clipPath32285)"><path
           d="m 191.936,160.018 c 10.716,7.714 38.099,32.574 51.586,44.955 h -28.764 c -10.953,-18.147 -20.352,-34.76 -22.822,-44.955"
           style="fill:#ec1e27;fill-opacity:1;fill-rule:nonzero;stroke:none"
           id="path32289"
           inkscape:connector-curvature="0" /><path
           d="m 168.201,198.227 c 10.415,-5.791 16.207,3.472 16.207,3.472 3.594,0 7.964,1.115 10.903,3.274 h -15.126 c 0.382,-3.446 -9.219,-8.121 -11.984,-6.746"
           style="fill:#ec1e27;fill-opacity:1;fill-rule:nonzero;stroke:none"
           id="path32291"
           inkscape:connector-curvature="0" /><path
           d="m 341.293,466.838 c 0,0 7.527,0 10.419,-3.474 -4.056,12.157 -25.474,50.365 -30.102,55.862 l 9.258,-1.591 c -22.572,29.135 -82.057,39.51 -82.493,22.433 -21.416,3.184 -36.758,0.866 -35.023,-13.894 1.53,-12.99 12.236,-15.893 13.602,-16.204 -4.329,9.553 21.413,25.251 37.038,-5.425 0,0 -18.222,-1.237 -30.378,0 -0.435,-4.405 18.958,-5.29 27.787,-8.628 3.04,-6.501 -0.867,-37.33 -28.363,-53.973 18.206,4.751 21.736,-2.284 22.218,-3.565 h 105.527 c -5.533,7.759 -15.766,22.249 -19.49,28.459"
           style="fill:#ec1e27;fill-opacity:1;fill-rule:nonzero;stroke:none"
           id="path32293"
           inkscape:connector-curvature="0" /><path
           d="m 448.975,537.331 c -21.031,19.051 -56.015,4.917 -42.986,-26.92 16.494,-40.324 6.223,-61.656 -9.849,-72.032 h 94.768 c -1.167,3.296 -1.735,6.22 -1.554,8.645 0,0 4.055,-3.658 10.567,-8.645 h 29.45 c -28.052,31.222 -55.993,76.84 -80.396,98.952"
           style="fill:#ec1e27;fill-opacity:1;fill-rule:nonzero;stroke:none"
           id="path32295"
           inkscape:connector-curvature="0" /><path
           d="m 199.748,515.465 c 13.025,31.841 -21.958,45.971 -42.984,26.919 C 131.008,519.05 101.313,469.526 71.704,438.379 H 98.96 c 10.404,7.359 17.429,13.694 17.429,13.694 0.267,-3.602 -1.101,-8.293 -3.665,-13.694 h 108.158 c -21.516,7.129 -41.252,27.911 -21.134,77.086"
           style="fill:#ec1e27;fill-opacity:1;fill-rule:nonzero;stroke:none"
           id="path32297"
           inkscape:connector-curvature="0" /><path
           d="m 413.804,154.963 c -2.701,11.137 -13.664,29.926 -25.89,50.01 h -31.19 c 9.266,-8.561 44.554,-40.994 57.08,-50.01"
           style="fill:#ec1e27;fill-opacity:1;fill-rule:nonzero;stroke:none"
           id="path32299"
           inkscape:connector-curvature="0" /><path
           d="m 232.454,133.969 c 15.525,8.33 39.513,50.072 55.58,56.15 0,0 9.048,-88.859 14.836,-95.808 12.734,24.312 19.896,93.494 19.896,93.494 0,0 35.314,-37.631 52.833,-49.049 -1.211,18.113 -23.107,45.328 -21.385,66.217 H 251.596 c -1.042,-21.774 -18.028,-54.231 -19.142,-71.004"
           style="fill:#ec1e27;fill-opacity:1;fill-rule:nonzero;stroke:none"
           id="path32301"
           inkscape:connector-curvature="0" /><path
           d="m 421.331,196.645 c 0,0 5.787,-9.262 16.205,-3.475 -2.891,-1.445 -13.314,3.766 -11.869,7.234 0,0 2.129,2.174 3.017,4.569 h -21.526 c 0.632,-5.461 8.403,-8.328 14.173,-8.328"
           style="fill:#ec1e27;fill-opacity:1;fill-rule:nonzero;stroke:none"
           id="path32303"
           inkscape:connector-curvature="0" /><path
           d="m 561.421,410.989 c -10.571,5.606 -21.319,15.447 -32.05,27.39 h -29.45 c 14.293,-10.944 40.425,-28.287 61.5,-27.39"
           style="fill:#ffffff;fill-opacity:1;fill-rule:nonzero;stroke:none"
           id="path32305"
           inkscape:connector-curvature="0" /><path
           d="m 350.553,432.681 c -6.364,4.631 1.159,5.211 13.898,0.578 0,0 -1.462,2.027 -3.668,5.12 H 255.256 c 0.048,-0.124 0.066,-0.196 0.066,-0.196 -4.229,-3.173 -19.75,-4.671 -34.44,0.196 H 112.724 C 98.598,408.633 48.025,357.293 32.59,347.002 c 32.996,2.606 71.64,33.001 71.64,33.001 -10.424,-26.923 -39.509,-75.112 -78.152,-105.94 41.679,9.548 95.952,66.86 95.952,66.86 -11.723,-37.338 -37.772,-66.86 -37.772,-66.86 19.972,-6.079 78.153,73.811 78.153,73.811 1.735,-18.235 -16.791,-55.579 -28.366,-70.337 41.681,19.43 73.517,83.362 73.517,83.362 0,0 3.185,-24.314 -17.948,-53.839 17.372,-1.733 43.565,32.563 48.777,64.256 8.83,-17.366 11.988,-38.841 0.726,-47.181 -28.95,-21.416 -29.283,-71.358 -40.89,-68.899 -6.657,0.293 -0.509,29.248 -5.715,37.67 -2.084,3.367 -8.685,2.864 -14.762,-0.029 -4.34,0.582 -14.37,-5.051 -9.448,-10.842 -2.024,2.319 4.852,6.572 8.867,5.049 0,0 -1.049,-3.58 0.981,-7.053 2.027,-3.472 7.994,-2.783 10.024,-3.941 2.017,-1.16 0.286,-15.922 -2.32,-19.975 -4.916,1.739 -17.361,19.975 -20.262,22.869 -3.177,3.176 -11.865,-0.867 -10.42,-11 -2.895,-2.605 -13.024,-9.263 -4.341,-18.816 -3.471,3.762 2.896,12.736 6.077,12.736 2.321,-3.759 7.233,-7.523 8.684,-6.369 1.45,1.158 13.894,9.842 13.024,-6.367 -5.567,-1.375 -26.845,0.473 -27.93,-3.436 -1.086,-3.908 0,-10.962 0,-10.962 -4.992,-1.956 -4.992,-17.801 3.69,-19.538 -1.95,4.125 -1.95,10.852 -0.218,14.545 5.212,-3.908 10.423,-1.959 11.724,0.432 -1.736,4.123 6.016,19.637 18.02,0.434 2.531,-4.051 2.39,-10.274 -5.716,-15.92 -4.281,-2.979 1.881,-9.262 1.881,-9.262 0.066,-0.16 0.1,-0.322 0.118,-0.488 h 15.126 c 1.797,1.32 3.062,3.031 3.283,5.119 -2.606,6.949 -5.037,19.9 1.154,30.972 10.999,19.682 47.473,28.657 57.891,48.627 1.865,-13.984 -23.055,-51.867 -42.881,-84.718 h 28.764 c 4.725,4.336 7.749,7.146 7.749,7.146 0.363,-2.207 0.445,-4.607 0.325,-7.146 h 102.618 c 0.057,0.705 0.14,1.4 0.253,2.09 0,0 0.817,-0.76 2.257,-2.09 h 31.19 c -19.231,31.593 -41.586,66.392 -39.815,79.666 10.422,-19.973 46.891,-28.948 57.89,-48.629 6.187,-11.078 3.763,-24.028 1.157,-30.977 10e-4,-0.019 0.009,-0.039 0.012,-0.06 h 21.526 c 0.621,1.679 0.633,3.466 -1.13,4.693 -8.11,5.65 -8.253,11.867 -5.719,15.924 12.006,19.201 19.753,3.691 18.018,-0.434 1.299,-2.388 6.516,-4.343 11.722,-0.435 1.737,-3.692 1.737,-10.418 -0.218,-14.543 8.683,1.734 8.683,17.584 3.691,19.539 0,0 1.085,7.054 0,10.961 -1.081,3.908 -22.358,2.062 -27.93,3.431 -0.866,16.211 11.578,7.53 13.029,6.371 1.446,-1.15 6.363,2.606 8.678,6.37 3.186,0 9.554,-8.975 6.081,-12.741 8.684,9.553 -1.449,16.215 -4.341,18.821 1.446,10.127 -7.246,14.177 -10.418,10.998 -2.901,-2.901 -15.345,-21.133 -20.262,-22.867 -2.612,4.054 -4.343,18.808 -2.316,19.966 2.022,1.162 7.997,0.477 10.018,3.952 2.03,3.472 0.976,7.054 0.976,7.054 4.017,1.52 10.899,-2.734 8.876,-5.053 4.917,5.791 -5.11,11.424 -9.453,10.84 -6.076,2.899 -12.676,3.399 -14.764,0.028 -5.206,-8.42 0.942,-37.373 -5.716,-37.664 -11.597,-2.461 -11.94,47.48 -40.884,68.901 -11.267,8.334 -8.103,29.813 0.725,47.182 5.212,-31.696 31.406,-66 48.77,-64.263 -21.13,29.53 -17.945,53.843 -17.945,53.843 0,0 31.842,-63.937 73.522,-83.367 -11.577,14.764 -30.106,52.104 -28.365,70.34 0,0 58.174,-79.89 78.151,-73.81 0,0 -26.053,29.523 -37.773,66.863 0,0 54.27,-57.314 95.948,-66.863 -38.636,30.824 -67.728,79.025 -78.152,105.941 0,0 38.644,-30.394 71.646,-32.997 -16.35,10.895 -72.131,67.859 -82.241,96.425 H 396.14 c -16.911,-10.917 -40.244,-9.704 -45.587,-5.698"
           style="fill:#ffffff;fill-opacity:1;fill-rule:nonzero;stroke:none"
           id="path32307"
           inkscape:connector-curvature="0" /><path
           d="m 44.313,416.038 c 18.045,-0.765 39.792,11.833 54.647,22.341 H 71.704 C 62.525,428.724 53.355,420.833 44.313,416.038"
           style="fill:#ffffff;fill-opacity:1;fill-rule:nonzero;stroke:none"
           id="path32309"
           inkscape:connector-curvature="0" /><path
           d="m 285.391,307.888 c 0.285,0.029 0.732,-0.047 1.352,-0.143 1.24,-0.196 2.381,-1.227 2.572,-2.327 0.231,-1.338 0.103,-2.27 -0.221,-2.757 -0.026,-0.036 -0.065,-0.091 -0.093,-0.122 -0.032,-0.035 -0.076,-0.074 -0.111,-0.102 -0.014,-0.011 -0.042,-0.031 -0.055,-0.041 -0.065,-0.041 -0.15,-0.082 -0.223,-0.102 -0.032,-0.008 -0.079,-0.017 -0.111,-0.021 -0.056,-0.004 -0.128,-0.006 -0.186,0 -0.643,0.082 -1.476,0.881 -2.202,2.431 -0.838,1.785 -1.222,2.63 -1.074,2.98 0.012,0.024 0.036,0.062 0.055,0.081 0.064,0.064 0.161,0.11 0.297,0.123 m 9.683,1.735 c 1.576,0.049 5.391,-0.83 5.889,-1.43 10e-4,-0.002 0.015,-0.016 0.018,-0.02 0.001,-0.004 0.016,-0.017 0.018,-0.02 10e-4,-0.003 -0.002,-0.018 0,-0.02 10e-4,-0.004 0.019,-0.018 0.019,-0.021 v -0.02 -0.021 -0.02 c -0.049,-0.407 -1.07,-2.063 -2.295,-3.717 l -2.259,-3.041 -1.186,3.919 c -0.585,1.955 -0.946,3.716 -0.871,4.165 0.001,0.004 0,0.018 0,0.022 0.002,0.006 0.017,0.015 0.019,0.019 0.001,0.003 0,0.019 0,0.021 0.002,0.004 0.015,0.017 0.018,0.019 0.005,0.006 0.013,0.017 0.019,0.022 0.004,0.003 0.016,0.018 0.018,0.02 0.004,0.002 0.015,-0.002 0.019,0 0.003,0.002 0.015,0.019 0.019,0.021 0.006,0.004 0.029,0.018 0.037,0.02 0.117,0.045 0.298,0.075 0.518,0.082 m -19.905,1.49 c 0.177,0.011 0.388,0 0.611,0 2.616,0 4.056,-2.152 4.056,-6.064 0,-5.255 -3.205,-4.834 -4.685,0.614 -1.289,4.742 -1.418,5.37 0.018,5.45 m 69.64,4.247 c 0.066,0.007 0.14,0 0.203,0 0.561,0.002 1.859,-0.66 2.888,-1.49 1.835,-1.48 1.829,-1.579 -0.462,-4.267 -1.186,-1.394 -2.396,-2.484 -2.816,-2.573 h -0.018 -0.018 -0.02 -0.017 c -0.306,0.094 -1.979,0.356 -3.702,0.593 -1.919,0.261 -3.13,1.035 -3.13,1.98 0,0.041 0.011,0.097 0.019,0.142 0.303,1.59 5.052,5.367 7.073,5.615 m -13.85,3 c 3.801,0.168 5.853,-2.402 1.722,-5.593 -2.659,-2.053 -6.562,-2.136 -8.982,-0.184 -1.741,1.404 -1.651,1.604 1.52,3.736 2.004,1.348 4.042,1.967 5.74,2.041 m -65.657,9.555 c 1.417,0.002 2.661,-0.077 3.479,-0.246 1.353,-0.28 2.251,-0.666 2.685,-1.123 0.092,-0.099 0.174,-0.219 0.222,-0.326 0.023,-0.054 0.043,-0.128 0.056,-0.183 0.022,-0.114 0.021,-0.248 0,-0.369 -0.162,-0.828 -1.35,-1.838 -3.556,-3 -1.827,-0.963 -4.921,-2.076 -6.887,-2.45 -3.265,-0.622 -3.713,-0.39 -5.073,2.51 -0.807,1.721 -1.46,3.358 -1.482,3.676 v 0.02 c 0.002,0.008 -0.003,0.034 0,0.04 0.002,0.005 0.017,0.017 0.019,0.022 0.004,0.007 0.012,0.031 0.017,0.04 0.005,0.005 0.016,0.016 0.019,0.02 0.682,0.706 6.338,1.364 10.501,1.369 m 42.326,4.247 c 0.714,0.096 1.685,-0.974 1.926,-2.778 0.139,-1.052 -0.005,-1.949 -0.334,-2.224 -0.002,-0.004 -0.015,-0.02 -0.019,-0.021 -0.009,-0.008 -0.026,-0.015 -0.036,-0.02 -0.014,-0.008 -0.042,-0.016 -0.055,-0.022 -0.005,-10e-4 -0.016,-0.018 -0.018,-0.019 -0.005,-10e-4 -0.017,0.001 -0.02,0 -0.007,-0.002 -0.03,0.001 -0.037,0 h -0.018 -0.019 c -1.378,0 -2.166,1.241 -2.166,3.45 0,1.055 0.353,1.572 0.796,1.634 m -6.74,4 c 0.377,0.033 0.768,-0.336 1.426,-1.061 0.825,-0.911 1.795,-2.654 2.148,-3.88 0.847,-2.945 -0.491,-4.175 -3.111,-2.837 -2.812,1.436 -3.497,3.708 -1.871,6.267 0.622,0.976 1.006,1.476 1.408,1.511 m -19.313,0.409 c 0.818,0.11 2.158,-0.433 3.499,-1.552 0.914,-0.761 1.292,-1.499 1.279,-2.043 -0.002,-0.049 -0.009,-0.115 -0.019,-0.162 -0.005,-0.029 -0.009,-0.074 -0.018,-0.102 -0.008,-0.022 -0.029,-0.06 -0.037,-0.083 -0.013,-0.03 -0.04,-0.072 -0.055,-0.101 -0.006,-0.009 -0.012,-0.031 -0.019,-0.04 -0.007,-0.009 -0.031,-0.032 -0.037,-0.042 -0.03,-0.038 -0.074,-0.088 -0.11,-0.122 -0.011,-0.008 -0.03,-0.033 -0.038,-0.04 -0.558,-0.433 -1.741,-0.33 -3.092,0.714 -1.117,0.863 -2.046,1.991 -2.13,2.571 -10e-4,0.011 0.002,0.032 0,0.042 v 0.041 c 0,0.553 0.289,0.851 0.777,0.919 m 12.148,2.204 c 0.071,0.005 0.147,0 0.221,0 0.163,0 0.315,-0.034 0.445,-0.082 0.081,-0.031 0.173,-0.072 0.241,-0.122 0.018,-0.015 0.057,-0.045 0.073,-0.062 0.011,-0.008 0.029,-0.031 0.038,-0.041 0.008,-0.009 0.028,-0.031 0.036,-0.04 0.009,-0.01 0.031,-0.031 0.037,-0.042 0.295,-0.379 0.398,-1.026 0.279,-1.918 -0.383,-2.864 -2.28,-3.705 -3.093,-1.367 -0.726,2.086 -0.02,3.562 1.723,3.674 m 36.346,5.206 c 1.926,0.155 3.893,-1.201 3.611,-3.39 -0.359,-2.778 -3.394,-3.582 -5.889,-1.572 -1.489,1.202 -1.543,1.647 -0.388,3.391 0.661,0.997 1.658,1.489 2.666,1.571 m -64.028,10.023 c 1.734,0.047 2.803,-0.772 4.185,-3.144 l 1.945,-3.348 -2.909,-1.122 c -2.653,-1.02 -3.099,-0.828 -5.295,2.267 -1.383,1.949 -1.914,3.242 -1.536,4.061 0.034,0.073 0.08,0.159 0.129,0.225 0.012,0.015 0.042,0.045 0.056,0.06 0.013,0.016 0.04,0.047 0.055,0.062 0.496,0.497 1.495,0.767 3.018,0.897 0.123,0.012 0.235,0.039 0.352,0.042 m 10.702,1.797 h 0.186 c 4.064,0 4.626,-0.707 2.648,-3.307 -0.663,-0.872 -1.924,-2.2 -2.815,-2.941 -1.363,-1.131 -1.781,-1.011 -2.649,0.777 -1.032,2.128 -1.353,3.526 -0.85,4.369 0.464,0.751 1.606,1.083 3.48,1.102 m 41.439,0.735 c 1.051,0.055 2.189,-0.149 3.296,-0.613 2.009,-0.842 2.4,-1.573 2.018,-3.777 -0.518,-2.992 -2.154,-3.328 -7.739,-1.551 -2.745,0.873 -3.028,1.293 -2.148,3.103 0.837,1.727 2.567,2.731 4.573,2.838 m -18.719,2.449 c 0.054,0.005 0.101,0 0.147,0 2.224,0 2.584,-1.958 0.574,-3.144 -0.926,-0.547 -1.828,-0.956 -2.129,-1 -0.01,-0.001 -0.029,-0.02 -0.036,-0.02 -0.008,0 -0.033,0.019 -0.038,0.02 -0.168,0.059 -1.395,0.453 -2.721,0.899 l -2.408,0.816 2.722,1.226 c 1.4,0.625 3.081,1.14 3.889,1.203 m 8.683,0.49 c 1.107,0.134 1.81,-1.08 1.426,-3.308 -0.215,-1.239 -1.321,-2.094 -2.98,-2.306 -1.271,-0.16 -2.054,-0.105 -2.353,0.245 -0.003,0.004 -0.016,0.018 -0.018,0.02 -0.013,0.018 -0.027,0.042 -0.038,0.062 -0.003,0.008 -0.015,0.033 -0.018,0.041 -0.002,0.004 -0.017,0.016 -0.018,0.021 -0.009,0.02 -0.011,0.058 -0.019,0.081 -0.148,0.593 0.463,1.699 1.814,3.492 0.785,1.035 1.562,1.575 2.204,1.652 m -21.83,10.146 c 0.067,0.005 0.141,0 0.204,0 2.324,0 0.874,-4.382 -2.111,-6.39 -2.659,-1.786 -5.485,-2.554 -6.277,-1.857 -0.003,0.003 -0.015,0.017 -0.018,0.02 -0.051,0.052 -0.1,0.118 -0.13,0.185 -0.004,0.007 -0.014,0.031 -0.019,0.041 -0.006,0.013 -0.015,0.046 -0.019,0.06 -0.002,0.01 -0.016,0.03 -0.017,0.041 -0.004,0.016 0.001,0.045 0,0.062 -0.004,0.026 -0.019,0.073 -0.019,0.101 v 0.021 c 0.065,2.394 5.66,7.48 8.406,7.716 m 29.33,5.206 c 1.916,0.063 2.157,-0.842 1.221,-3.532 -0.321,-0.925 -1.656,-1.674 -2.964,-1.674 -1.91,0 -2.32,0.462 -2.072,2.389 0.22,1.714 1.062,2.495 2.963,2.736 0.314,0.039 0.597,0.073 0.852,0.081 m -17.387,0.02 c 1.307,0.102 1.833,-0.671 1.833,-2.326 0,-1.993 -0.763,-2.614 -4.352,-3.532 -2.263,-0.579 -4.34,-0.846 -4.776,-0.634 -0.011,0.006 -0.029,0.015 -0.038,0.021 -0.002,0.002 -0.016,0.019 -0.018,0.02 -1.243,1.37 -0.152,3.128 2.945,4.757 1.992,1.047 3.42,1.618 4.406,1.694 m 7.554,0.633 c 0.024,10e-4 0.033,0 0.055,0 1.506,0 2.518,-0.703 2.723,-1.878 0.255,-1.454 -0.35,-1.857 -2.723,-1.857 -1.333,0 -2.106,0.138 -2.479,0.51 -0.28,0.289 -0.333,0.722 -0.223,1.347 0.202,1.156 1.181,1.857 2.647,1.878 m -25.792,2.654 c 0.116,0.004 0.243,0 0.37,0 0.985,0 1.702,-0.239 1.999,-0.613 0.006,-0.007 0.031,-0.031 0.038,-0.04 0.007,-0.009 0.012,-0.032 0.019,-0.041 0.03,-0.054 0.058,-0.124 0.074,-0.184 0.002,-0.014 0.015,-0.046 0.018,-0.061 0.002,-0.021 -10e-4,-0.06 0,-0.081 0,-0.016 0.001,-0.045 0,-0.062 -0.003,-0.027 -0.013,-0.074 -0.018,-0.101 -0.004,-0.018 -0.014,-0.045 -0.019,-0.062 -0.206,-0.681 -1.317,-1.923 -2.481,-2.776 -0.891,-0.653 -1.422,-1.007 -1.722,-0.96 -0.021,0.004 -0.056,0.012 -0.075,0.02 -0.007,0.005 -0.028,0.015 -0.036,0.021 -0.017,0.013 -0.042,0.045 -0.056,0.061 -0.202,0.246 -0.241,0.91 -0.241,2.083 0,2.146 0.395,2.733 2.13,2.796 m 17.423,29.765 -2.574,-4.287 c -1.415,-2.359 -4.845,-5.898 -7.61,-7.86 -2.766,-1.961 -6.098,-4.882 -7.424,-6.492 l -2.426,-2.919 2.573,0.675 c 1.411,0.371 3.246,0.968 4.092,1.325 0.845,0.358 1.537,0.159 1.537,-0.448 0,-0.017 10e-4,-0.044 0,-0.062 -0.003,-0.034 -0.01,-0.085 -0.018,-0.122 -0.372,-1.512 -4.79,-4.978 -8.295,-6.43 -3.355,-1.392 -8.329,-5.022 -8.981,-6.472 -0.015,-0.036 -0.027,-0.09 -0.036,-0.122 -0.006,-0.017 -0.016,-0.046 -0.018,-0.062 -0.004,-0.016 0,-0.046 0,-0.061 -0.001,-0.005 0,-0.016 0,-0.021 0,-0.004 -0.001,-0.016 0,-0.02 0,-0.004 -0.001,-0.017 0,-0.02 0,-0.005 -0.002,-0.018 0,-0.021 0.003,-0.014 0.011,-0.047 0.018,-0.061 0.004,-0.011 0.012,-0.031 0.018,-0.041 0.002,-0.003 0.016,-0.018 0.018,-0.021 0.006,-0.006 0.013,-0.014 0.019,-0.02 0.004,-0.003 0.017,-0.017 0.017,-0.02 0.014,-0.012 0.042,-0.03 0.056,-0.041 0.394,-0.275 1.474,-0.316 2.723,-0.041 2.188,0.483 3.092,0.183 3.814,-1.306 1.106,-2.279 0.472,-3.308 -2.073,-3.308 -3.079,0 -7.462,-3.091 -8.056,-5.695 -0.396,-1.746 -2.076,-3.171 -5.683,-4.818 -5.89,-2.691 -13.489,-7.83 -14.018,-9.411 -0.012,-0.044 -0.016,-0.105 -0.017,-0.144 0,-2.241 4.96,-2.085 12.146,0.389 1.61,0.555 2.321,-0.011 3.536,-2.777 1.504,-3.424 1.482,-3.507 -2.016,-8.023 -2.445,-3.153 -4.593,-4.778 -6.927,-5.267 -4.649,-0.972 -6.095,-1.917 -12.127,-7.941 -2.888,-2.883 -5.786,-5.268 -6.444,-5.288 -0.258,-0.008 -0.429,-0.046 -0.519,-0.122 -0.003,-0.002 -0.016,-0.018 -0.019,-0.021 -10e-4,-0.003 -0.015,-0.016 -0.018,-0.019 -0.002,-0.004 -0.017,-0.018 -0.018,-0.021 -0.002,-0.004 0.001,-0.017 0,-0.02 -0.002,-0.003 -0.018,-0.018 -0.019,-0.021 0,-0.004 10e-4,-0.017 0,-0.02 0,-0.004 10e-4,-0.017 0,-0.021 v -0.02 -0.041 c 10e-4,-0.004 0,-0.017 0,-0.021 0.004,-0.016 0.013,-0.044 0.019,-0.06 0.003,-0.009 0.014,-0.032 0.018,-0.041 0.005,-0.009 0.014,-0.031 0.018,-0.041 0.486,-0.893 3.671,-2.655 5.462,-2.655 1.313,0 4.508,1.5 7.093,3.329 4.535,3.208 4.759,3.256 6.591,1.428 1.044,-1.042 1.907,-3.061 1.907,-4.47 0,-2.151 -1.155,-3.132 -7.109,-6.165 -4.406,-2.246 -9.582,-6.103 -13.629,-10.147 -5.44,-5.434 -6.982,-6.438 -9.295,-6.063 -1.46,0.236 -2.276,0.334 -2.536,0.184 -0.009,-0.006 -0.03,-0.014 -0.037,-0.02 -0.003,-0.004 -0.016,-0.017 -0.019,-0.021 -0.002,-0.002 -0.016,-0.016 -0.019,-0.02 -0.009,-0.019 -0.016,-0.058 -0.018,-0.082 -0.002,-0.279 0.49,-0.848 1.37,-1.816 0.835,-0.92 2.769,-1.674 4.296,-1.674 4.166,0 17.33,4.906 21.387,7.96 3.764,2.836 7.427,3.383 10.461,1.592 4.695,-2.769 -3.156,-8.349 -17.943,-12.757 -5.439,-1.623 -10.152,-3.201 -10.757,-3.594 -0.009,-0.006 -0.031,-0.014 -0.038,-0.021 -0.001,-0.002 -0.015,-0.016 -0.018,-0.02 -0.002,-0.002 -0.017,-0.018 -0.019,-0.021 -0.002,-0.002 0.002,-0.016 0,-0.02 -0.211,-0.35 0.101,-1.273 0.741,-2.123 1.545,-2.051 9.313,-2.15 15.942,-0.184 2.653,0.787 9.261,3.461 14.684,5.92 9.835,4.463 9.873,4.455 13.312,2.655 7.996,-4.184 7.258,-11.504 -2.351,-23.538 -4.185,-5.242 -7.898,-7.578 -14.645,-9.228 -2.499,-0.609 -7.629,-5.445 -7.629,-7.186 0,-0.171 0.033,-0.308 0.073,-0.429 h 1.722 c 0.379,0.277 0.765,0.674 1.149,1.185 2.127,2.826 6.416,4.711 10.757,4.735 4.716,0.027 10.493,2.617 14.832,6.656 3.812,3.549 7.641,4.605 10.536,2.898 1.602,-0.945 3.061,-1.041 4.999,-0.304 3.445,1.304 5.148,0.673 5.148,-1.901 0,-1.156 1.212,-2.709 2.868,-3.654 1.585,-0.902 4.413,-3.115 6.277,-4.92 1.42,-1.375 2.456,-2.002 3.001,-2 0.02,0 0.054,-0.002 0.074,0 0.013,0.002 0.042,-0.004 0.054,0 0.01,0.004 0.029,0.018 0.039,0.022 0.006,0.001 0.029,0.015 0.036,0.019 0.024,0.012 0.054,0.025 0.075,0.041 0.002,0.004 0.014,0.018 0.017,0.022 l 0.02,0.019 c 0.003,0.002 0.015,0.018 0.018,0.022 0.002,0.002 0.016,0.015 0.018,0.019 0.008,0.01 0.013,0.027 0.019,0.039 0.004,0.01 0.015,0.033 0.019,0.041 0.002,0.01 0.015,0.033 0.018,0.041 l 0.019,0.063 c 0.004,0.021 -0.004,0.058 0,0.082 0.056,0.603 -0.414,1.82 -1.501,3.531 -0.638,1.006 -0.964,2.008 -0.87,2.51 0.006,0.025 0.013,0.06 0.019,0.082 0.003,0.008 0.015,0.033 0.018,0.041 0.003,0.004 -0.002,0.017 0,0.019 0.003,0.004 0.017,0.018 0.018,0.022 0.012,0.017 0.026,0.047 0.039,0.062 0.002,0.002 0.014,0.016 0.016,0.02 0.01,0.008 0.029,0.013 0.038,0.021 0.003,0 0.016,0.018 0.019,0.02 0.008,0.004 0.027,0.015 0.038,0.019 0.601,0.235 3.788,0.116 7.276,-0.287 6.134,-0.701 6.878,-1.07 10.499,-5.265 1.788,-2.071 3.254,-3.373 4.443,-3.92 h 2.463 c 0.525,0.236 0.894,0.58 0.981,0.918 0.002,0.009 0.017,0.033 0.019,0.041 0.003,0.013 -10e-4,0.049 0,0.062 0.001,0.008 0,0.033 0,0.041 0,0.01 0.001,0.031 0,0.041 0,0.002 0.001,0.018 0,0.02 -10e-4,0.006 0.001,0.015 0,0.021 -0.211,0.705 -3.844,4.16 -8.202,7.797 -9.909,8.268 -11.427,11.291 -11.462,22.742 -0.022,6.85 0.303,8.604 1.907,10.371 2.498,2.754 3.869,2.686 9.999,-0.509 4.629,-2.414 6.067,-2.618 16.589,-2.389 11.302,0.244 11.633,0.174 17.313,-3.164 3.184,-1.871 7.074,-4.377 8.666,-5.572 3.514,-2.643 7.082,-2.828 7.925,-0.411 0.994,2.858 -5.686,8.401 -18.238,15.086 -12.483,6.651 -13.79,8.511 -8.036,11.535 3.271,1.721 3.499,1.689 8.683,-1.204 4.156,-2.318 6.058,-2.816 8.722,-2.266 l 3.406,0.714 -7.499,6.146 c -4.123,3.379 -8.111,6.964 -8.869,7.981 -2.189,2.946 -6.425,4.9 -10.591,4.9 -1.952,0 -3.775,0.376 -4.277,0.836 -0.016,0.017 -0.042,0.046 -0.056,0.063 -0.003,0.003 -0.014,0.016 -0.018,0.02 -0.005,0.008 -0.015,0.033 -0.019,0.04 -1.171,2.091 2.359,3.084 12.202,3.472 13.264,0.522 15.088,2.068 5.944,5.021 -3.651,1.18 -9.123,2.672 -12.165,3.328 -3.709,0.799 -5.765,1.669 -6.277,2.674 -0.056,0.115 -0.093,0.25 -0.111,0.368 -0.011,0.088 -0.011,0.195 0,0.285 0.046,0.343 0.248,0.703 0.594,1.083 0.621,0.687 3.597,0.608 8.664,-0.245 5.678,-0.959 8.789,-1.174 9.35,-0.51 0.586,0.762 -2.032,2.659 -7.813,5.859 -5.268,2.914 -11.916,7.629 -14.943,10.615 -3,2.958 -7.456,6.322 -9.887,7.47 -3.208,1.518 -4.247,2.546 -3.832,3.737 0.721,2.077 5.771,2.099 9.034,0.041 1.326,-0.837 4.804,-1.511 7.723,-1.49 l 5.313,0.041 -3.518,1.429 c -3.514,1.425 -13.073,8.224 -13.812,9.758 -0.015,0.03 -0.031,0.076 -0.038,0.102 -0.002,0.01 10e-4,0.032 0,0.04 v 0.021 c 10e-4,0.004 -0.001,0.018 0,0.021 0.002,0.003 0.017,0.017 0.017,0.02 0.006,0.006 0.015,0.015 0.021,0.02 0.001,0.003 0.015,0.018 0.018,0.021 0.391,0.289 2.593,0.412 5.239,0.265 l 5.314,-0.306 -7.646,5.9 c -5.612,4.323 -9.069,6.184 -13.017,7.023 -2.959,0.627 -6.35,1.376 -7.536,1.653 -3.171,0.745 -8.497,6.296 -10.666,11.126 z"
           style="fill:#2fab49;fill-opacity:1;fill-rule:nonzero;stroke:none"
           id="path32311"
           inkscape:connector-curvature="0" /></g></g></g></svg>
