<svg id="eUBVzXEteui1" xmlns="http://www.w3.org/2000/svg" xmlns:xlink="http://www.w3.org/1999/xlink" viewBox="0 0 17000 4000" shape-rendering="geometricPrecision" text-rendering="geometricPrecision"><g id="eUBVzXEteui2" transform="matrix(1 0 0 1 -3466.231429 -342.523438)" clip-rule="evenodd"><g id="eUBVzXEteui3" transform="matrix(1 0 0 1 -533.768571 -11330.476929)" clip-rule="evenodd"><path id="eUBVzXEteui4" d="M4273,15141L4273,15070C4336,15092,4403,15103,4476,15103C4578,15103,4629,15066,4629,14991C4629,14927,4592,14895,4516,14895L4439,14895C4315,14895,4252,14841,4252,14733C4252,14619,4332,14562,4492,14562C4561,14562,4626,14570,4686,14587L4686,14658C4626,14636,4561,14625,4492,14625C4384,14625,4330,14661,4330,14733C4330,14797,4366,14829,4439,14829L4516,14829C4643,14829,4706,14883,4706,14991C4706,15108,4629,15166,4476,15166C4403,15166,4336,15158,4273,15141ZM5560,14862C5560,15023,5633,15103,5778,15103C5920,15103,5991,15023,5991,14862C5991,14704,5920,14625,5778,14625C5633,14625,5560,14704,5560,14862ZM5479,14865C5479,14663,5579,14562,5778,14562C5974,14562,6072,14663,6072,14865C6072,15065,5974,15166,5778,15166C5579,15166,5479,15065,5479,14865ZM6951,14566L6951,15099L7262,15099L7262,15162L6874,15162L6874,14566L6951,14566ZM8031,14932L8031,14566L8108,14566L8108,14932C8108,15046,8165,15103,8279,15103C8392,15103,8449,15046,8449,14932L8449,14566L8526,14566L8526,14932C8526,15088,8444,15166,8279,15166C8113,15166,8031,15088,8031,14932ZM9567,15163C9400,15144,9316,15041,9316,14856C9316,14660,9420,14562,9628,14562C9688,14562,9743,14570,9794,14587L9794,14654C9743,14634,9690,14625,9636,14625C9474,14625,9393,14702,9393,14856C9393,15021,9474,15103,9636,15103C9690,15103,9743,15094,9794,15074L9794,15141C9743,15158,9688,15166,9628,15166L9621,15166L9606,15194C9666,15194,9695,15218,9695,15265C9695,15313,9662,15337,9595,15337C9565,15337,9535,15330,9505,15317L9505,15272C9535,15285,9565,15292,9595,15292C9625,15292,9640,15283,9640,15265C9640,15248,9628,15239,9605,15239L9529,15239L9567,15163ZM10663,14862C10663,15023,10735,15103,10881,15103C11023,15103,11094,15023,11094,14862C11094,14704,11023,14625,10881,14625C10735,14625,10663,14704,10663,14862ZM10582,14865C10582,14663,10681,14562,10881,14562C11077,14562,11175,14663,11175,14865C11175,15065,11077,15166,10881,15166C10681,15166,10582,15065,10582,14865ZM10774,14427C10791,14414,10809,14408,10829,14408C10843,14408,10858,14412,10874,14419C10890,14426,10906,14430,10922,14430C10943,14430,10963,14423,10983,14410L10983,14473C10966,14486,10948,14492,10928,14492C10914,14492,10899,14489,10883,14481C10867,14474,10851,14470,10835,14470C10814,14470,10794,14477,10774,14489L10774,14427ZM12366,14566L12366,14629L12054,14629L12054,14829L12352,14829L12352,14891L12054,14891L12054,15099L12372,15099L12372,15162L11977,15162L11977,14566L12366,14566ZM13162,15141L13162,15070C13224,15092,13292,15103,13364,15103C13466,15103,13518,15066,13518,14991C13518,14927,13480,14895,13404,14895L13328,14895C13203,14895,13141,14841,13141,14733C13141,14619,13221,14562,13380,14562C13450,14562,13514,14570,13574,14587L13574,14658C13514,14636,13450,14625,13380,14625C13272,14625,13218,14661,13218,14733C13218,14797,13254,14829,13328,14829L13404,14829C13531,14829,13595,14883,13595,14991C13595,15108,13518,15166,13364,15166C13292,15166,13224,15158,13162,15141ZM15335,14566L15335,14629L15023,14629L15023,14829L15320,14829L15320,14891L15023,14891L15023,15099L15341,15099L15341,15162L14946,15162L14946,14566L15335,14566ZM16139,15162L16139,14566L16237,14566L16455,15063L16670,14566L16764,14566L16764,15162L16695,15162L16695,14673L16483,15162L16422,15162L16208,14673L16208,15162L16139,15162ZM18594,15141C18542,15158,18487,15166,18427,15166C18219,15166,18115,15062,18115,14856C18115,14660,18219,14562,18427,14562C18487,14562,18542,14570,18594,14587L18594,14654C18542,14634,18489,14625,18435,14625C18273,14625,18192,14702,18192,14856C18192,15021,18273,15103,18435,15103C18489,15103,18542,15094,18594,15074L18594,15141ZM19851,15138C19803,15157,19751,15166,19696,15166C19480,15166,19372,15062,19372,14856C19372,14660,19476,14562,19685,14562C19744,14562,19800,14570,19851,14587L19851,14654C19800,14634,19747,14625,19693,14625C19531,14625,19449,14702,19449,14856C19449,15021,19529,15103,19689,15103C19715,15103,19743,15100,19774,15093L19774,14891L19851,14891L19851,15138ZM20749,14566L20749,15162L20672,15162L20672,14566L20749,14566Z" clip-rule="evenodd" fill="rgb(0,0,0)" stroke="none" stroke-width="1"/><g id="eUBVzXEteui5" clip-rule="evenodd"><path id="eUBVzXEteui6" d="M7151,12933C7151,13354,7338,13564,7712,13564C8076,13564,8259,13354,8259,12933C8259,12519,8076,12311,7712,12311C7338,12311,7151,12519,7151,12933ZM6803,12940C6803,12327,7106,12020,7712,12020C8308,12020,8607,12327,8607,12940C8607,13550,8308,13855,7712,13855C7133,13855,6830,13550,6803,12940Z" clip-rule="evenodd" fill="rgb(0,0,0)" stroke="none" stroke-width="1"/><path id="eUBVzXEteui7" d="M9632,13551C10007,13551,10195,13330,10195,12888C10195,12512,10007,12324,9632,12324L9259,12324L9259,13551L9632,13551ZM8923,13843L8923,12033L9632,12033C10231,12033,10530,12318,10530,12888C10530,13525,10231,13843,9632,13843L8923,13843Z" clip-rule="evenodd" fill="rgb(0,0,0)" stroke="none" stroke-width="1"/><polygon id="eUBVzXEteui8" points="12054,12033 12054,12321 11148,12321 11148,12777 12011,12777 12011,13077 11144,13077 11144,13551 12072,13551 12072,13843 10816,13843 10816,12033" clip-rule="evenodd" fill="rgb(0,0,0)" stroke="none" stroke-width="1"/><polygon id="eUBVzXEteui9" points="12718,12033 12718,13551 13436,13551 13436,13843 12382,13843 12382,12033" clip-rule="evenodd" fill="rgb(0,0,0)" stroke="none" stroke-width="1"/><polygon id="eUBVzXEteui10" points="13939,13843 13594,13843 14363,12033 14724,12033 15508,13843 15147,13843 14941,13349 14340,13349 14455,13058 14820,13058 14535,12378" clip-rule="evenodd" fill="rgb(0,0,0)" stroke="none" stroke-width="1"/><polygon id="eUBVzXEteui11" points="18678,12033 18678,13843 18343,13843 18343,12033" clip-rule="evenodd" fill="rgb(0,0,0)" stroke="none" stroke-width="1"/><polygon id="eUBVzXEteui12" points="19612,12938 18900,12033 19324,12033 19824,12694 20323,12033 20748,12033 20036,12938 20748,13843 20323,13843 19824,13182 19324,13843 18900,13843" clip-rule="evenodd" fill="rgb(0,0,0)" stroke="none" stroke-width="1"/><path id="eUBVzXEteui13" d="M6487,13843L6171,13843L6171,12912L5369,13360L4702,12987L4702,12626L5369,13000L6171,12550L6487,12373L6487,12735L6487,13843ZM4251,13843L4567,13843L4567,12912L4567,12550L4567,12371L5369,12819L6171,12371L6171,12371L6487,12194L6487,12009L6171,12009L5369,12459L4567,12009L4251,12009L4251,12194L4251,12373L4251,12735L4251,13843Z" clip-rule="evenodd" fill="rgb(0,0,0)" stroke="none" stroke-width="1"/><path id="eUBVzXEteui14" d="M17959,13843L17644,13843L17644,12912L16842,13360L16174,12987L16174,12626L16842,13000L17644,12550L17959,12373L17959,12735L17959,13843ZM15724,13843L16040,13843L16040,12912L16040,12550L16040,12371L16842,12819L17644,12371L17644,12371L17959,12194L17959,12009L17644,12009L16842,12459L16040,12009L15724,12009L15724,12194L15724,12373L15724,12735L15724,13843Z" clip-rule="evenodd" fill="rgb(0,0,0)" stroke="none" stroke-width="1"/></g></g></g></svg>