<?xml version="1.0" encoding="UTF-8"?>
<!DOCTYPE svg PUBLIC "-//W3C//DTD SVG 1.1//EN" "http://www.w3.org/Graphics/SVG/1.1/DTD/svg11.dtd">
<!-- Creator: CorelDRAW X8 -->
<svg xmlns="http://www.w3.org/2000/svg" xml:space="preserve" width="250mm" height="180mm" version="1.1" style="shape-rendering:geometricPrecision; text-rendering:geometricPrecision; image-rendering:optimizeQuality; fill-rule:evenodd; clip-rule:evenodd"
viewBox="0 0 25000 18000"
 xmlns:xlink="http://www.w3.org/1999/xlink">
 <defs>
  <style type="text/css">
   <![CDATA[
    .fil0 {fill:#FF0000}
    .fil2 {fill:#00FF00}
    .fil1 {fill:#fff;fill-rule:nonzero}
   ]]>
  </style>
 </defs>
 <g id="Camada_x0020_1">
  <metadata id="CorelCorpID_0Corel-Layer"/>
  <g id="_2970630101376">
   <g>
    <path class="fil1" d="M12385 5280l46 -2511c1,-60 50,-107 110,-106 22,0 43,7 60,19l2227 1544c32,22 48,57 47,93l-8 2600c0,35 -17,67 -44,87l0 0 -2206 1626 0 1992c0,61 -49,109 -109,109 -25,0 -49,-9 -68,-24l-2268 -1597c-32,-23 -48,-60 -46,-96l8 -2044c0,-36 18,-68 45,-87l0 -1 2206 -1604zm259 -2304l-42 2355c1,35 -14,71 -45,93l-2206 1604 -7 1939 2055 1448 0 -1837 1 0c0,-34 15,-67 44,-88l2206 -1627 8 -2491 -2014 -1396z"/>
    <path class="fil1" d="M12571 10713c-49,35 -116,23 -151,-26 -35,-48 -23,-116 25,-151l2121 -1510 -886 -647c-48,-35 -59,-103 -24,-151 36,-49 103,-59 152,-24l1001 731c12,8 22,17 31,29 34,49 23,117 -26,151l-2243 1598zm778 -2844c48,35 59,103 23,151 -35,49 -103,59 -151,24l-691 -504 -2233 1572c-49,34 -117,23 -151,-26 -35,-50 -23,-117 26,-152l2297 -1617 0 1c37,-26 88,-27 126,1l754 550z"/>
    <path class="fil1" d="M10180 7061c-49,-35 -60,-102 -26,-151 35,-49 102,-61 151,-26l1410 999c49,34 60,102 26,151 -35,49 -102,60 -151,26l-1410 -999zm1790 1268c-49,-35 -60,-102 -26,-151 35,-49 102,-60 151,-26l476 337c49,35 60,102 26,151 -35,49 -102,61 -151,26l-476 -337z"/>
    <path class="fil1" d="M12431 5425c-49,-34 -61,-102 -27,-151 34,-49 102,-61 151,-26l2266 1582c49,34 61,102 27,151 -35,49 -102,61 -151,26l-2266 -1582z"/>
   </g>
 </g>
</svg>
