<?xml version="1.0" encoding="UTF-8"?>
<!DOCTYPE svg PUBLIC "-//W3C//DTD SVG 1.1//EN" "http://www.w3.org/Graphics/SVG/1.1/DTD/svg11.dtd">
<!-- Creator: CorelDRAW X8 -->
<svg xmlns="http://www.w3.org/2000/svg" xml:space="preserve" width="250mm" height="180mm" version="1.1" style="shape-rendering:geometricPrecision; text-rendering:geometricPrecision; image-rendering:optimizeQuality; fill-rule:evenodd; clip-rule:evenodd"
viewBox="0 0 25000 18000"
 xmlns:xlink="http://www.w3.org/1999/xlink">
 <defs>
  <style type="text/css">
   <![CDATA[
    .fil0 {fill:#FF0000}
    .fil2 {fill:#00FF00}
    .fil1 {fill:#fff;fill-rule:nonzero}
   ]]>
  </style>
 </defs>
 <g id="Camada_x0020_1">
  <metadata id="CorelCorpID_0Corel-Layer"/>
  <g id="_2970630101376">
   <path class="fil1" d="M4273 15141l0 -71c63,22 130,33 203,33 102,0 153,-37 153,-112 0,-64 -37,-96 -113,-96l-77 0c-124,0 -187,-54 -187,-162 0,-114 80,-171 240,-171 69,0 134,8 194,25l0 71c-60,-22 -125,-33 -194,-33 -108,0 -162,36 -162,108 0,64 36,96 109,96l77 0c127,0 190,54 190,162 0,117 -77,175 -230,175 -73,0 -140,-8 -203,-25zm1287 -279c0,161 73,241 218,241 142,0 213,-80 213,-241 0,-158 -71,-237 -213,-237 -145,0 -218,79 -218,237zm-81 3c0,-202 100,-303 299,-303 196,0 294,101 294,303 0,200 -98,301 -294,301 -199,0 -299,-101 -299,-301zm1472 -299l0 533 311 0 0 63 -388 0 0 -596 77 0zm1080 366l0 -366 77 0 0 366c0,114 57,171 171,171 113,0 170,-57 170,-171l0 -366 77 0 0 366c0,156 -82,234 -247,234 -166,0 -248,-78 -248,-234zm1536 231c-167,-19 -251,-122 -251,-307 0,-196 104,-294 312,-294 60,0 115,8 166,25l0 67c-51,-20 -104,-29 -158,-29 -162,0 -243,77 -243,231 0,165 81,247 243,247 54,0 107,-9 158,-29l0 67c-51,17 -106,25 -166,25l-7 0 -15 28c60,0 89,24 89,71 0,48 -33,72 -100,72 -30,0 -60,-7 -90,-20l0 -45c30,13 60,20 90,20 30,0 45,-9 45,-27 0,-17 -12,-26 -35,-26l-76 0 38 -76zm1096 -301c0,161 72,241 218,241 142,0 213,-80 213,-241 0,-158 -71,-237 -213,-237 -146,0 -218,79 -218,237zm-81 3c0,-202 99,-303 299,-303 196,0 294,101 294,303 0,200 -98,301 -294,301 -200,0 -299,-101 -299,-301zm192 -438c17,-13 35,-19 55,-19 14,0 29,4 45,11 16,7 32,11 48,11 21,0 41,-7 61,-20l0 63c-17,13 -35,19 -55,19 -14,0 -29,-3 -45,-11 -16,-7 -32,-11 -48,-11 -21,0 -41,7 -61,19l0 -62zm1592 139l0 63 -312 0 0 200 298 0 0 62 -298 0 0 208 318 0 0 63 -395 0 0 -596 389 0zm796 575l0 -71c62,22 130,33 202,33 102,0 154,-37 154,-112 0,-64 -38,-96 -114,-96l-76 0c-125,0 -187,-54 -187,-162 0,-114 80,-171 239,-171 70,0 134,8 194,25l0 71c-60,-22 -124,-33 -194,-33 -108,0 -162,36 -162,108 0,64 36,96 110,96l76 0c127,0 191,54 191,162 0,117 -77,175 -231,175 -72,0 -140,-8 -202,-25zm2173 -575l0 63 -312 0 0 200 297 0 0 62 -297 0 0 208 318 0 0 63 -395 0 0 -596 389 0zm804 596l0 -596 98 0 218 497 215 -497 94 0 0 596 -69 0 0 -489 -212 489 -61 0 -214 -489 0 489 -69 0zm2455 -21c-52,17 -107,25 -167,25 -208,0 -312,-104 -312,-310 0,-196 104,-294 312,-294 60,0 115,8 167,25l0 67c-52,-20 -105,-29 -159,-29 -162,0 -243,77 -243,231 0,165 81,247 243,247 54,0 107,-9 159,-29l0 67zm1257 -3c-48,19 -100,28 -155,28 -216,0 -324,-104 -324,-310 0,-196 104,-294 313,-294 59,0 115,8 166,25l0 67c-51,-20 -104,-29 -158,-29 -162,0 -244,77 -244,231 0,165 80,247 240,247 26,0 54,-3 85,-10l0 -202 77 0 0 247zm898 -572l0 596 -77 0 0 -596 77 0z"/>
   <g>
    <path class="fil1" d="M7151 12933c0,421 187,631 561,631 364,0 547,-210 547,-631 0,-414 -183,-622 -547,-622 -374,0 -561,208 -561,622zm-348 7c0,-613 303,-920 909,-920 596,0 895,307 895,920 0,610 -299,915 -895,915 -579,0 -882,-305 -909,-915z"/>
    <path class="fil1" d="M9632 13551c375,0 563,-221 563,-663 0,-376 -188,-564 -563,-564l-373 0 0 1227 373 0zm-709 292l0 -1810 709 0c599,0 898,285 898,855 0,637 -299,955 -898,955l-709 0z"/>
    <polygon class="fil1" points="12054,12033 12054,12321 11148,12321 11148,12777 12011,12777 12011,13077 11144,13077 11144,13551 12072,13551 12072,13843 10816,13843 10816,12033 "/>
    <polygon class="fil1" points="12718,12033 12718,13551 13436,13551 13436,13843 12382,13843 12382,12033 "/>
    <polygon class="fil1" points="13939,13843 13594,13843 14363,12033 14724,12033 15508,13843 15147,13843 14941,13349 14340,13349 14455,13058 14820,13058 14535,12378 "/>
    <polygon class="fil1" points="18678,12033 18678,13843 18343,13843 18343,12033 "/>
    <polygon class="fil1" points="19612,12938 18900,12033 19324,12033 19824,12694 20323,12033 20748,12033 20036,12938 20748,13843 20323,13843 19824,13182 19324,13843 18900,13843 "/>
    <path class="fil1" d="M6487 13843l-316 0 0 -931 -802 448 -667 -373 0 -361 667 374 802 -450 316 -177 0 362 0 1108zm-2236 0l316 0 0 -931 0 -362 0 -179 802 448 802 -448 0 0 316 -177 0 -185 -316 0 -802 450 -802 -450 -316 0 0 185 0 179 0 362 0 1108z"/>
    <path class="fil1" d="M17959 13843l-315 0 0 -931 -802 448 -668 -373 0 -361 668 374 802 -450 315 -177 0 362 0 1108zm-2235 0l316 0 0 -931 0 -362 0 -179 802 448 802 -448 0 0 315 -177 0 -185 -315 0 -802 450 -802 -450 -316 0 0 185 0 179 0 362 0 1108z"/>
   </g>
  </g>
 </g>
</svg>
